<svg width="42" height="17" viewBox="0 0 42 17" fill="none" xmlns="http://www.w3.org/2000/svg">
<path d="M7.944 11.133V2.637L3.216 11.133H7.944ZM9.768 16.125H8.352C8.08 16.125 7.944 15.989 7.944 15.717V13.197H1.608C1.144 13.197 0.912 12.965 0.912 12.501V11.757C0.912 11.405 0.984 11.093 1.128 10.821L6.48 1.293C6.608 1.053 6.728 0.893 6.84 0.813C6.952 0.733 7.12 0.693 7.344 0.693H9.456C9.92 0.693 10.152 0.925 10.152 1.389V11.133H11.904C12.176 11.133 12.312 11.269 12.312 11.541V12.741C12.312 13.045 12.176 13.197 11.904 13.197H10.152V15.717C10.152 15.989 10.024 16.125 9.768 16.125ZM16.3969 12.789V15.717C16.3969 15.989 16.2689 16.125 16.0129 16.125H14.3809C14.1089 16.125 13.9729 15.989 13.9729 15.717V12.789C13.9729 12.533 14.1089 12.405 14.3809 12.405H16.0129C16.2689 12.405 16.3969 12.533 16.3969 12.789ZM23.0741 14.085H24.7781C25.9301 14.085 26.5061 13.493 26.5061 12.309V4.509C26.5061 3.325 25.9301 2.733 24.7781 2.733H23.0741C21.9221 2.733 21.3461 3.325 21.3461 4.509V12.309C21.3461 13.493 21.9221 14.085 23.0741 14.085ZM25.1141 16.125H22.7141C21.5301 16.125 20.6101 15.797 19.9541 15.141C19.2981 14.485 18.9701 13.573 18.9701 12.405V4.413C18.9701 3.229 19.2981 2.317 19.9541 1.677C20.6101 1.021 21.5301 0.693 22.7141 0.693H25.1141C26.2821 0.693 27.1941 1.021 27.8501 1.677C28.5061 2.317 28.8341 3.229 28.8341 4.413V12.405C28.8341 13.573 28.5061 14.485 27.8501 15.141C27.1941 15.797 26.2821 16.125 25.1141 16.125ZM37.8658 7.437H41.2978C41.6018 7.437 41.7538 7.597 41.7538 7.917V8.925C41.7538 9.229 41.6018 9.381 41.2978 9.381H37.8658V12.861C37.8658 13.181 37.7058 13.341 37.3858 13.341H36.3058C36.0018 13.341 35.8498 13.181 35.8498 12.861V9.381H32.3938C32.0898 9.381 31.9378 9.229 31.9378 8.925V7.917C31.9378 7.597 32.0898 7.437 32.3938 7.437H35.8498V3.981C35.8498 3.661 36.0018 3.501 36.3058 3.501H37.3858C37.7058 3.501 37.8658 3.661 37.8658 3.981V7.437Z" fill="#FEFEFE"/>
</svg>
