<svg width="40" height="17" viewBox="0 0 40 17" fill="none" xmlns="http://www.w3.org/2000/svg">
<path d="M5.624 7.965H4.136C3.832 7.965 3.576 8.021 3.368 8.133C3.176 8.245 3.048 8.365 2.984 8.493C2.808 8.861 2.592 9.045 2.336 9.045H0.824C0.552 9.045 0.416 8.909 0.416 8.637V1.101C0.416 0.829 0.552 0.693 0.824 0.693H8.96C9.248 0.693 9.392 0.829 9.392 1.101V2.469C9.392 2.741 9.248 2.877 8.96 2.877H2.768V7.245C3.04 6.461 3.712 6.069 4.784 6.069H6.2C7.352 6.069 8.232 6.373 8.84 6.981C9.448 7.573 9.752 8.453 9.752 9.621V12.405C9.752 13.573 9.424 14.485 8.768 15.141C8.112 15.797 7.2 16.125 6.032 16.125H3.992C2.808 16.125 1.888 15.797 1.232 15.141C0.592 14.485 0.272 13.573 0.272 12.405V11.781C0.272 11.493 0.408 11.349 0.68 11.349H2.192C2.464 11.349 2.6 11.493 2.6 11.781V12.381C2.6 13.549 3.176 14.133 4.328 14.133H5.696C6.88 14.133 7.472 13.549 7.472 12.381V9.957C7.472 9.237 7.328 8.725 7.04 8.421C6.768 8.117 6.296 7.965 5.624 7.965ZM23.2417 0.693H25.9297C26.2017 0.693 26.3377 0.829 26.3377 1.101V15.717C26.3377 15.989 26.2017 16.125 25.9297 16.125H24.4417C24.1697 16.125 24.0337 15.989 24.0337 15.717V3.597H23.9377L20.8177 12.381C20.7217 12.637 20.5457 12.765 20.2897 12.765H18.7537C18.5137 12.765 18.3457 12.637 18.2497 12.381L15.0577 3.573H14.9617V15.717C14.9617 15.877 14.9297 15.989 14.8657 16.053C14.8177 16.101 14.7137 16.125 14.5537 16.125H13.0897C12.8177 16.125 12.6817 15.989 12.6817 15.717V1.101C12.6817 0.829 12.8177 0.693 13.0897 0.693H15.7777C15.9537 0.693 16.0817 0.781 16.1617 0.956999L19.4497 10.221H19.5697L22.8817 0.956999C22.9137 0.781 23.0337 0.693 23.2417 0.693ZM35.6939 7.437H39.1259C39.4299 7.437 39.5819 7.597 39.5819 7.917V8.925C39.5819 9.229 39.4299 9.381 39.1259 9.381H35.6939V12.861C35.6939 13.181 35.5339 13.341 35.2139 13.341H34.1339C33.8299 13.341 33.6779 13.181 33.6779 12.861V9.381H30.2219C29.9179 9.381 29.7659 9.229 29.7659 8.925V7.917C29.7659 7.597 29.9179 7.437 30.2219 7.437H33.6779V3.981C33.6779 3.661 33.8299 3.501 34.1339 3.501H35.2139C35.5339 3.501 35.6939 3.661 35.6939 3.981V7.437Z" fill="#FEFEFE"/>
</svg>
