<svg width="405" height="42" viewBox="0 0 405 42" fill="none" xmlns="http://www.w3.org/2000/svg">
<g clip-path="url(#clip0_3_6873)">
<path d="M373.117 39.3488C373.117 38.45 373.85 37.7246 374.797 37.7246C375.751 37.7246 376.476 38.45 376.476 39.3488C376.476 40.2477 375.751 41.0283 374.797 41.0283C373.85 41.0361 373.117 40.3029 373.117 39.3488ZM373.456 39.3488C373.456 40.0742 374.071 40.6971 374.86 40.6971C375.585 40.6971 376.208 40.1373 376.208 39.3488C376.208 38.6235 375.593 38.0557 374.86 38.0557C374.016 38.0636 373.456 38.6786 373.456 39.3488Z" fill="#6B6B6B" fill-opacity="0.65"/>
<path d="M375.642 40.3041H375.303L374.743 39.4604H374.404V40.3041H374.184V38.4512H375.027C375.193 38.4512 375.366 38.4512 375.477 38.5616C375.642 38.6168 375.697 38.7823 375.697 38.9558C375.697 39.2948 375.414 39.4604 375.082 39.4604L375.642 40.3041ZM374.751 39.2396C375.035 39.2396 375.366 39.2948 375.366 38.9558C375.366 38.735 375.146 38.672 374.917 38.672H374.412V39.2318H374.751V39.2396Z" fill="#6B6B6B" fill-opacity="0.65"/>
<path d="M366.784 41.0421C378.556 30.9498 395.098 21.1413 404.181 17.609C402.777 16.7101 400.593 15.4249 398.125 14.0215C386.409 17.8928 372.729 26.4713 360.5 36.1694C362.582 37.7305 364.766 39.3548 366.784 41.0421Z" fill="#6B6B6B" fill-opacity="0.65"/>
<path d="M361.406 13.6168C359.671 12.7731 357.763 11.9925 356.305 11.3145C351.873 13.4985 346.102 16.81 338.809 22.0218C340.378 22.8654 342.057 23.8746 343.855 24.8839C349.469 20.7366 355.13 16.8179 361.406 13.6168Z" fill="#6B6B6B" fill-opacity="0.65"/>
<path d="M371.888 8.79666C369.759 7.62185 362.355 4.87012 357.254 3.69531C355.74 4.25512 353.611 5.09877 352.152 5.71377C354.005 6.21839 360.896 8.07128 366.786 11.0438C368.3 10.3105 370.429 9.41166 371.888 8.79666Z" fill="#6B6B6B" fill-opacity="0.65"/>
<path d="M346.825 8.07031C340.265 11.098 333.366 15.2453 329.613 17.658C330.962 18.273 332.302 18.7776 334.155 19.6765C342.449 14.0705 348.954 10.6486 351.533 9.52896C349.688 8.85877 347.953 8.40935 346.825 8.07031Z" fill="#6B6B6B" fill-opacity="0.65"/>
<path d="M376.831 7.05703C378.345 6.55242 380.079 6.10299 381.593 5.65357C377.217 3.80069 371.722 1.83742 366.794 0.607422C366.005 0.828191 363.656 1.45108 362.032 1.9557C363.711 2.46031 369.262 3.75338 376.831 7.05703ZM349.188 28.1405C350.985 29.2049 352.885 30.6636 354.738 31.8936C367.015 22.3611 379.125 15.0205 392.419 10.8653C390.566 9.91126 388.942 9.06761 386.868 8.05838C378.905 10.0847 365.28 15.5251 349.188 28.1405Z" fill="#6B6B6B" fill-opacity="0.65"/>
<path d="M0.492188 38.1219H9.46488C14.0064 38.1219 16.1353 35.7645 16.1353 32.4608C16.1353 29.7721 14.7318 27.9744 11.8145 27.4146C14.3928 26.7996 15.5676 25.2306 15.5676 22.9283C15.5676 20.011 13.4387 17.6614 8.89719 17.6614H0.54738V38.1219H0.492188ZM8.28219 29.4331C9.96161 29.4331 11.1443 30.2768 11.1443 31.9562C11.1443 33.7539 10.0247 34.4793 8.28219 34.4793H5.36488V29.3779H8.28219V29.4331ZM7.72238 21.241C9.4018 21.241 10.5845 21.9664 10.5845 23.6537C10.5845 25.341 9.46488 26.0664 7.72238 26.0664H5.37276V21.241H7.72238ZM34.2462 17.5983H29.2001L21.5205 38.1219H26.6218L28.0253 33.8643H35.4289L36.8324 38.1219H41.9889L34.2462 17.5983ZM31.7231 22.5341L34.1358 30.1033H29.2001L31.7231 22.5341ZM67.5508 17.5983H62.8989V31.3333L54.1549 17.5983H48.9431V38.1219H53.5951V24.4421L62.3391 38.1219H67.5508V17.5983ZM89.0206 38.1219L82.2951 27.6906V38.1219H77.3041V17.5983H82.2951V27.4698L88.6895 17.5983H94.2403L87.5147 27.4698L94.8631 38.1219H89.0206ZM112.517 27.8562C112.517 31.9483 114.985 34.4714 118.178 34.4714C121.371 34.4714 123.839 31.9483 123.839 27.8562C123.839 23.7641 121.371 21.241 118.178 21.241C114.985 21.241 112.517 23.7641 112.517 27.8562ZM107.25 27.8562C107.305 21.856 111.508 17.1489 118.186 17.1489C124.856 17.1489 129.067 21.856 129.122 27.8562C129.067 33.8564 124.864 38.5635 118.186 38.5635C111.508 38.5714 107.305 33.8564 107.25 27.8562ZM135.95 38.1219H140.941V30.0481H147.446V26.1216H140.941V21.5248H148.794L149.693 17.5983H135.95V38.1219ZM172.96 17.5983H167.914L160.234 38.1219H165.336L166.739 33.8643H174.143L175.546 38.1219H180.703L172.96 17.5983ZM170.437 22.5341L172.85 30.1033H167.914L170.437 22.5341ZM210.302 17.5983H204.467L199.137 28.6998L193.807 17.5983H187.973V38.1219H192.459V24.3869L199.074 38.1219L205.689 24.3869V38.1219H210.341L210.302 17.5983ZM220 38.1219H234.019V34.1954H224.991V29.5987H232.111V25.7825H224.991V21.5248H233.23L234.129 17.5983H220V38.1219ZM253.021 38.1219H258.461L253.36 29.4331C256.167 28.6447 257.507 26.6893 257.507 23.8271C257.507 20.1293 255.268 17.6614 250.222 17.6614H242.313V38.185H247.194V30.1112H248.542L253.021 38.1219ZM249.268 21.4144C251.341 21.4144 252.406 22.3133 252.406 24.0479C252.406 25.7825 251.341 26.6814 249.268 26.6814H247.139V21.4144H249.268ZM265.92 38.1219H270.911V17.6535H265.92V38.1219ZM295.471 32.6264C293.563 33.9746 291.884 34.4241 290.141 34.4241C286.325 34.4241 283.637 31.7906 283.637 27.8641C283.637 23.9375 286.27 21.3041 289.976 21.3041C291.655 21.3041 293.343 21.7535 295.188 23.1018V18.4498C293.508 17.4958 291.545 17.1016 289.353 17.1016C282.572 17.1016 278.307 21.8087 278.251 27.8089C278.307 33.8642 282.454 38.5162 289.353 38.5162C291.655 38.5162 293.611 38.122 295.408 37.1679V32.6264H295.471ZM313.748 17.5983H308.702L301.022 38.1219H306.124L307.527 33.8643H314.931L316.334 38.1219H321.491L313.748 17.5983ZM311.225 22.5341L313.638 30.1033H308.702L311.225 22.5341Z" fill="#6B6B6B" fill-opacity="0.65"/>
</g>
<defs>
<clipPath id="clip0_3_6873">
<rect width="403.692" height="41" fill="white" transform="translate(0.466797 0.318359)"/>
</clipPath>
</defs>
</svg>
