<svg width="185" height="32" viewBox="0 0 185 32" fill="none" xmlns="http://www.w3.org/2000/svg">
<g clip-path="url(#clip0_3_6867)">
<path d="M183.754 9.27092C182.772 7.49206 180.656 6.14291 178.358 6.14291C176.337 6.14291 174.559 6.97073 174.559 9.11718C174.559 10.9246 176.797 12.1506 179.127 13.6535C181.67 15.247 184.307 17.2072 184.307 20.6112C184.307 25.0558 179.985 27.7827 174.989 27.7827C172.935 27.7827 170.79 27.3845 168.369 26.4651L168.766 20.5491C169.932 22.9103 172.109 24.7789 175.325 24.7789C177.808 24.7789 179.646 23.5844 179.646 21.4991C179.646 19.7213 178.143 18.6185 176.306 17.5157C172.443 15.1869 169.993 13.3154 169.993 9.945C169.993 4.8864 174.222 3.20117 178.605 3.20117C181.147 3.20117 182.743 3.6614 184.366 3.6614L183.754 9.27092ZM162.331 14.572C161.777 15.4924 161.075 16.747 160.644 17.6684C160.277 19.4148 160.093 21.7455 160.093 24.3187C160.093 25.3919 160.277 26.8317 160.767 27.3225H154.362C155.494 26.2502 155.956 19.6621 155.895 17.5768C155.037 14.6045 153.87 11.7534 152.093 8.28936C150.962 6.11435 149.642 4.05855 148.815 3.6614C150.254 3.54016 152.093 3.44756 152.983 3.44756C154.576 3.44756 155.007 3.6614 155.988 5.80782C157.518 9.27188 158.652 11.8746 159.327 13.8072C160.952 11.2626 162.085 9.51627 163.557 7.12546C163.924 6.54303 164.231 5.80782 164.231 5.1022C164.231 4.54936 164.138 3.93734 163.894 3.6614H170.239C169.013 3.93734 163.495 12.6118 162.331 14.572ZM140.049 9.21078L136.249 17.4536H142.439L140.049 9.21078ZM147.497 27.5363C145.473 27.5363 145.321 27.4762 143.696 21.8982L143.114 19.8444C142.135 20.3037 140.386 20.5185 137.598 20.5185H134.778L134.287 21.5602C133.583 23.1252 132.633 24.9612 132.633 26.2512C132.633 26.5577 132.663 26.8938 132.786 27.3234H116.051C117.002 26.2512 117.309 22.7881 117.768 16.5035L117.86 15.0026C118.105 11.4163 118.291 8.65791 118.259 6.72828C118.228 5.13474 118.075 4.12263 117.646 3.66339H124.114C123.193 4.36897 122.855 8.16816 122.428 14.4527L122.304 15.9536C122.151 18.2834 121.845 20.6733 121.845 23.003C121.845 24.0742 122.274 24.3196 123.379 24.3196C127.3 24.3196 128.283 24.228 130.058 23.0326C131.161 21.0093 132.42 18.4647 133.644 15.8295L135.301 12.3053C136.863 8.99498 138.395 5.62257 138.395 4.98C138.395 4.51881 138.273 4.09108 138.09 3.6614H143.239C143.239 3.6614 145.322 11.3858 145.782 13.0395L146.792 16.7795C148.539 23.0631 149.643 26.127 151.115 27.3225C149.887 27.4762 148.141 27.5363 147.497 27.5363ZM105.785 27.7827C99.686 27.7827 96.1609 22.7566 96.1609 17.1175C96.1609 9.27188 100.42 3.20117 108.543 3.20117C111.086 3.20117 112.283 3.6614 114.335 3.6614L113.723 9.69961C112.558 7.5847 110.657 6.1439 108.114 6.1439C103.057 6.1439 101.004 11.6006 101.004 16.2897C101.004 21.3769 103.855 24.1649 107.654 24.1649C109.708 24.1649 111.515 23.613 114.55 21.4991C113.324 25.4234 110.473 27.7827 105.785 27.7827ZM84.6383 6.54303C84.0559 6.54303 83.3492 6.54303 82.7993 6.60413C82.6151 7.61525 82.4613 9.36257 82.2465 12.1811L82.1233 13.8378C82.4317 13.8998 82.8289 13.9314 83.1975 13.9314C86.1382 13.9314 88.1625 12.1516 88.1625 9.45617C88.1625 7.61525 86.8754 6.54303 84.6383 6.54303ZM93.1876 28.3346C91.4413 28.3346 91.0116 28.0577 90.4301 27.2604L83.8095 18.0656C83.2881 17.361 82.89 16.7785 82.0632 16.7785H81.9094L81.7882 18.5564C81.6335 20.9778 81.5419 22.9103 81.5419 24.3502C81.5724 25.9438 81.7567 26.9233 82.1863 27.3225H75.7805C76.699 26.4947 77.0351 23.7362 77.5574 16.5026L77.6501 15.0016C77.8954 11.4469 78.0797 8.6875 78.0482 6.75787C78.0166 5.07165 77.8344 4.02899 77.3732 3.6614H86.1077C88.9578 3.6614 92.8811 4.15314 92.8811 8.7801C92.8811 12.5793 90.3365 14.6646 87.1809 15.6442C87.4874 15.9211 88.0383 16.6258 88.3763 17.0555L93.1876 23.4307C96.1914 27.3845 96.4358 27.5678 97.51 28.1198C96.1609 28.2725 94.3535 28.3346 93.1876 28.3346ZM63.3385 9.21078L59.5049 17.4536H65.7264L63.3385 9.21078ZM70.784 27.5363C68.7628 27.5363 68.609 27.4762 66.9849 21.8982L66.4025 19.8444C65.4199 20.3037 63.6736 20.5185 60.8846 20.5185H58.065L57.5753 21.5602C57.0845 22.6649 55.889 24.9336 55.9196 26.2512C55.9196 26.5577 55.9501 26.8642 56.0733 27.3234H50.4037C52.0278 25.6993 54.0816 21.9298 56.9317 15.8305L58.5874 12.3063C60.0883 9.11913 61.6828 5.50232 61.6828 4.98099C61.6828 4.51981 61.5616 4.09208 61.3764 3.6624H66.5266C66.5266 3.6624 67.8728 8.7811 69.0692 13.0405L70.0804 16.7805C71.8277 23.0641 72.9305 26.128 74.4018 27.3234C73.0842 27.4762 71.4286 27.5363 70.784 27.5363ZM41.6061 6.51248C41.1458 6.51248 40.5338 6.51248 39.9514 6.57458C39.706 8.22922 39.5523 9.82276 39.431 11.5691C39.431 11.5691 39.3384 13.07 39.3384 13.0089H39.9514C42.9552 13.0089 45.7146 11.9673 45.7146 9.21078C45.7146 7.61525 44.396 6.51248 41.6061 6.51248ZM40.8413 15.8906H39.1561L38.9107 19.3842C38.7885 20.9177 38.7264 22.2038 38.6959 23.7362C38.6959 23.952 39.3699 24.4113 40.9625 24.4113C44.2728 24.4113 46.4499 22.7566 46.4499 20.0277C46.4499 16.9934 43.9664 15.8906 40.8413 15.8906ZM41.2089 27.3225H32.9336C33.9763 26.402 34.2522 22.8167 34.7115 16.5026L34.8031 15.0322C35.0495 11.4459 35.2328 8.6875 35.2022 6.75787C35.1717 5.1022 34.9874 4.02899 34.5272 3.6614H43.7831C45.9896 3.6614 50.4037 3.78459 50.4037 8.38101C50.4037 11.4459 47.5527 13.346 44.9479 14.022C48.6259 14.3896 51.3843 16.1665 51.3843 19.9666C51.3833 24.0732 47.5221 27.3225 41.2089 27.3225Z" fill="#6B6B6B" fill-opacity="0.65"/>
<mask id="mask0_3_6867" style="mask-type:luminance" maskUnits="userSpaceOnUse" x="-207" y="-101" width="301" height="195">
<path d="M-206.055 72.1077V-40.7527C-206.054 -47.2511 -201.227 -51.9422 -194.858 -51.9422C-201.227 -51.9422 -206.39 -57.2127 -206.39 -63.7081L-206.42 -95.4445C-206.42 -98.2906 -204.159 -100.596 -201.376 -100.596H72.887C84.451 -100.596 93.8251 -91.0333 93.8251 -79.2388V82.6684C93.8251 88 89.5865 93.4617 84.3564 93.4617H-185.117C-196.686 93.4617 -206.055 80.863 -206.055 72.1077Z" fill="white"/>
</mask>
<g mask="url(#mask0_3_6867)">
<path d="M14.3057 0.343782C13.4857 0.343782 13.3162 0.486695 13.0501 0.783333C12.9409 0.776796 12.8314 0.773835 12.7219 0.774461C12.0912 0.774461 11.2811 0.867087 10.5903 1.32929C9.9231 1.76981 9.60576 2.54934 9.96153 3.11995C9.96153 3.11995 10.2 2.77011 10.9845 2.77011C11.0949 2.77011 11.2171 2.78192 11.3472 2.79276C12.4312 2.92087 13.2334 3.49149 13.1359 4.99833C13.0491 6.50419 12.4844 8.18351 10.1744 8.20322C10.1744 8.20322 9.87678 8.20322 9.55945 8.17365C8.48425 8.05638 8.14623 7.38129 8.14623 7.38129C8.14623 7.38129 9.07556 7.129 9.08344 5.94934C9.07556 5.14714 8.37683 4.41295 7.36866 4.11631C7.0205 4.018 6.66016 3.96956 6.2984 3.97243C5.10987 3.97243 3.77549 4.4701 2.87572 5.64483C0.835722 8.33822 0.670156 12.2645 1.16784 15.9158C1.66848 19.575 3.98935 22.9642 4.05735 23.0568C4.10663 23.1219 4.15097 23.1573 4.20123 23.1573C4.23105 23.1555 4.25929 23.1433 4.28106 23.1228C5.28332 22.1501 6.23927 20.8207 6.64825 19.9318C7.08582 20.2806 6.85718 21.0227 6.61672 21.815C6.38808 22.6251 5.83225 23.7003 5.63121 24.0472C5.43706 24.3862 5.17689 24.7804 5.52674 24.9864C5.5678 25.0098 5.61452 25.0214 5.66176 25.0199C6.11115 25.0199 7.1686 24.2365 8.34825 22.6636C9.66884 20.8936 10.339 19.3227 10.339 19.3227C10.4356 19.3444 10.5972 19.508 10.5706 19.9534C10.5528 20.4058 10.0877 22.089 9.18199 23.656C8.26646 25.222 7.42089 26.2016 7.2504 26.4243C7.14495 26.5534 7.23463 26.6342 7.30263 26.6864C7.36964 26.7318 8.98884 28.2435 11.3412 29.5207C14.1283 31.0059 15.3641 31.273 15.3641 31.273C15.3641 31.273 16.597 31.0128 19.384 29.5286C21.7354 28.2494 23.3615 26.7308 23.4216 26.6795C23.4896 26.6332 23.5763 26.5603 23.4738 26.4183C23.3132 26.2055 22.4647 25.221 21.5511 23.655C20.6484 22.0989 20.1655 20.4048 20.1586 19.9583C20.1399 19.508 20.2916 19.3592 20.3843 19.3217C20.3843 19.3217 21.0613 20.9025 22.3819 22.6626C23.5675 24.2374 24.6151 25.0189 25.0664 25.0189C25.1152 25.0205 25.1636 25.009 25.2064 24.9854C25.5454 24.7795 25.2931 24.3793 25.094 24.0443C24.9087 23.6993 24.345 22.6311 24.1056 21.8141C23.8759 21.0129 23.6374 20.2717 24.0829 19.9308C24.4929 20.8197 25.4419 22.156 26.4471 23.1149C26.458 23.1273 26.4713 23.1374 26.4862 23.1445C26.5012 23.1516 26.5173 23.1556 26.5338 23.1563C26.5782 23.1563 26.6255 23.1218 26.6669 23.0617C26.7408 22.9631 29.0656 19.5799 29.5623 15.9148C30.061 12.2556 29.8964 8.33822 27.8544 5.64384C26.9606 4.46615 25.6163 3.96551 24.4199 3.96551C24.0464 3.96551 23.6897 4.01382 23.3635 4.10744C22.3474 4.41295 21.6516 5.15406 21.6576 5.94838C21.6576 7.12803 22.5918 7.3803 22.5918 7.3803C22.5918 7.3803 22.2794 8.03863 21.1658 8.17266C20.9657 8.19744 20.7643 8.20994 20.5627 8.21011C19.725 8.21011 19.0193 7.94402 18.3689 7.02553C17.7382 6.14153 17.7589 4.32131 17.7224 3.71423C17.6938 3.09829 17.5618 1.71661 16.9143 1.1529C16.2688 0.574405 15.4824 0.380232 14.5018 0.341797C14.4298 0.343768 14.3658 0.343782 14.3057 0.343782Z" fill="#6B6B6B" fill-opacity="0.65"/>
</g>
</g>
<defs>
<clipPath id="clip0_3_6867">
<rect width="183.615" height="31" fill="white" transform="translate(0.851562 0.318359)"/>
</clipPath>
</defs>
</svg>
