<svg width="76" height="70" viewBox="0 0 76 70" fill="none" xmlns="http://www.w3.org/2000/svg">
<path fill-rule="evenodd" clip-rule="evenodd" d="M69.5818 42.0908C67.6801 42.0908 66.1382 43.6327 66.1382 45.5342C66.1382 47.4358 67.6801 48.9767 69.5818 48.9767C71.4835 48.9767 73.0244 47.4358 73.0244 45.5342C73.0244 43.6327 71.4835 42.0908 69.5818 42.0908ZM65.2147 51.0244C63.6022 51.0244 62.2959 52.3316 62.2959 53.9431C62.2959 55.5555 63.6022 56.8617 65.2147 56.8617C66.8263 56.8617 68.1335 55.5555 68.1335 53.9431C68.1335 52.3316 66.8263 51.0244 65.2147 51.0244ZM58.7274 58.0244C57.3333 58.0244 56.2026 59.155 56.2026 60.55C56.2026 61.9439 57.3333 63.0736 58.7274 63.0736C60.1224 63.0736 61.2521 61.9439 61.2521 60.55C61.2521 59.155 60.1224 58.0244 58.7274 58.0244ZM51.4441 62.7314C50.3115 62.7314 49.3936 63.6493 49.3936 64.7809C49.3936 65.9134 50.3115 66.8313 51.4441 66.8313C52.5757 66.8313 53.4936 65.9134 53.4936 64.7809C53.4936 63.6493 52.5757 62.7314 51.4441 62.7314ZM44.2844 65.2275C43.3121 65.2275 42.5239 66.0166 42.5239 66.9888C42.5239 67.9611 43.3121 68.7492 44.2844 68.7492C45.2567 68.7492 46.0448 67.9611 46.0448 66.9888C46.0448 66.0166 45.2567 65.2275 44.2844 65.2275ZM37.5787 66.2197C36.7419 66.2197 36.0645 66.8981 36.0645 67.7349C36.0645 68.5716 36.7419 69.25 37.5787 69.25C38.4155 69.25 39.0939 68.5716 39.0939 67.7349C39.0939 66.8981 38.4155 66.2197 37.5787 66.2197ZM30.8586 65.2275C29.8863 65.2275 29.0981 66.0147 29.0981 66.9879C29.0981 67.9601 29.8863 68.7482 30.8586 68.7482C31.8309 68.7482 32.619 67.9601 32.619 66.9879C32.619 66.0147 31.8309 65.2275 30.8586 65.2275ZM23.6903 62.7314C22.5615 62.7314 21.6465 63.6464 21.6465 64.7761C21.6465 65.9039 22.5615 66.8189 23.6903 66.8189C24.8191 66.8189 25.7342 65.9039 25.7342 64.7761C25.7342 63.6464 24.8191 62.7314 23.6903 62.7314ZM16.4071 58.0361C15.014 58.0361 13.8843 59.1658 13.8843 60.5588C13.8843 61.9528 15.014 63.0815 16.4071 63.0815C17.8012 63.0815 18.9299 61.9528 18.9299 60.5588C18.9299 59.1658 17.8012 58.0361 16.4071 58.0361ZM9.92425 51.0285C8.31074 51.0285 7.00257 52.3376 7.00257 53.951C7.00257 55.5644 8.31074 56.8725 9.92425 56.8725C11.5387 56.8725 12.8469 55.5644 12.8469 53.951C12.8469 52.3376 11.5387 51.0285 9.92425 51.0285ZM5.56088 42.0869C3.66113 42.0869 2.12109 43.6278 2.12109 45.5275C2.12109 47.4281 3.66113 48.9671 5.56088 48.9671C7.46064 48.9671 9.00163 47.4281 9.00163 45.5275C9.00163 43.6278 7.46064 42.0869 5.56088 42.0869ZM3.97985 30.9229C1.78239 30.9229 0 32.7042 0 34.9025C0 37.0998 1.78239 38.8821 3.97985 38.8821C6.17826 38.8821 7.9597 37.0998 7.9597 34.9025C7.9597 32.7042 6.17826 30.9229 3.97985 30.9229ZM5.559 20.8525C3.66115 20.8525 2.12207 22.3915 2.12207 24.2902C2.12207 26.1889 3.66115 27.727 5.559 27.727C7.4578 27.727 8.99688 26.1889 8.99688 24.2902C8.99688 22.3915 7.4578 20.8525 5.559 20.8525ZM9.92222 12.9306C8.30871 12.9306 6.99959 14.2387 6.99959 15.8531C6.99959 17.4674 8.30871 18.7765 9.92222 18.7765C11.5367 18.7765 12.8458 17.4674 12.8458 15.8531C12.8458 14.2387 11.5367 12.9306 9.92222 12.9306ZM16.413 6.72754C15.0199 6.72754 13.8901 7.85721 13.8901 9.25023C13.8901 10.6442 15.0199 11.7739 16.413 11.7739C17.8061 11.7739 18.9358 10.6442 18.9358 9.25023C18.9358 7.85721 17.8061 6.72754 16.413 6.72754ZM23.6908 2.98145C22.563 2.98145 21.6479 3.89644 21.6479 5.02421C21.6479 6.15198 22.563 7.06698 23.6908 7.06698C24.8196 7.06698 25.7337 6.15198 25.7337 5.02421C25.7337 3.89644 24.8196 2.98145 23.6908 2.98145ZM30.8561 1.05566C29.8829 1.05566 29.0938 1.84472 29.0938 2.81792C29.0938 3.79112 29.8829 4.58018 30.8561 4.58018C31.8294 4.58018 32.6185 3.79112 32.6185 2.81792C32.6185 1.84472 31.8294 1.05566 30.8561 1.05566ZM37.5646 0.551758C36.7297 0.551758 36.0522 1.22918 36.0522 2.06403C36.0522 2.89984 36.7297 3.57631 37.5646 3.57631C38.4005 3.57631 39.077 2.89984 39.077 2.06403C39.077 1.22918 38.4005 0.551758 37.5646 0.551758ZM44.2903 1.06738C43.3189 1.06738 42.5317 1.85453 42.5317 2.82582C42.5317 3.79616 43.3189 4.58331 44.2903 4.58331C45.2607 4.58331 46.0479 3.79616 46.0479 2.82582C46.0479 1.85453 45.2607 1.06738 44.2903 1.06738ZM51.4423 2.98145C50.3145 2.98145 49.4014 3.89549 49.4014 5.02326C49.4014 6.15007 50.3145 7.06412 51.4423 7.06412C52.5702 7.06412 53.4843 6.15007 53.4843 5.02326C53.4843 3.89549 52.5702 2.98145 51.4423 2.98145ZM58.7201 6.73535C57.327 6.73535 56.1992 7.86407 56.1992 9.25613C56.1992 10.6482 57.327 11.7769 58.7201 11.7769C60.1123 11.7769 61.2401 10.6482 61.2401 9.25613C61.2401 7.86407 60.1123 6.73535 58.7201 6.73535ZM65.2073 12.9306C63.5919 12.9306 62.2809 14.2406 62.2809 15.8569C62.2809 17.4722 63.5919 18.7822 65.2073 18.7822C66.8237 18.7822 68.1328 17.4722 68.1328 15.8569C68.1328 14.2406 66.8237 12.9306 65.2073 12.9306ZM69.5815 20.8408C67.6836 20.8408 66.1445 22.3798 66.1445 24.2785C66.1445 26.1762 67.6836 27.7152 69.5815 27.7152C71.4803 27.7152 73.0193 26.1762 73.0193 24.2785C73.0193 22.3798 71.4803 20.8408 69.5815 20.8408ZM53.8083 40.1648C52.9552 40.1648 52.2634 40.8566 52.2634 41.7095C52.2634 42.5625 52.9552 43.2543 53.8083 43.2543C54.6613 43.2543 55.3531 42.5625 55.3531 41.7095C55.3531 40.8566 54.6613 40.1648 53.8083 40.1648ZM49.9535 45.8838C49.1005 45.8838 48.4087 46.5755 48.4087 47.4276C48.4087 48.2815 49.1005 48.9723 49.9535 48.9723C50.8065 48.9723 51.4983 48.2815 51.4983 47.4276C51.4983 46.5755 50.8065 45.8838 49.9535 45.8838ZM44.2316 49.5596C43.3051 49.5596 42.5542 50.3114 42.5542 51.2369C42.5542 52.1643 43.3051 52.9152 44.2316 52.9152C45.1581 52.9152 45.9091 52.1643 45.9091 51.2369C45.9091 50.3114 45.1581 49.5596 44.2316 49.5596ZM37.47 50.5557C36.2219 50.5557 35.2114 51.567 35.2114 52.8131C35.2114 54.0611 36.2219 55.0725 37.47 55.0725C38.7171 55.0725 39.7275 54.0611 39.7275 52.8131C39.7275 51.567 38.7171 50.5557 37.47 50.5557ZM30.726 49.208C29.31 49.208 28.1631 50.3549 28.1631 51.7717C28.1631 53.1867 29.31 54.3335 30.726 54.3335C32.141 54.3335 33.2889 53.1867 33.2889 51.7717C33.2889 50.3549 32.141 49.208 30.726 49.208ZM24.6032 44.8877C23.0326 44.8877 21.7598 46.1605 21.7598 47.73C21.7598 49.3014 23.0326 50.5742 24.6032 50.5742C26.1738 50.5742 27.4466 49.3014 27.4466 47.73C27.4466 46.1605 26.1738 44.8877 24.6032 44.8877ZM20.5714 39.1221C19.2528 39.1221 18.1851 40.1897 18.1851 41.5083C18.1851 42.826 19.2528 43.8946 20.5714 43.8946C21.8892 43.8946 22.9578 42.826 22.9578 41.5083C22.9578 40.1897 21.8892 39.1221 20.5714 39.1221ZM19.6217 32.7627C18.6017 32.7627 17.7734 33.5899 17.7734 34.6108C17.7734 35.6308 18.6017 36.458 19.6217 36.458C20.6426 36.458 21.4689 35.6308 21.4689 34.6108C21.4689 33.5899 20.6426 32.7627 19.6217 32.7627ZM21.2546 26.5674C20.3987 26.5674 19.7041 27.262 19.7041 28.1178C19.7041 28.9737 20.3987 29.6673 21.2546 29.6673C22.1105 29.6673 22.8042 28.9737 22.8042 28.1178C22.8042 27.262 22.1105 26.5674 21.2546 26.5674ZM25.1132 20.9033C24.2611 20.9033 23.5693 21.5951 23.5693 22.4471C23.5693 23.2991 24.2611 23.9899 25.1132 23.9899C25.9653 23.9899 26.6561 23.2991 26.6561 22.4471C26.6561 21.5951 25.9653 20.9033 25.1132 20.9033ZM30.8171 16.9307C29.8916 16.9307 29.1406 17.6816 29.1406 18.608C29.1406 19.5345 29.8916 20.2853 30.8171 20.2853C31.7446 20.2853 32.4955 19.5345 32.4955 18.608C32.4955 17.6816 31.7446 16.9307 30.8171 16.9307ZM37.5778 14.7627C36.3392 14.7627 35.3354 15.7674 35.3354 17.0058C35.3354 18.2443 36.3392 19.248 37.5778 19.248C38.8163 19.248 39.821 18.2443 39.821 17.0058C39.821 15.7674 38.8163 14.7627 37.5778 14.7627ZM44.3419 15.5166C42.9317 15.5166 41.7876 16.6596 41.7876 18.0698C41.7876 19.48 42.9317 20.624 44.3419 20.624C45.7522 20.624 46.8962 19.48 46.8962 18.0698C46.8962 16.6596 45.7522 15.5166 44.3419 15.5166ZM50.4351 19.2549C48.8617 19.2549 47.5859 20.5305 47.5859 22.1039C47.5859 23.6772 48.8617 24.9529 50.4351 24.9529C52.0085 24.9529 53.2843 23.6772 53.2843 22.1039C53.2843 20.5305 52.0085 19.2549 50.4351 19.2549ZM54.4699 25.9463C53.1532 25.9463 52.0864 27.013 52.0864 28.3297C52.0864 29.6454 53.1532 30.7131 54.4699 30.7131C55.7858 30.7131 56.8535 29.6454 56.8535 28.3297C56.8535 27.013 55.7858 25.9463 54.4699 25.9463ZM48.2668 36.4111C47.4796 36.4111 46.8413 37.0485 46.8413 37.8356C46.8413 38.6237 47.4796 39.262 48.2668 39.262C49.054 39.262 49.6924 38.6237 49.6924 37.8356C49.6924 37.0485 49.054 36.4111 48.2668 36.4111ZM45.4991 40.8096C44.3283 40.8096 43.3789 41.7599 43.3789 42.9306C43.3789 44.1013 44.3283 45.0506 45.4991 45.0506C46.6708 45.0506 47.6192 44.1013 47.6192 42.9306C47.6192 41.7599 46.6708 40.8096 45.4991 40.8096ZM40.0504 43.7002C38.8243 43.7002 37.8301 44.6934 37.8301 45.9195C37.8301 47.1455 38.8243 48.1388 40.0504 48.1388C41.2756 48.1388 42.2698 47.1455 42.2698 45.9195C42.2698 44.6934 41.2756 43.7002 40.0504 43.7002ZM33.6667 43.5322C32.5789 43.5322 31.6973 44.4138 31.6973 45.5006C31.6973 46.5892 32.5789 47.4708 33.6667 47.4708C34.7535 47.4708 35.6361 46.5892 35.6361 45.5006C35.6361 44.4138 34.7535 43.5322 33.6667 43.5322ZM28.93 40.3174C28.1323 40.3174 27.4854 40.9643 27.4854 41.761C27.4854 42.5586 28.1323 43.2055 28.93 43.2055C29.7277 43.2055 30.3746 42.5586 30.3746 41.761C30.3746 40.9643 29.7277 40.3174 28.93 40.3174ZM27.0477 36.1572C26.4685 36.1572 26 36.6267 26 37.2048C26 37.785 26.4685 38.2534 27.0477 38.2534C27.6269 38.2534 28.0954 37.785 28.0954 37.2048C28.0954 36.6267 27.6269 36.1572 27.0477 36.1572ZM26.9373 30.7314C26.1501 30.7314 25.5127 31.3688 25.5127 32.155C25.5127 32.9412 26.1501 33.5785 26.9373 33.5785C27.7235 33.5785 28.3609 32.9412 28.3609 32.155C28.3609 31.3688 27.7235 30.7314 26.9373 30.7314ZM29.7165 24.9268C28.5486 24.9268 27.6021 25.8732 27.6021 27.0411C27.6021 28.2089 28.5486 29.1554 29.7165 29.1554C30.8844 29.1554 31.8309 28.2089 31.8309 27.0411C31.8309 25.8732 30.8844 24.9268 29.7165 24.9268ZM35.1266 21.8291C33.8995 21.8291 32.9043 22.8242 32.9043 24.0522C32.9043 25.2801 33.8995 26.2753 35.1266 26.2753C36.3546 26.2753 37.3498 25.2801 37.3498 24.0522C37.3498 22.8242 36.3546 21.8291 35.1266 21.8291ZM41.5289 22.54C40.4402 22.54 39.5576 23.4216 39.5576 24.5112C39.5576 25.5989 40.4402 26.4815 41.5289 26.4815C42.6176 26.4815 43.4993 25.5989 43.4993 24.5112C43.4993 23.4216 42.6176 22.54 41.5289 22.54ZM46.2425 26.7354C45.4448 26.7354 44.7979 27.3813 44.7979 28.1789C44.7979 28.9766 45.4448 29.6235 46.2425 29.6235C47.0402 29.6235 47.6871 28.9766 47.6871 28.1789C47.6871 27.3813 47.0402 26.7354 46.2425 26.7354ZM48.2263 31.7236C47.6471 31.7236 47.1758 32.194 47.1758 32.7741C47.1758 33.3542 47.6471 33.8236 48.2263 33.8236C48.8065 33.8236 49.2769 33.3542 49.2769 32.7741C49.2769 32.194 48.8065 31.7236 48.2263 31.7236ZM55.4009 33.3759C54.3761 33.3759 53.546 34.206 53.546 35.2297C53.546 36.2535 54.3761 37.0845 55.4009 37.0845C56.4247 37.0845 57.2549 36.2535 57.2549 35.2297C57.2549 34.206 56.4247 33.3759 55.4009 33.3759ZM63.0552 35.626C61.9761 35.626 61.1011 36.5009 61.1011 37.58C61.1011 38.6591 61.9761 39.534 63.0552 39.534C64.1344 39.534 65.0094 38.6591 65.0094 37.58C65.0094 36.5009 64.1344 35.626 63.0552 35.626ZM61.1162 42.5244C60.0943 42.5244 59.2661 43.3535 59.2661 44.3745C59.2661 45.3963 60.0943 46.2245 61.1162 46.2245C62.1382 46.2245 62.9664 45.3963 62.9664 44.3745C62.9664 43.3535 62.1382 42.5244 61.1162 42.5244ZM57.7847 48.3174C56.9221 48.3174 56.2236 49.0158 56.2236 49.8783C56.2236 50.7408 56.9221 51.4402 57.7847 51.4402C58.6472 51.4402 59.3466 50.7408 59.3466 49.8783C59.3466 49.0158 58.6472 48.3174 57.7847 48.3174ZM53.7888 52.6141C53.0426 52.6141 52.4386 53.218 52.4386 53.9642C52.4386 54.7093 53.0426 55.3133 53.7888 55.3133C54.534 55.3133 55.138 54.7093 55.138 53.9642C55.138 53.218 54.534 52.6141 53.7888 52.6141ZM49.5681 55.7549C48.9297 55.7549 48.4116 56.273 48.4116 56.9103C48.4116 57.5496 48.9297 58.0667 49.5681 58.0667C50.2074 58.0667 50.7245 57.5496 50.7245 56.9103C50.7245 56.273 50.2074 55.7549 49.5681 55.7549ZM44.7888 57.5242C44.0455 57.5242 43.4425 58.1263 43.4425 58.8695C43.4425 59.6128 44.0455 60.2148 44.7888 60.2148C45.5321 60.2148 46.1342 59.6128 46.1342 58.8695C46.1342 58.1263 45.5321 57.5242 44.7888 57.5242ZM39.1681 58.4424C38.3084 58.4424 37.6118 59.1389 37.6118 59.9986C37.6118 60.8573 38.3084 61.5538 39.1681 61.5538C40.0268 61.5538 40.7234 60.8573 40.7234 59.9986C40.7234 59.1389 40.0268 58.4424 39.1681 58.4424ZM32.7455 57.8135C31.6291 57.8135 30.7227 58.7199 30.7227 59.8372C30.7227 60.9544 31.6291 61.8599 32.7455 61.8599C33.8638 61.8599 34.7693 60.9544 34.7693 59.8372C34.7693 58.7199 33.8638 57.8135 32.7455 57.8135ZM25.9908 55.3799C24.6712 55.3799 23.6006 56.4504 23.6006 57.7699C23.6006 59.0904 24.6712 60.161 25.9908 60.161C27.3114 60.161 28.381 59.0904 28.381 57.7699C28.381 56.4504 27.3114 55.3799 25.9908 55.3799ZM20.0059 50.8994C18.4554 50.8994 17.1987 52.156 17.1987 53.7055C17.1987 55.2559 18.4554 56.5125 20.0059 56.5125C21.5555 56.5125 22.8121 55.2559 22.8121 53.7055C22.8121 52.156 21.5555 50.8994 20.0059 50.8994ZM15.0386 44.1221C13.3602 44.1221 11.9995 45.4826 11.9995 47.1619C11.9995 48.8402 13.3602 50.1998 15.0386 50.1998C16.7169 50.1998 18.0776 48.8402 18.0776 47.1619C18.0776 45.4826 16.7169 44.1221 15.0386 44.1221ZM12.2187 37.0752C10.8972 37.0752 9.82568 38.1476 9.82568 39.4681C9.82568 40.7896 10.8972 41.861 12.2187 41.861C13.5403 41.861 14.6118 40.7896 14.6118 39.4681C14.6118 38.1476 13.5403 37.0752 12.2187 37.0752ZM12.0814 30.2705C10.9965 30.2705 10.1177 31.1493 10.1177 32.2331C10.1177 33.318 10.9965 34.1977 12.0814 34.1977C13.1653 34.1977 14.045 33.318 14.045 32.2331C14.045 31.1493 13.1653 30.2705 12.0814 30.2705ZM14.0186 23.5869C12.9957 23.5869 12.1675 24.4151 12.1675 25.4379C12.1675 26.4607 12.9957 27.2889 14.0186 27.2889C15.0414 27.2889 15.8697 26.4607 15.8697 25.4379C15.8697 24.4151 15.0414 23.5869 14.0186 23.5869ZM17.3595 18.3682C16.4997 18.3682 15.8022 19.0656 15.8022 19.9262C15.8022 20.7869 16.4997 21.4843 17.3595 21.4843C18.2201 21.4843 18.9167 20.7869 18.9167 19.9262C18.9167 19.0656 18.2201 18.3682 17.3595 18.3682ZM21.3468 14.4932C20.6035 14.4932 20.0005 15.0962 20.0005 15.8394C20.0005 16.5817 20.6035 17.1847 21.3468 17.1847C22.0892 17.1847 22.6922 16.5817 22.6922 15.8394C22.6922 15.0962 22.0892 14.4932 21.3468 14.4932ZM25.57 11.7354C24.9297 11.7354 24.4116 12.2534 24.4116 12.8937C24.4116 13.5339 24.9297 14.0519 25.57 14.0519C26.2102 14.0519 26.7293 13.5339 26.7293 12.8937C26.7293 12.2534 26.2102 11.7354 25.57 11.7354ZM30.3523 9.59863C29.6099 9.59863 29.0088 10.1997 29.0088 10.942C29.0088 11.6834 29.6099 12.2854 30.3523 12.2854C31.0937 12.2854 31.6957 11.6834 31.6957 10.942C31.6957 10.1997 31.0937 9.59863 30.3523 9.59863ZM35.9521 8.24707C35.0895 8.24707 34.3901 8.94644 34.3901 9.80896C34.3901 10.6715 35.0895 11.3699 35.9521 11.3699C36.8137 11.3699 37.5131 10.6715 37.5131 9.80896C37.5131 8.94644 36.8137 8.24707 35.9521 8.24707ZM42.3915 7.96973C41.2732 7.96973 40.3667 8.87614 40.3667 9.99532C40.3667 11.1135 41.2732 12.02 42.3915 12.02C43.5107 12.02 44.4172 11.1135 44.4172 9.99532C44.4172 8.87614 43.5107 7.96973 42.3915 7.96973ZM48.9565 9.50098C47.634 9.50098 46.5615 10.5734 46.5615 11.8958C46.5615 13.2182 47.634 14.2906 48.9565 14.2906C50.279 14.2906 51.3515 13.2182 51.3515 11.8958C51.3515 10.5734 50.279 9.50098 48.9565 9.50098ZM55.1572 13.2744C53.6057 13.2744 52.3481 14.5319 52.3481 16.0824C52.3481 17.6338 53.6057 18.8923 55.1572 18.8923C56.7087 18.8923 57.9663 17.6338 57.9663 16.0824C57.9663 14.5319 56.7087 13.2744 55.1572 13.2744ZM60.0859 19.6025C58.4065 19.6025 57.0449 20.9641 57.0449 22.6424C57.0449 24.3226 58.4065 25.6831 60.0859 25.6831C61.7652 25.6831 63.1259 24.3226 63.1259 22.6424C63.1259 20.9641 61.7652 19.6025 60.0859 19.6025ZM62.9097 27.9463C61.5891 27.9463 60.5186 29.0159 60.5186 30.3364C60.5186 31.6569 61.5891 32.7264 62.9097 32.7264C64.2303 32.7264 65.2999 31.6569 65.2999 30.3364C65.2999 29.0159 64.2303 27.9463 62.9097 27.9463ZM75.1301 34.9025C75.1301 37.0998 73.3477 38.8821 71.1503 38.8821C68.9519 38.8821 67.1704 37.0998 67.1704 34.9025C67.1704 32.7042 68.9519 30.9229 71.1503 30.9229C73.3477 30.9229 75.1301 32.7042 75.1301 34.9025Z" fill="#FA6400"/>
</svg>
