<svg width="62" height="62" viewBox="0 0 62 62" fill="none" xmlns="http://www.w3.org/2000/svg">
<path fill-rule="evenodd" clip-rule="evenodd" d="M56.6819 15.7455L56.6554 15.6218L56.6289 15.4805L56.6112 15.3391V15.2155L56.5847 15.0741L56.5317 14.9328L56.514 14.8091L56.4875 14.6678L56.4434 14.553L56.4169 14.4028L56.3639 14.2615L56.3462 14.1466L56.2932 13.9965L56.249 13.8816L56.196 13.7403L56.1519 13.6166L56.0812 13.4753L56.037 13.3516L55.984 13.2368L55.9134 13.0866L55.8692 12.9718L55.7897 12.8481L55.719 12.7333L55.6484 12.5919L55.5777 12.4683L55.507 12.3534L55.4364 12.2298L55.3657 12.1149L55.2685 11.9648L55.1979 11.8676L55.1714 11.8499L55.1449 11.7969L55.1272 11.7528L55.0742 11.6998L55.0565 11.6821L55.0035 11.6291L54.977 11.5849L54.9329 11.5408L54.9064 11.4878L54.8622 11.4171L54.8092 11.3729L54.765 11.3199L54.7385 11.2758L54.6944 11.2228L54.6502 11.1786L54.5972 11.1079L54.5265 11.0373L54.4558 10.9666L54.3852 10.8871L54.3145 10.8164L54.2615 10.7458L54.1908 10.6751L54.1202 10.6044L54.0495 10.5337L53.9788 10.4807L53.9082 10.4101L53.8375 10.3659L53.758 10.2952L53.6873 10.2422L53.6167 10.1716L53.546 10.1274L53.4488 10.0302L53.3517 9.95958L53.2633 9.90658L53.1662 9.83591L53.069 9.76524L52.9718 9.69457L52.8747 9.65041L52.7775 9.57974L52.6892 9.52674L52.5655 9.45607L52.4683 9.41191L52.3712 9.35891L52.2563 9.28824L52.1592 9.24407L52.062 9.19107L51.9472 9.1469L51.85 9.0939L51.7263 9.04974L51.6292 9.00557L51.5143 8.95257L51.3907 8.9349L51.3023 8.8819L51.1786 8.83773L51.0638 8.81123L50.9401 8.76707L50.843 8.74057L50.7281 8.71407L50.6045 8.6699L50.4896 8.6434L50.366 8.6169L50.2423 8.59923L50.1275 8.57273L49.9155 8.52856L49.7211 8.50206L49.5091 8.47556L49.3148 8.44906L49.1028 8.4314L48.9085 8.4049H48.7141H48.5021H48.3078H48.1223H47.9014L45.8963 8.54623L45.4193 6.75305L45.3486 6.56754L45.2956 6.39971L45.2779 6.30254L45.2249 6.17887L45.1984 6.0817L45.1808 6.01104L45.1543 5.94037L45.1278 5.8962L45.1101 5.82554L45.0306 5.70187L44.9599 5.50753L44.8893 5.3397L44.7921 5.15419L44.7037 4.98636L44.6066 4.81852L44.5094 4.65069L44.4122 4.48285L44.2974 4.31502L44.2002 4.14718L44.0766 3.97935L43.9617 3.83801L43.8381 3.67018L43.7232 3.52884L43.5731 3.38751L43.4582 3.23734L43.3169 3.09601L43.1667 2.95467L43.0254 2.831L42.8841 2.71617L42.7162 2.57483L42.5749 2.45117L42.4071 2.3275L42.2569 2.23916L42.0979 2.1155L41.9301 2.00066L41.7622 1.90349L41.5944 1.80633L41.4 1.70916L41.2322 1.61199L41.0379 1.54132L40.87 1.44416L40.7552 1.39999L40.6845 1.37349L40.6139 1.32932L40.5167 1.30282L40.446 1.27632L40.3489 1.25865L40.2782 1.20565L40.181 1.18799L40.1104 1.16149L40.0397 1.13499L39.9425 1.10849L39.8719 1.09082L39.7747 1.06432L39.704 1.03782L39.6069 1.02015L39.5362 0.99365L39.4125 0.940651L39.2977 0.922984L39.174 0.896484L39.0327 0.869983L38.9179 0.852316L38.7677 0.825816L38.6529 0.799315L38.5292 0.781649L38.3878 0.755148H38.2642L38.1228 0.728648H38.008L37.8843 0.702148H37.743H37.6193H37.478H37.3632H37.213H37.0982L36.9568 0.728648H36.8332L36.7095 0.755148H36.5682L36.4533 0.781649L36.3032 0.799315L36.1883 0.825816L36.0647 0.852316L35.9233 0.869983L35.8085 0.896484L35.6848 0.922984L35.5435 0.940651L35.4463 0.99365H35.4198H35.3757L35.3315 1.02015H35.2785L35.2343 1.03782L35.1813 1.06432H35.1636L35.1106 1.09082H35.0665L35.0135 1.10849H34.9693L34.9163 1.13499L34.8721 1.16149H34.828L34.7308 1.20565L34.4923 1.30282L34.298 1.37349L34.1036 1.44416L33.9446 1.54132L33.7503 1.63849L33.5825 1.73566L33.3881 1.83283L33.2203 1.92116L33.0525 2.04483L32.8846 2.142L32.7168 2.25683L32.5578 2.3805L32.39 2.49533L31.0208 3.57301L29.6604 2.49533L29.4926 2.3805L29.3513 2.25683L29.1834 2.142L29.0156 2.04483L28.8477 1.92116L28.6799 1.83283L28.4856 1.73566L28.3177 1.63849L28.1322 1.54132L27.9644 1.44416L27.7701 1.37349L27.5846 1.30282L27.3196 1.18799L27.1959 1.16149L27.1782 1.13499H27.1517H27.1252L27.0811 1.10849H27.0546L27.0104 1.09082H26.9574L26.9309 1.06432H26.8867L26.8426 1.03782H26.7896L26.7454 1.02015L26.6924 0.99365H26.6482H26.6217L26.5069 0.940651L26.3832 0.922984L26.2684 0.896484L26.1447 0.869983L26.0034 0.852316L25.8797 0.825816L25.7384 0.799315L25.6236 0.781649L25.4999 0.755148H25.3585L25.2349 0.728648H25.0935L24.9699 0.702148H24.855H24.7137H24.59H24.4487H24.325H24.1837L24.0689 0.728648H23.9187L23.8039 0.755148H23.6802L23.5389 0.781649L23.424 0.799315L23.2739 0.825816L23.159 0.852316L23.0354 0.869983L22.894 0.896484L22.7704 0.922984L22.6555 0.940651L22.5142 0.99365L22.4435 1.02015L22.364 1.03782L22.2757 1.06432L22.205 1.09082L22.1255 1.10849L22.0372 1.13499L21.9577 1.16149L21.887 1.18799L21.7898 1.20565L21.7192 1.25865L21.6308 1.27632L21.5513 1.30282L21.463 1.34699L21.3835 1.37349L21.2952 1.42649L21.198 1.44416L21.0037 1.54132L20.8358 1.63849L20.6503 1.73566L20.4825 1.83283L20.3147 1.92116L20.1468 2.01833L19.979 2.142L19.8112 2.23916L19.6433 2.354L19.502 2.47767L19.3342 2.5925L19.184 2.71617L19.0426 2.8575L18.9013 2.98117L18.76 3.12251L18.6098 3.26384L18.4685 3.40518L18.3536 3.54651L18.23 3.69668L18.1151 3.83801L17.9915 4.00585L17.8766 4.14718L17.753 4.31502L17.6558 4.48285L17.5586 4.65069L17.4438 4.81852L17.3731 4.98636L17.276 5.15419L17.1788 5.3397L17.1081 5.50753L17.0375 5.70187L16.9668 5.82554L16.9403 5.8962L16.9138 5.94037L16.8961 6.01104L16.8696 6.0817L16.8431 6.17887L16.799 6.30254L16.7725 6.39971L16.7283 6.56754L16.6576 6.75305L16.1718 8.54623L14.1666 8.4314L13.9723 8.4049H13.7603H13.5659H13.3804L13.1596 8.4314H12.9741L12.7797 8.44906L12.5677 8.47556L12.3734 8.50206L12.1791 8.52856L11.9406 8.57273L11.7992 8.59923L11.6844 8.6169L11.5607 8.6434L11.4371 8.68756L11.3487 8.71407L11.2251 8.74057L11.1102 8.78473L10.9866 8.81123L10.8894 8.8554L10.7746 8.8819L10.6774 8.9349L10.5537 8.97907L10.4389 9.00557L10.3417 9.04974L10.2181 9.0939L10.1297 9.1469L10.0326 9.19107L9.90889 9.24407L9.81172 9.31474L9.69688 9.35891L9.59972 9.41191L9.50255 9.48257L9.40538 9.52674L9.31705 9.59741L9.19338 9.65041L9.09621 9.72108L8.99904 9.76524L8.91071 9.83591L8.81354 9.90658L8.71637 9.98608L8.61921 10.0567L8.54854 10.1274L8.45137 10.1716L8.4072 10.2422L8.33653 10.2952L8.25703 10.3659L8.18637 10.4101L8.1157 10.4807L8.04503 10.5603L7.97437 10.6309L7.9037 10.6751L7.83303 10.7458L7.76236 10.8164L7.6917 10.9136L7.61219 10.9843L7.54153 11.0549L7.47086 11.1521L7.44436 11.2051H7.42669L7.37369 11.2758L7.32952 11.3199L7.28536 11.3729L7.23236 11.4171L7.20586 11.4878L7.16169 11.5408L7.11752 11.5849L7.09102 11.6291L7.03802 11.6821L7.02036 11.6998L6.99385 11.7528L6.94969 11.7969L6.92319 11.8499L6.89669 11.8941L6.85252 11.9471L6.79952 12.0178L6.75535 12.0884L6.71119 12.1591L6.68468 12.2033L6.63168 12.2739L6.58752 12.3534L6.54335 12.3976L6.51685 12.4683L6.46385 12.5389L6.44618 12.6096L6.39318 12.6626L6.34901 12.7333L6.32252 12.8039L6.27835 12.8746L6.25185 12.9453L6.20768 13.0159L6.18118 13.0689L6.15468 13.1396L6.11051 13.2103L6.08401 13.2809L6.03984 13.3516L6.01335 13.4223L5.98684 13.4929L5.96918 13.5724L5.91618 13.6431L5.89851 13.7138L5.87201 13.7845L5.84551 13.8551L5.81901 13.9258L5.80134 13.9965L5.77484 14.0671L5.74834 14.1643L5.70418 14.2615L5.67767 14.3851L5.63351 14.5L5.60701 14.6236L5.58051 14.7385L5.56284 14.8621L5.53634 14.977L5.50984 15.1006L5.49217 15.2155L5.46567 15.3391L5.43917 15.454V15.5776L5.41267 15.7013V15.8161L5.39501 15.9398V16.0546V16.1783V16.2931V16.4168V16.5581V16.673V16.7966V16.9203L5.41267 17.0352V17.1588V17.2737L5.43917 17.3973L5.46567 17.5122V17.6358L5.49217 17.7507L5.50984 17.8743L5.53634 18.0157L5.56284 18.1393L5.58051 18.2277L5.60701 18.3248L5.63351 18.422L5.65117 18.5192L5.67767 18.6163L5.70418 18.7312L5.73067 18.8283L5.74834 18.9255L5.77484 19.0227L5.80134 19.1198L6.39318 20.9572L4.72366 21.867L4.6 21.9377L4.48516 22.0084L4.36149 22.079L4.24666 22.1497L4.12299 22.2204L4.05232 22.2999L3.95516 22.344L3.85799 22.4147L3.78732 22.4854L3.69015 22.5384L3.60182 22.609L3.50465 22.6797L3.43398 22.7504L3.33682 22.821L3.23965 22.8917L3.16898 22.9624L3.07181 23.0595L3.00115 23.1302L2.90398 23.2009L2.83331 23.2804L2.71848 23.3952L2.56831 23.5366L2.45347 23.6867L2.31214 23.8281L2.18847 23.9959L2.0648 24.1372L1.94997 24.3051L1.8263 24.4729L1.73797 24.6142L1.6143 24.7821L1.51713 24.9499L1.41996 25.1442L1.33163 25.3121L1.25213 25.4799L1.16379 25.6654L1.08429 25.8332L1.01363 26.0276L0.942958 26.1954L0.87229 26.3809L0.828123 26.5753L0.757457 26.7696L0.704456 26.9551L0.660289 27.1494L0.633788 27.3438L0.589621 27.5293L0.563121 27.7236L0.518953 27.9179L0.492454 28.1034V28.2978L0.465954 28.5098V28.7041L0.439453 28.8984V29.1104V29.3048L0.465954 29.4903V29.6846L0.492454 29.8966V30.091L0.518953 30.2853L0.563121 30.4708L0.589621 30.6651L0.633788 30.8595L0.660289 31.045L0.704456 31.2393L0.757457 31.4336L0.828123 31.6191L0.87229 31.8135L0.942958 31.9813L1.01363 32.1668L1.08429 32.3346L1.16379 32.529L1.25213 32.6968L1.33163 32.8912L1.41996 33.059L1.51713 33.2268L1.6143 33.3858L1.73797 33.5537L1.8263 33.7215L1.94997 33.8893L2.0648 34.0395L2.18847 34.2073L2.31214 34.3487L2.45347 34.49L2.56831 34.6578L2.73614 34.8257L2.83331 34.9228L2.90398 34.967L2.95698 35.0377L3.02765 35.0907L3.09831 35.1348L3.14248 35.2055L3.21315 35.2585L3.28382 35.3027L3.33682 35.3468L3.40748 35.3998L3.47815 35.4705L3.53115 35.5147L3.60182 35.5677L3.67249 35.6118L3.74315 35.6648L3.78732 35.709L3.85799 35.7532L3.93749 35.8062L4.00816 35.8503L4.07882 35.9033L4.12299 35.921L4.19366 35.974L4.26433 36.0182L4.34383 36.0712L4.41449 36.1153L4.48516 36.1418L4.55583 36.186L4.6265 36.239L4.69716 36.2567L4.76783 36.3097L4.8385 36.3274L4.8915 36.3804L4.96217 36.4069L5.077 36.4775L5.17417 36.5217L5.27134 36.5659L5.39501 36.6189L5.49217 36.663L5.60701 36.716L5.70418 36.7602L5.81901 36.7867L5.94268 36.8309L6.03984 36.8839L6.15468 36.9015L6.27835 36.928L6.37551 36.981L6.49035 36.9987L6.61402 37.0252L6.72885 37.0694L6.82602 37.0959L6.94969 37.1224L7.06452 37.14H7.18819L7.30302 37.1665L7.40019 37.193L7.52386 37.2195H7.63869L7.76236 37.2372H7.8772H8.00087L8.1157 37.2637H8.23937H8.33653H8.45137H53.6167H53.758H53.9258L54.076 37.2372H54.2438L54.3852 37.2195H54.5265L54.6944 37.193L54.8357 37.1665L54.977 37.14L55.1449 37.0959L55.295 37.0694L55.4364 37.0517L55.5777 36.9987L55.719 36.9545L55.8869 36.9015L56.037 36.8839L56.1784 36.8132L56.3197 36.7602L56.461 36.716L56.6112 36.663L56.726 36.5924L56.8674 36.5217L57.0175 36.4775L57.1589 36.4069L57.2737 36.3274L57.4239 36.2567L57.5652 36.1595L57.68 36.0889L57.8302 36.0182L57.9451 35.921L58.0864 35.8503L58.2366 35.7355L58.3249 35.6648L58.3956 35.6118L58.4486 35.5677L58.5192 35.5147L58.5899 35.4705L58.6429 35.4263L58.7136 35.3733L58.7842 35.3027L58.8284 35.2585L58.8991 35.2055L58.9697 35.1613L59.0227 35.0907L59.0934 35.0377L59.1641 34.967L59.2171 34.9228L59.2877 34.8522L59.5262 34.6137L59.6234 34.5165L59.6941 34.4193L59.7912 34.3222L59.8619 34.225L59.9326 34.1278L60.0032 34.0395L60.1004 33.9423L60.1711 33.8452L60.2152 33.748L60.2859 33.6508L60.3566 33.5537L60.4361 33.4388L60.5067 33.3417L60.5509 33.2445L60.6216 33.1297L60.6746 33.0325L60.7188 32.9353L60.7894 32.8205L60.8424 32.7233L60.8866 32.5996L60.9307 32.5025L60.9838 32.3876L61.0279 32.2905L61.0809 32.1668L61.1251 32.0785L61.1693 31.9548L61.1958 31.8576L61.2488 31.7428L61.2664 31.6191L61.3194 31.522L61.3371 31.4071L61.3901 31.2658L61.4166 31.1686L61.4343 31.1156V31.045L61.4608 30.9743V30.9036L61.4873 30.833L61.5049 30.7623V30.7093L61.5314 30.6386V30.568L61.5579 30.4973V30.4001L61.5756 30.3295V30.2588L61.6021 30.1881V30.091V29.9938L61.6286 29.9496V29.879V29.826V29.7553V29.7111V29.6405L61.6551 29.5875V29.5168V29.4726V29.3931V29.3489V29.2783V29.2341V29.1546V29.0839V28.9426V28.7748L61.6286 28.6069V28.4656V28.2978L61.6021 28.1299L61.5756 27.9621L61.5579 27.8208L61.5314 27.6529L61.5049 27.4851L61.4873 27.3438L61.4343 27.1759L61.4166 27.0346L61.3636 26.8668L61.3194 26.7166L61.2664 26.5488L61.2223 26.4074L61.1693 26.2661L61.1251 26.0982L61.0544 25.9569L61.0103 25.8067L60.9307 25.6654L60.8601 25.5241L60.7894 25.3827L60.7188 25.2414L60.6481 25.0912L60.5509 24.9499L60.4802 24.8086L60.3831 24.6849L60.2859 24.5436L60.1976 24.4199L60.1181 24.3051L60.1004 24.2609L60.0297 24.1814L59.9767 24.1107L59.9326 24.0666L59.8796 23.9959L59.8354 23.9252L59.7912 23.8722L59.7117 23.8016L59.6676 23.7574L59.6234 23.6867L59.5704 23.6337L59.5262 23.5896L59.4732 23.5189L59.4291 23.4659L59.3584 23.4217L59.3319 23.3687L59.2612 23.298L59.1641 23.2274L59.0669 23.1302L58.9962 23.0595L58.8991 22.9889L58.8019 22.8917L58.7312 22.821L58.6429 22.7504L58.5457 22.6797L58.4751 22.609L58.3779 22.556L58.2807 22.4854L58.2101 22.4147L58.1129 22.3705L58.0422 22.2999L57.9451 22.2469L57.8479 22.1762L57.733 22.1055L57.6359 22.0349L57.5122 21.9642L57.3974 21.9112L57.2737 21.8405L55.6749 20.9572L56.2755 19.1198L56.2932 19.0403L56.3197 18.9697V18.899L56.3462 18.8548L56.3639 18.7842V18.7135L56.3904 18.6605L56.4169 18.5898L56.4434 18.5192V18.4485L56.461 18.3778L56.4875 18.3072V18.2277L56.514 18.157L56.5317 18.0863V18.0157L56.5582 17.945L56.5847 17.8213V17.7065L56.6112 17.6093L56.6289 17.4945V17.3708L56.6554 17.2472V17.1323L56.6819 17.0352V16.9203L56.6995 16.7966V16.673V16.5581V16.4345V16.3196V16.1783V16.0281L56.6819 15.8868V15.7455Z" fill="white"/>
<path fill-rule="evenodd" clip-rule="evenodd" d="M10.7221 23.4667C10.0773 23.2282 9.33525 23.1045 8.45191 23.1045C7.34773 23.1045 6.32305 23.4137 5.34254 24.085C4.98037 24.3235 4.65354 24.5885 4.31787 24.9242C3.21369 26.0725 2.66602 27.4594 2.66602 29.1112C2.66602 30.7101 3.21369 32.0969 4.31787 33.2453C4.82137 33.7488 5.34254 34.1286 5.91672 34.3936C6.70289 34.8264 7.56857 35.0384 8.45191 35.0384H28.2034L12.904 24.7387C12.5241 24.5002 12.1884 24.2617 11.8793 24.0938C11.4199 23.8023 11.0313 23.5903 10.7221 23.4667Z" fill="#FAB516"/>
<path fill-rule="evenodd" clip-rule="evenodd" d="M17.2484 11.8496C17.0806 11.7525 16.9392 11.6553 16.7979 11.5405C15.5524 10.7013 14.0684 10.4363 12.3547 10.7543C11.4183 10.9486 10.6057 11.302 9.91665 11.8496C9.63398 12.0881 9.36898 12.3266 9.13048 12.6181C8.96264 12.8125 8.82131 13.0245 8.67998 13.2188C8.3178 13.7488 8.03514 14.27 7.8673 14.8442C7.58463 15.701 7.53163 16.6374 7.72596 17.6179C7.8938 18.457 8.17647 19.2167 8.56514 19.8439C8.97148 20.4887 9.50148 21.0187 10.1198 21.4251L27.3362 33.2L19.5628 15.383C19.4656 15.1887 19.3949 15.0032 19.3243 14.8353C19.0151 14.0668 18.7236 13.4927 18.4674 13.0863C18.3437 12.945 18.2289 12.7772 18.0876 12.6093C17.8491 12.3531 17.5576 12.0881 17.2484 11.8496Z" fill="#F37225"/>
<path fill-rule="evenodd" clip-rule="evenodd" d="M26.5791 3.28749C26.4113 3.21682 26.2435 3.16382 26.0491 3.11965C25.0686 2.85465 24.0881 2.85465 23.1076 3.11965C22.7719 3.21682 22.4363 3.33165 22.1006 3.48182C20.5901 4.15316 19.5654 5.23084 19.0177 6.68835C18.9912 6.75902 18.9471 6.85619 18.9206 6.92686C18.4171 8.43737 18.4436 9.86839 19.0442 11.2287L27.4801 30.6181L30.2803 11.0344C30.4482 9.93906 30.5188 9.09988 30.4923 8.55221C30.4658 8.0222 30.351 7.50103 30.1567 6.92686C30.1125 6.73252 30.0153 6.54702 29.9447 6.32618C29.3263 4.91284 28.2045 3.90582 26.5791 3.28749Z" fill="#CC1E4F"/>
<path fill-rule="evenodd" clip-rule="evenodd" d="M50.1982 24.092C49.8891 24.2598 49.5534 24.4983 49.1736 24.7368L33.8652 35.0366H53.6168C54.7916 35.0366 55.887 34.6744 56.9381 33.9324C57.2031 33.7381 57.4681 33.4996 57.7508 33.2346C57.795 33.1904 57.848 33.1374 57.9186 33.0667C58.5635 32.3777 58.9963 31.5827 59.2348 30.6729C59.3055 30.4079 59.3762 30.1252 59.4027 29.8337C59.4292 29.5952 59.4292 29.3302 59.4292 29.0917C59.4292 27.749 59.067 26.583 58.325 25.6025C58.1571 25.364 57.9628 25.1255 57.7508 24.9046C57.4151 24.569 57.0618 24.304 56.6996 24.0655C56.2933 23.7563 55.8428 23.5355 55.3835 23.3676C54.8093 23.1733 54.2086 23.085 53.6168 23.085C52.7334 23.085 51.9914 23.2086 51.3731 23.4471C51.0639 23.5885 50.6576 23.8005 50.1982 24.092Z" fill="#12B24B"/>
<path fill-rule="evenodd" clip-rule="evenodd" d="M43.1493 6.92295C43.1228 6.85228 43.0786 6.75512 43.0521 6.68445C42.478 5.20043 41.4533 4.14926 39.9693 3.47792C39.6336 3.33658 39.2979 3.21291 38.9622 3.11574C37.9817 2.85074 37.0012 2.85074 36.0207 3.11574C35.8264 3.15991 35.6585 3.21291 35.4907 3.28358C33.8654 3.90192 32.7435 4.93543 32.1163 6.32228C32.0457 6.53428 31.9485 6.72862 31.8778 6.92295C31.5952 7.77979 31.498 8.61897 31.5952 9.48464V9.60831H33.194C33.671 9.65248 33.9802 9.73198 34.0509 9.84682C34.1745 9.97048 33.9272 10.156 33.406 10.3768L32.9997 10.6418L32.4962 11.0482C32.2842 11.2425 32.1605 11.5252 32.0898 11.8608C32.0457 12.0993 32.0192 12.3378 32.0457 12.6293C32.0457 12.753 32.0457 12.8413 32.0722 12.9915L34.5809 30.6407L43.0433 11.2513C43.6263 9.90865 43.6705 8.45113 43.1493 6.92295Z" fill="#6462AC"/>
<path fill-rule="evenodd" clip-rule="evenodd" d="M54.4819 16.2699C54.4378 15.2188 54.1021 14.2118 53.4307 13.2136C53.2894 13.0192 53.1481 12.8072 52.9802 12.6129C52.7417 12.3302 52.4767 12.0829 52.1941 11.8444C51.4786 11.2967 50.6659 10.9081 49.7295 10.7491C48.007 10.4399 46.523 10.7049 45.2863 11.5352C45.145 11.6589 44.9772 11.7472 44.8358 11.8444C44.5266 12.1094 44.2616 12.3479 44.0231 12.6129C43.8553 12.7807 43.7405 12.9486 43.6433 13.0899C43.3341 13.5669 42.9543 14.3354 42.5215 15.3866L34.748 33.2036L51.9909 21.4198C52.6357 20.987 53.1392 20.4835 53.5456 19.8387C53.5897 19.7945 53.6162 19.7415 53.6427 19.6708C53.8547 19.3086 54.0226 18.9023 54.1728 18.4783C54.2434 18.2133 54.3406 17.9041 54.3848 17.6215C54.4554 17.1621 54.4996 16.7028 54.4819 16.2699Z" fill="#1D89CA"/>
<path fill-rule="evenodd" clip-rule="evenodd" d="M29.8551 43.4827V48.0231H32.0812C32.6995 48.0231 33.2295 47.7846 33.6358 47.281C34.0422 46.7775 34.2365 46.2299 34.2365 45.532C34.21 44.9844 33.9715 44.5074 33.521 44.101C33.0882 43.6682 32.5847 43.4827 32.0105 43.4827H29.8551ZM29.8551 51.3974V56.3441H32.4168C33.203 56.3441 33.9273 56.1763 34.5722 55.7965C35.1905 55.4343 35.5262 54.8601 35.5262 54.074C35.5262 52.4221 34.475 51.5123 32.4168 51.3974H29.8551ZM55.9844 39.8433V44.3837C54.6947 43.6858 53.5729 43.3325 52.61 43.3325C52.398 43.3325 51.9122 43.3767 51.1967 43.4738C49.5007 43.7123 48.0873 44.4544 46.9655 45.6469C45.8613 46.8394 45.296 48.2792 45.296 49.9752C45.296 51.5741 45.826 52.9433 46.8507 54.0916C47.8577 55.24 49.1738 56.0085 50.7992 56.3353C51.2055 56.4325 51.7355 56.4766 52.4245 56.4766C53.7407 56.406 54.9067 56.0438 55.9844 55.399V60.3722C54.6947 60.8492 53.4227 61.0877 52.133 61.0877C51.5589 61.0877 51.1084 61.0877 50.7904 61.0435C48.7587 60.8492 46.9213 60.2574 45.243 59.2503C43.5734 58.2433 42.2308 56.9095 41.2768 55.2135C40.2962 53.5174 39.7927 51.6536 39.7927 49.5512C39.8634 47.6167 40.4111 45.8412 41.4181 44.2688C42.4251 42.6877 43.7589 41.4245 45.4373 40.5146C47.1068 39.5783 48.953 39.0571 50.9405 38.96C52.8574 38.96 54.5269 39.2515 55.9844 39.8433ZM11.0134 60.381H6.58789V38.96L18.8045 49.9841V39.8433H23.3449V61.0524L11.0134 49.5512V60.381ZM25.3854 60.381V39.8433H34.2277C35.4467 39.9846 36.4714 40.4616 37.284 41.3008C38.0967 42.14 38.5472 43.1647 38.6444 44.4102C38.6444 46.539 37.8582 48.0937 36.2505 49.1007C38.4766 50.0371 39.6691 51.7331 39.7927 54.1446C39.7927 55.7965 39.2627 57.2275 38.2116 58.42C37.1604 59.6125 35.8177 60.2574 34.2188 60.381H25.3854Z" fill="white" fill-opacity="0.7"/>
</svg>
