<svg width="828" height="599" viewBox="0 0 828 599" fill="none" xmlns="http://www.w3.org/2000/svg">
<path fill-rule="evenodd" clip-rule="evenodd" d="M63.7075 231.903L74.8652 137.307L139.999 187.612L63.7075 231.903ZM75.3416 138.456L64.4534 230.767L138.868 187.566L75.3416 138.456Z" fill="white" fill-opacity="0.08"/>
<path fill-rule="evenodd" clip-rule="evenodd" d="M74.8652 137.307L114.308 141.959L139.999 187.612L74.8652 137.307ZM113.892 142.522L76.9925 138.17L137.953 185.316L113.892 142.522Z" fill="white" fill-opacity="0.08"/>
<path fill-rule="evenodd" clip-rule="evenodd" d="M114.308 141.959L109.986 27.7891L171.964 67.0555L114.308 141.959ZM110.683 28.9205L114.862 140.232L171.114 67.2175L110.683 28.9205Z" fill="white" fill-opacity="0.08"/>
<path fill-rule="evenodd" clip-rule="evenodd" d="M164.935 126.64L114.308 141.958L171.963 67.0544L164.935 126.64ZM115.926 140.838L164.377 126.181L171.095 69.2252L115.926 140.838Z" fill="white" fill-opacity="0.08"/>
<path fill-rule="evenodd" clip-rule="evenodd" d="M5.37279 274.771L63.7074 231.903L146.342 284.273L5.37279 274.771ZM63.7452 232.694L7.09222 274.274L144.022 283.562L63.7452 232.694Z" fill="white" fill-opacity="0.08"/>
<path fill-rule="evenodd" clip-rule="evenodd" d="M127.036 335.284L5.37027 274.77L146.34 284.272L127.036 335.284ZM8.41802 275.61L126.696 334.457L145.525 284.875L8.41802 275.61Z" fill="white" fill-opacity="0.08"/>
<path fill-rule="evenodd" clip-rule="evenodd" d="M9.76183 463.57L103.966 417.851L146.746 469.061L9.76183 463.57ZM103.832 418.622L12.2242 463.074L145.423 468.424L103.832 418.622Z" fill="white" fill-opacity="0.08"/>
<path fill-rule="evenodd" clip-rule="evenodd" d="M103.969 417.852L130.221 420.948L146.749 469.061L103.969 417.852ZM129.805 421.511L105.449 418.638L145.124 466.159L129.805 421.511Z" fill="white" fill-opacity="0.08"/>
<path fill-rule="evenodd" clip-rule="evenodd" d="M139.997 187.611L114.307 141.958L164.934 126.64L139.997 187.611ZM115.229 142.286L139.944 186.206L163.906 127.568L115.229 142.286Z" fill="white" fill-opacity="0.08"/>
<path fill-rule="evenodd" clip-rule="evenodd" d="M146.747 469.062L130.219 420.949L159.675 435.047L146.747 469.062ZM131.261 422.121L146.74 467.269L158.848 435.386L131.261 422.121Z" fill="white" fill-opacity="0.08"/>
<path fill-rule="evenodd" clip-rule="evenodd" d="M139.999 187.611L164.935 126.64L190.257 175.791L139.999 187.611ZM165.026 128.094L141.021 186.727L189.344 175.377L165.026 128.094Z" fill="white" fill-opacity="0.08"/>
<path fill-rule="evenodd" clip-rule="evenodd" d="M164.935 126.641L171.963 67.0549L189.919 65.6319L164.935 126.641ZM172.506 67.6434L166.067 122.228L188.923 66.3012L172.506 67.6434Z" fill="white" fill-opacity="0.08"/>
<path fill-rule="evenodd" clip-rule="evenodd" d="M130.22 420.948L103.968 417.852L151.22 355.928L130.22 420.948ZM105.074 417.37L129.817 420.289L149.53 359.139L105.074 417.37Z" fill="white" fill-opacity="0.08"/>
<path fill-rule="evenodd" clip-rule="evenodd" d="M63.705 231.902L139.996 187.611L146.34 284.271L63.705 231.902ZM139.438 188.638L64.8791 231.953L145.686 283.145L139.438 188.638Z" fill="white" fill-opacity="0.08"/>
<path fill-rule="evenodd" clip-rule="evenodd" d="M159.675 435.046L130.218 420.948L196.935 382.61L159.675 435.046ZM131.58 420.89L159.459 434.277L194.827 384.547L131.58 420.89Z" fill="white" fill-opacity="0.08"/>
<path fill-rule="evenodd" clip-rule="evenodd" d="M127.037 335.285L146.341 284.272L151.219 355.929L127.037 335.285ZM145.962 287.113L127.762 335.064L150.558 354.496L145.962 287.113Z" fill="white" fill-opacity="0.08"/>
<path fill-rule="evenodd" clip-rule="evenodd" d="M164.935 126.641L189.919 65.6319L249.003 129.431L164.935 126.641ZM190.094 66.7454L165.835 126.048L247.55 128.779L190.094 66.7454Z" fill="white" fill-opacity="0.08"/>
<path fill-rule="evenodd" clip-rule="evenodd" d="M190.256 175.792L164.935 126.641L249.003 129.431L190.256 175.792ZM165.994 127.291L190.455 174.853L247.322 129.976L165.994 127.291Z" fill="white" fill-opacity="0.08"/>
<path fill-rule="evenodd" clip-rule="evenodd" d="M189.919 65.6318L239.766 57.3036L249.003 129.431L189.919 65.6318ZM239.2 58.0238L191.139 66.0379L248.167 127.627L239.2 58.0238Z" fill="white" fill-opacity="0.08"/>
<path fill-rule="evenodd" clip-rule="evenodd" d="M159.678 435.047L196.938 382.611L214.022 388.211L159.678 435.047ZM197.207 383.299L163.14 431.258L212.861 388.424L197.207 383.299Z" fill="white" fill-opacity="0.08"/>
<path fill-rule="evenodd" clip-rule="evenodd" d="M214.021 388.211L196.937 382.611L244.039 359.752L214.021 388.211ZM198.562 382.541L213.882 387.539L240.706 362.069L198.562 382.541Z" fill="white" fill-opacity="0.08"/>
<path fill-rule="evenodd" clip-rule="evenodd" d="M196.937 382.61L151.22 355.928L244.039 359.751L196.937 382.61ZM153.674 356.611L196.975 381.915L241.576 360.247L153.674 356.611Z" fill="white" fill-opacity="0.08"/>
<path fill-rule="evenodd" clip-rule="evenodd" d="M146.341 284.273L139.998 187.612L190.256 175.792L146.341 284.273ZM140.599 188.077L146.748 281.567L189.196 176.629L140.599 188.077Z" fill="white" fill-opacity="0.08"/>
<path fill-rule="evenodd" clip-rule="evenodd" d="M146.342 284.273L190.257 175.792L273.303 224.669L146.342 284.273ZM190.505 176.652L147.491 283.053L271.962 224.555L190.505 176.652Z" fill="white" fill-opacity="0.08"/>
<path fill-rule="evenodd" clip-rule="evenodd" d="M151.22 355.93L146.342 284.273L244.039 359.753L151.22 355.93ZM147.056 285.625L151.814 355.345L242.107 359.088L147.056 285.625Z" fill="white" fill-opacity="0.08"/>
<path fill-rule="evenodd" clip-rule="evenodd" d="M146.748 469.061L159.677 435.045L252.298 477.97L146.748 469.061ZM159.973 435.867L147.6 468.506L248.867 477.04L159.973 435.867Z" fill="white" fill-opacity="0.08"/>
<path fill-rule="evenodd" clip-rule="evenodd" d="M159.677 435.046L214.021 388.211L252.298 477.971L159.677 435.046ZM213.818 389.192L160.79 434.872L251.137 476.697L213.818 389.192Z" fill="white" fill-opacity="0.08"/>
<path fill-rule="evenodd" clip-rule="evenodd" d="M148.931 526.15L146.748 469.063L252.298 477.971L148.931 526.15ZM147.415 469.71L149.522 525.215L249.98 478.354L147.415 469.71Z" fill="white" fill-opacity="0.08"/>
<path fill-rule="evenodd" clip-rule="evenodd" d="M220.534 570.137L148.93 526.15L252.297 477.971L220.534 570.137ZM150.19 526.211L220.205 569.224L251.244 479.115L150.19 526.211Z" fill="white" fill-opacity="0.08"/>
<path fill-rule="evenodd" clip-rule="evenodd" d="M190.256 175.791L249.002 129.43L273.302 224.668L190.256 175.791ZM248.66 130.483L191.316 175.697L272.362 223.376L248.66 130.483Z" fill="white" fill-opacity="0.08"/>
<path fill-rule="evenodd" clip-rule="evenodd" d="M249.002 129.431L239.765 57.3035L280.406 51.4304L249.002 129.431ZM240.447 57.821L249.33 127.021L279.442 52.1911L240.447 57.821Z" fill="white" fill-opacity="0.08"/>
<path fill-rule="evenodd" clip-rule="evenodd" d="M244.037 359.75L146.34 284.27L273.301 224.667L244.037 359.75ZM147.504 284.408L243.642 358.654L272.431 225.744L147.504 284.408Z" fill="white" fill-opacity="0.08"/>
<path fill-rule="evenodd" clip-rule="evenodd" d="M263.902 575.251L252.299 477.971L300.979 554.75L263.902 575.251ZM253.216 480.571L264.412 574.262L300.084 554.557L253.216 480.571Z" fill="white" fill-opacity="0.08"/>
<path fill-rule="evenodd" clip-rule="evenodd" d="M252.298 477.969L288.173 475.075L300.978 554.749L252.298 477.969ZM287.655 475.757L253.373 478.489L299.871 551.908L287.655 475.757Z" fill="white" fill-opacity="0.08"/>
<path fill-rule="evenodd" clip-rule="evenodd" d="M252.298 477.971L214.021 388.211L288.173 475.077L252.298 477.971ZM216.15 391.653L252.681 477.317L286.92 474.58L216.15 391.653Z" fill="white" fill-opacity="0.08"/>
<path fill-rule="evenodd" clip-rule="evenodd" d="M244.038 359.751L273.302 224.668L302.223 355.947L244.038 359.751ZM273.311 227.554L244.814 359.099L301.455 355.42L273.311 227.554Z" fill="white" fill-opacity="0.08"/>
<path fill-rule="evenodd" clip-rule="evenodd" d="M302.222 355.947L273.301 224.668L361.985 263.544L302.222 355.947ZM274.142 225.685L302.496 354.362L361.039 263.782L274.142 225.685Z" fill="white" fill-opacity="0.08"/>
<path fill-rule="evenodd" clip-rule="evenodd" d="M214.021 388.21L244.039 359.751L302.224 355.947L214.021 388.21ZM244.269 360.39L216.567 386.63L297.961 356.887L244.269 360.39Z" fill="white" fill-opacity="0.08"/>
<path fill-rule="evenodd" clip-rule="evenodd" d="M302.223 355.948L361.986 263.544L370.956 300.143L302.223 355.948ZM361.722 265.043L304.841 353.022L370.335 299.851L361.722 265.043Z" fill="white" fill-opacity="0.08"/>
<path fill-rule="evenodd" clip-rule="evenodd" d="M214.021 388.21L302.224 355.947L288.172 475.076L214.021 388.21ZM301.455 356.906L215.035 388.504L287.683 473.663L301.455 356.906Z" fill="white" fill-opacity="0.08"/>
<path fill-rule="evenodd" clip-rule="evenodd" d="M370.954 300.142L361.984 263.543L380.989 290.659L370.954 300.142ZM363.33 266.587L371.269 298.955L380.127 290.557L363.33 266.587Z" fill="white" fill-opacity="0.08"/>
<path fill-rule="evenodd" clip-rule="evenodd" d="M288.171 475.076L302.223 355.947L372.946 396.289L288.171 475.076ZM302.719 356.924L288.973 473.466L371.929 396.388L302.719 356.924Z" fill="white" fill-opacity="0.08"/>
<path fill-rule="evenodd" clip-rule="evenodd" d="M380.99 290.66L361.986 263.544L403.038 254.178L380.99 290.66ZM363.033 263.93L380.95 289.518L401.79 255.124L363.033 263.93Z" fill="white" fill-opacity="0.08"/>
<path fill-rule="evenodd" clip-rule="evenodd" d="M361.985 263.544L273.301 224.668L403.038 254.178L361.985 263.544ZM279.485 226.709L362.061 262.897L400.286 254.16L279.485 226.709Z" fill="white" fill-opacity="0.08"/>
<path fill-rule="evenodd" clip-rule="evenodd" d="M302.223 355.949L370.956 300.144L372.946 396.291L302.223 355.949ZM370.416 301.392L303.326 355.861L372.335 395.17L370.416 301.392Z" fill="white" fill-opacity="0.08"/>
<path fill-rule="evenodd" clip-rule="evenodd" d="M445.375 234.299L403.039 254.179L448.681 206.273L445.375 234.299ZM405.761 252.227L444.77 233.877L447.821 208.008L405.761 252.227Z" fill="white" fill-opacity="0.08"/>
<path fill-rule="evenodd" clip-rule="evenodd" d="M403.04 254.181L273.303 224.67L448.682 206.275L403.04 254.181ZM277.036 224.892L402.815 253.498L447.061 207.045L277.036 224.892Z" fill="white" fill-opacity="0.08"/>
<path fill-rule="evenodd" clip-rule="evenodd" d="M288.171 475.076L372.946 396.289L416.86 476.047L288.171 475.076ZM372.785 397.275L289.685 474.468L415.795 475.441L372.785 397.275Z" fill="white" fill-opacity="0.08"/>
<path fill-rule="evenodd" clip-rule="evenodd" d="M273.304 224.667L249.004 129.43L448.683 206.271L273.304 224.667ZM249.889 130.452L273.735 223.975L446.059 205.918L249.889 130.452Z" fill="white" fill-opacity="0.08"/>
<path fill-rule="evenodd" clip-rule="evenodd" d="M249.003 129.431L280.406 51.4306L471.896 84.6836L249.003 129.431ZM280.809 52.0901L249.977 128.584L468.531 84.6802L280.809 52.0901Z" fill="white" fill-opacity="0.08"/>
<path fill-rule="evenodd" clip-rule="evenodd" d="M280.405 51.4302L468.931 34.5854L471.895 84.6833L280.405 51.4302ZM468.327 35.2574L285.106 51.5913L471.2 83.9019L468.327 35.2574Z" fill="white" fill-opacity="0.08"/>
<path fill-rule="evenodd" clip-rule="evenodd" d="M380.991 290.659L403.039 254.178L441.465 304.874L380.991 290.659ZM403.127 255.281L381.957 290.248L439.961 303.909L403.127 255.281Z" fill="white" fill-opacity="0.08"/>
<path fill-rule="evenodd" clip-rule="evenodd" d="M370.956 300.141L380.991 290.658L441.465 304.873L370.956 300.141ZM381.13 291.33L372.412 299.657L434.028 303.821L381.13 291.33Z" fill="white" fill-opacity="0.08"/>
<path fill-rule="evenodd" clip-rule="evenodd" d="M300.977 554.751L288.171 475.077L416.86 476.048L300.977 554.751ZM288.881 475.729L301.406 553.709L414.867 476.644L288.881 475.729Z" fill="white" fill-opacity="0.08"/>
<path fill-rule="evenodd" clip-rule="evenodd" d="M448.679 206.274L471.893 84.6845L484.699 164.358L448.679 206.274ZM471.826 88.2175L449.72 204.123L484.067 164.153L471.826 88.2175Z" fill="white" fill-opacity="0.08"/>
<path fill-rule="evenodd" clip-rule="evenodd" d="M448.683 206.272L249.004 129.43L471.897 84.6829L448.683 206.272ZM251.212 129.603L448.214 205.43L471.11 85.4208L251.212 129.603Z" fill="white" fill-opacity="0.08"/>
<path fill-rule="evenodd" clip-rule="evenodd" d="M484.7 164.357L471.895 84.6836L491.123 147.323L484.7 164.357ZM473.936 93.3177L484.98 161.986L490.51 147.338L473.936 93.3177Z" fill="white" fill-opacity="0.08"/>
<path fill-rule="evenodd" clip-rule="evenodd" d="M350.629 585.483L300.975 554.752L416.858 476.05L350.629 585.483ZM302.068 554.75L350.423 584.628L414.816 478.169L302.068 554.75Z" fill="white" fill-opacity="0.08"/>
<path fill-rule="evenodd" clip-rule="evenodd" d="M372.946 396.29L370.956 300.143L441.465 304.875L372.946 396.29ZM371.575 300.828L373.547 394.525L440.306 305.438L371.575 300.828Z" fill="white" fill-opacity="0.08"/>
<path fill-rule="evenodd" clip-rule="evenodd" d="M403.038 254.179L445.374 234.299L441.464 304.875L403.038 254.179ZM444.687 235.311L403.971 254.421L440.963 303.199L444.687 235.311Z" fill="white" fill-opacity="0.08"/>
<path fill-rule="evenodd" clip-rule="evenodd" d="M393.995 590.597L416.86 476.049L450.734 565.334L393.995 590.597ZM416.993 478.251L394.822 589.515L449.903 564.973L416.993 478.251Z" fill="white" fill-opacity="0.08"/>
<path fill-rule="evenodd" clip-rule="evenodd" d="M491.123 147.323L471.895 84.6836L513.626 107.354L491.123 147.323ZM472.883 85.9368L491.307 145.771L512.767 107.603L472.883 85.9368Z" fill="white" fill-opacity="0.08"/>
<path fill-rule="evenodd" clip-rule="evenodd" d="M484.7 164.357L491.123 147.322L504.271 148.873L484.7 164.357ZM491.564 148.03L486.054 162.506L502.772 149.352L491.564 148.03Z" fill="white" fill-opacity="0.08"/>
<path fill-rule="evenodd" clip-rule="evenodd" d="M416.859 476.049L454.189 498.244L450.734 565.333L416.859 476.049ZM453.588 498.523L418.048 477.457L450.256 562.348L453.588 498.523Z" fill="white" fill-opacity="0.08"/>
<path fill-rule="evenodd" clip-rule="evenodd" d="M441.465 304.875L445.375 234.299L496.906 286.541L441.465 304.875ZM445.907 235.717L442.132 304.036L495.8 286.279L445.907 235.717Z" fill="white" fill-opacity="0.08"/>
<path fill-rule="evenodd" clip-rule="evenodd" d="M479.256 323.538L441.466 304.873L496.907 286.538L479.256 323.538ZM443.109 305.023L479.002 322.721L495.778 287.585L443.109 305.023Z" fill="white" fill-opacity="0.08"/>
<path fill-rule="evenodd" clip-rule="evenodd" d="M445.374 234.299L448.68 206.273L513.134 224.542L445.374 234.299ZM449.202 207.034L446.074 233.551L510.187 224.326L449.202 207.034Z" fill="white" fill-opacity="0.08"/>
<path fill-rule="evenodd" clip-rule="evenodd" d="M471.893 84.6852L501.039 63.2488L513.625 107.356L471.893 84.6852ZM500.702 64.2582L473.04 84.6018L512.632 106.146L500.702 64.2582Z" fill="white" fill-opacity="0.08"/>
<path fill-rule="evenodd" clip-rule="evenodd" d="M504.269 148.874L491.122 147.323L513.625 107.355L504.269 148.874ZM492.098 146.826L503.78 148.204L512.069 111.28L492.098 146.826Z" fill="white" fill-opacity="0.08"/>
<path fill-rule="evenodd" clip-rule="evenodd" d="M372.945 396.29L441.464 304.875L479.254 323.54L372.945 396.29ZM441.631 305.681L375.651 393.724L478.016 323.656L441.631 305.681Z" fill="white" fill-opacity="0.08"/>
<path fill-rule="evenodd" clip-rule="evenodd" d="M448.68 206.272L484.7 164.357L513.134 224.541L448.68 206.272ZM484.573 165.435L449.771 205.92L511.981 223.575L484.573 165.435Z" fill="white" fill-opacity="0.08"/>
<path fill-rule="evenodd" clip-rule="evenodd" d="M416.86 476.048L372.945 396.289L503.554 418.776L416.86 476.048ZM374.119 397.083L417.048 475.195L501.898 419.106L374.119 397.083Z" fill="white" fill-opacity="0.08"/>
<path fill-rule="evenodd" clip-rule="evenodd" d="M496.906 286.541L445.375 234.299L524.217 243.598L496.906 286.541ZM446.985 235.101L496.759 285.562L523.112 244.08L446.985 235.101Z" fill="white" fill-opacity="0.08"/>
<path fill-rule="evenodd" clip-rule="evenodd" d="M445.375 234.298L513.134 224.542L524.217 243.598L445.375 234.298ZM512.794 225.201L450.101 234.243L523.038 242.846L512.794 225.201Z" fill="white" fill-opacity="0.08"/>
<path fill-rule="evenodd" clip-rule="evenodd" d="M504.27 148.874L513.625 107.355L517.418 150.425L504.27 148.874ZM513.33 111.342L505.031 148.352L516.756 149.735L513.33 111.342Z" fill="white" fill-opacity="0.08"/>
<path fill-rule="evenodd" clip-rule="evenodd" d="M484.7 164.357L504.271 148.873L517.418 150.424L484.7 164.357ZM504.453 149.55L488.689 162.029L515.058 150.801L504.453 149.55Z" fill="white" fill-opacity="0.08"/>
<path fill-rule="evenodd" clip-rule="evenodd" d="M513.625 107.354L501.038 63.2468L546.119 57.8975L513.625 107.354ZM501.85 63.7797L513.841 105.893L544.848 58.6657L501.85 63.7797Z" fill="white" fill-opacity="0.08"/>
<path fill-rule="evenodd" clip-rule="evenodd" d="M454.189 498.243L416.859 476.047L503.553 418.776L454.189 498.243ZM417.952 476.045L453.978 497.431L501.516 420.853L417.952 476.045Z" fill="white" fill-opacity="0.08"/>
<path fill-rule="evenodd" clip-rule="evenodd" d="M372.945 396.291L479.254 323.541L503.554 418.778L372.945 396.291ZM478.825 324.583L374.515 395.951L502.677 418.063L478.825 324.583Z" fill="white" fill-opacity="0.08"/>
<path fill-rule="evenodd" clip-rule="evenodd" d="M484.7 164.357L517.418 150.424L513.134 224.541L484.7 164.357ZM516.736 151.392L485.536 164.674L512.638 222.078L516.736 151.392Z" fill="white" fill-opacity="0.08"/>
<path fill-rule="evenodd" clip-rule="evenodd" d="M524.218 243.597L513.135 224.541L570.079 231.258L524.218 243.597ZM514.271 225.287L524.476 242.884L566.818 231.485L514.271 225.287Z" fill="white" fill-opacity="0.08"/>
<path fill-rule="evenodd" clip-rule="evenodd" d="M513.134 224.543L517.418 150.426L570.078 231.26L513.134 224.543ZM517.937 152.323L513.765 224.005L568.813 230.498L517.937 152.323Z" fill="white" fill-opacity="0.08"/>
<path fill-rule="evenodd" clip-rule="evenodd" d="M496.907 286.54L524.219 243.598L599.712 280.917L496.907 286.54ZM524.434 244.366L498.076 285.891L597.367 280.422L524.434 244.366Z" fill="white" fill-opacity="0.08"/>
<path fill-rule="evenodd" clip-rule="evenodd" d="M524.217 243.597L570.078 231.258L599.71 280.916L524.217 243.597ZM569.819 231.97L525.989 243.762L598.176 279.468L569.819 231.97Z" fill="white" fill-opacity="0.08"/>
<path fill-rule="evenodd" clip-rule="evenodd" d="M479.254 323.541L496.905 286.541L599.71 280.918L479.254 323.541ZM497.356 287.162L480.474 322.461L595.544 281.782L497.356 287.162Z" fill="white" fill-opacity="0.08"/>
<path fill-rule="evenodd" clip-rule="evenodd" d="M517.417 150.425L513.625 107.355L660.077 145.963L517.417 150.425ZM514.276 108.132L517.973 149.792L655.815 145.416L514.276 108.132Z" fill="white" fill-opacity="0.08"/>
<path fill-rule="evenodd" clip-rule="evenodd" d="M513.625 107.355L646.448 73.2731L660.077 145.962L513.625 107.355ZM645.92 74.0414L516.031 107.333L659.263 145.079L645.92 74.0414Z" fill="white" fill-opacity="0.08"/>
<path fill-rule="evenodd" clip-rule="evenodd" d="M513.625 107.353L546.119 57.8965L646.448 73.2713L513.625 107.353ZM546.388 58.5839L514.964 106.374L643.37 73.4328L546.388 58.5839Z" fill="white" fill-opacity="0.08"/>
<path fill-rule="evenodd" clip-rule="evenodd" d="M570.078 231.257L517.418 150.423L660.078 145.961L570.078 231.257ZM518.531 150.992L570.19 230.308L658.473 146.602L518.531 150.992Z" fill="white" fill-opacity="0.08"/>
<path fill-rule="evenodd" clip-rule="evenodd" d="M567.742 589.756L454.19 498.243L656.089 518.472L567.742 589.756ZM456.193 499.047L567.747 588.97L654.547 518.946L456.193 499.047Z" fill="white" fill-opacity="0.08"/>
<path fill-rule="evenodd" clip-rule="evenodd" d="M454.191 498.242L649.553 460.87L656.089 518.472L454.191 498.242ZM649.025 461.639L458.448 498.089L655.379 517.82L649.025 461.639Z" fill="white" fill-opacity="0.08"/>
<path fill-rule="evenodd" clip-rule="evenodd" d="M454.191 498.242L503.556 418.775L649.553 460.87L454.191 498.242ZM503.82 419.506L455.472 497.387L646.942 460.781L503.82 419.506Z" fill="white" fill-opacity="0.08"/>
<path fill-rule="evenodd" clip-rule="evenodd" d="M599.71 280.918L570.078 231.259L694.369 231.712L599.71 280.918ZM571.104 231.817L599.936 280.114L691.811 232.284L571.104 231.817Z" fill="white" fill-opacity="0.08"/>
<path fill-rule="evenodd" clip-rule="evenodd" d="M503.554 418.778L479.254 323.541L599.71 280.918L503.554 418.778ZM479.994 323.934L503.856 417.327L598.168 282.135L479.994 323.934Z" fill="white" fill-opacity="0.08"/>
<path fill-rule="evenodd" clip-rule="evenodd" d="M599.709 280.918L694.369 231.712L694.176 270.771L599.709 280.918ZM693.729 232.686L602.884 279.937L693.59 270.177L693.729 232.686Z" fill="white" fill-opacity="0.08"/>
<path fill-rule="evenodd" clip-rule="evenodd" d="M570.079 231.258L660.079 145.962L694.37 231.711L570.079 231.258ZM659.822 147.024L571.593 230.65L693.44 231.077L659.822 147.024Z" fill="white" fill-opacity="0.08"/>
<path fill-rule="evenodd" clip-rule="evenodd" d="M656.089 518.472L649.553 460.871L681.705 489.538L656.089 518.472ZM650.376 462.411L656.564 517.042L680.828 489.565L650.376 462.411Z" fill="white" fill-opacity="0.08"/>
<path fill-rule="evenodd" clip-rule="evenodd" d="M694.178 270.77L694.371 231.711L732.535 246.835L694.178 270.77ZM694.959 232.655L694.79 269.662L731.158 247.023L694.959 232.655Z" fill="white" fill-opacity="0.08"/>
<path fill-rule="evenodd" clip-rule="evenodd" d="M694.37 231.711L725.436 231.791L732.534 246.836L694.37 231.711ZM725.053 232.445L697.616 232.356L731.353 245.735L725.053 232.445Z" fill="white" fill-opacity="0.08"/>
<path fill-rule="evenodd" clip-rule="evenodd" d="M503.555 418.777L599.711 280.918L649.552 460.872L503.555 418.777ZM599.5 282.335L504.559 418.415L648.696 459.984L599.5 282.335Z" fill="white" fill-opacity="0.08"/>
<path fill-rule="evenodd" clip-rule="evenodd" d="M599.711 280.915L694.178 270.768L725.356 345.484L599.711 280.915ZM693.756 271.374L601.808 281.294L724.114 344.157L693.756 271.374Z" fill="white" fill-opacity="0.08"/>
<path fill-rule="evenodd" clip-rule="evenodd" d="M694.37 231.712L660.078 145.963L749.548 177.805L694.37 231.712ZM661.178 147.011L694.626 230.649L748.468 178.072L661.178 147.011Z" fill="white" fill-opacity="0.08"/>
<path fill-rule="evenodd" clip-rule="evenodd" d="M660.079 145.961L748.501 149.265L749.549 177.804L660.079 145.961ZM747.946 149.899L664.053 146.736L748.951 176.947L747.946 149.899Z" fill="white" fill-opacity="0.08"/>
<path fill-rule="evenodd" clip-rule="evenodd" d="M725.436 231.791L694.37 231.711L749.549 177.804L725.436 231.791ZM695.889 231.06L725.071 231.179L747.699 180.515L695.889 231.06Z" fill="white" fill-opacity="0.08"/>
<path fill-rule="evenodd" clip-rule="evenodd" d="M649.552 460.872L599.711 280.918L725.356 345.486L649.552 460.872ZM600.667 282.08L649.768 459.411L724.459 345.686L600.667 282.08Z" fill="white" fill-opacity="0.08"/>
<path fill-rule="evenodd" clip-rule="evenodd" d="M660.078 145.963L646.449 73.2734L748.5 149.266L660.078 145.963ZM647.326 74.7321L660.586 145.367L746.525 148.596L647.326 74.7321Z" fill="white" fill-opacity="0.08"/>
<path fill-rule="evenodd" clip-rule="evenodd" d="M748.5 149.266L646.449 73.2734L775.769 106.319L748.5 149.266ZM649.307 74.6159L748.344 148.374L774.808 106.687L649.307 74.6159Z" fill="white" fill-opacity="0.08"/>
<path fill-rule="evenodd" clip-rule="evenodd" d="M649.552 460.871L725.357 345.485L746.501 429.684L649.552 460.871ZM725.093 346.984L651.041 459.735L745.766 429.247L725.093 346.984Z" fill="white" fill-opacity="0.08"/>
<path fill-rule="evenodd" clip-rule="evenodd" d="M646.449 73.2732L727.42 0.419938L775.769 106.319L646.449 73.2732ZM727.217 1.40143L647.712 72.9413L774.701 105.362L727.217 1.40143Z" fill="white" fill-opacity="0.08"/>
<path fill-rule="evenodd" clip-rule="evenodd" d="M656.087 518.471L681.703 489.536L722.873 554.763L656.087 518.471ZM681.624 490.576L657.066 518.324L721.058 553.107L681.624 490.576Z" fill="white" fill-opacity="0.08"/>
<path fill-rule="evenodd" clip-rule="evenodd" d="M727.42 0.417969L770.785 5.53298L800.149 87.8593L727.42 0.417969ZM770.326 6.09084L728.857 1.19955L798.41 84.8128L770.326 6.09084Z" fill="white" fill-opacity="0.08"/>
<path fill-rule="evenodd" clip-rule="evenodd" d="M746.501 429.684L760.21 388.679L770.881 411.227L746.501 429.684ZM760.318 390.353L747.701 428.034L770.11 411.092L760.318 390.353Z" fill="white" fill-opacity="0.08"/>
<path fill-rule="evenodd" clip-rule="evenodd" d="M800.148 87.8615L770.785 5.53516L814.151 10.6502L800.148 87.8615ZM771.662 6.25064L799.949 85.4773L813.39 11.1724L771.662 6.25064Z" fill="white" fill-opacity="0.08"/>
<path fill-rule="evenodd" clip-rule="evenodd" d="M694.178 270.77L732.534 246.835L725.356 345.485L694.178 270.77ZM731.826 248.019L694.938 270.99L724.875 342.893L731.826 248.019Z" fill="white" fill-opacity="0.08"/>
<path fill-rule="evenodd" clip-rule="evenodd" d="M746.501 429.683L770.881 411.226L809.302 461.965L746.501 429.683ZM770.779 412.088L747.652 429.557L807.195 460.186L770.779 412.088Z" fill="white" fill-opacity="0.08"/>
<path fill-rule="evenodd" clip-rule="evenodd" d="M681.703 489.539L746.499 429.685L809.3 461.967L681.703 489.539ZM746.59 430.396L683.795 488.475L807.495 461.71L746.59 430.396Z" fill="white" fill-opacity="0.08"/>
<path fill-rule="evenodd" clip-rule="evenodd" d="M775.77 106.318L800.15 87.8603L863.214 155.714L775.77 106.318ZM800.054 88.6795L776.873 106.229L860.057 153.199L800.054 88.6795Z" fill="white" fill-opacity="0.08"/>
<path fill-rule="evenodd" clip-rule="evenodd" d="M749.549 177.805L748.5 149.266L863.212 155.715L749.549 177.805ZM749.081 149.903L750.119 177.041L858.24 156.002L749.081 149.903Z" fill="white" fill-opacity="0.08"/>
<path fill-rule="evenodd" clip-rule="evenodd" d="M748.501 149.265L775.769 106.317L863.213 155.713L748.501 149.265ZM775.985 107.086L749.574 148.692L860.596 154.924L775.985 107.086Z" fill="white" fill-opacity="0.08"/>
<path fill-rule="evenodd" clip-rule="evenodd" d="M809.301 461.966L827.407 421.479L828.087 453.515L809.301 461.966ZM826.823 424.207L810.494 460.751L827.433 453.132L826.823 424.207Z" fill="white" fill-opacity="0.08"/>
<path fill-rule="evenodd" clip-rule="evenodd" d="M770.88 411.226L760.209 388.678L827.407 421.478L770.88 411.226ZM761.499 389.967L771.296 410.663L823.16 420.059L761.499 389.967Z" fill="white" fill-opacity="0.08"/>
<path fill-rule="evenodd" clip-rule="evenodd" d="M809.302 461.966L770.881 411.227L827.408 421.479L809.302 461.966ZM772.303 412.137L809.181 460.771L826.528 421.899L772.303 412.137Z" fill="white" fill-opacity="0.08"/>
<path fill-rule="evenodd" clip-rule="evenodd" d="M722.874 554.765L681.704 489.538L809.301 461.965L722.874 554.765ZM682.708 489.919L722.991 553.774L807.526 462.936L682.708 489.919Z" fill="white" fill-opacity="0.08"/>
<path fill-rule="evenodd" clip-rule="evenodd" d="M800.148 87.8589L814.15 10.6476L857.516 15.7626L800.148 87.8589ZM814.639 11.3173L801.16 85.574L856.324 16.234L814.639 11.3173Z" fill="white" fill-opacity="0.08"/>
<path fill-rule="evenodd" clip-rule="evenodd" d="M732.534 246.835L725.436 231.791L749.548 177.805L732.534 246.835ZM726.136 231.786L732.354 245.022L747.337 184.32L726.136 231.786Z" fill="white" fill-opacity="0.08"/>
<path fill-rule="evenodd" clip-rule="evenodd" d="M725.357 345.486L732.535 246.836L904.454 295.573L725.357 345.486ZM733.095 247.645L726.025 344.647L902.144 295.519L733.095 247.645Z" fill="white" fill-opacity="0.08"/>
<path fill-rule="evenodd" clip-rule="evenodd" d="M722.874 554.764L809.301 461.965L883.447 548.874L722.874 554.764ZM809.285 462.837L724.312 554.06L882.167 548.242L809.285 462.837Z" fill="white" fill-opacity="0.08"/>
<path fill-rule="evenodd" clip-rule="evenodd" d="M904.453 295.571L732.534 246.834L920.232 237.017L904.453 295.571ZM736.28 247.319L904.017 294.82L919.408 237.707L736.28 247.319Z" fill="white" fill-opacity="0.08"/>
<path fill-rule="evenodd" clip-rule="evenodd" d="M732.535 246.837L749.549 177.806L920.232 237.02L732.535 246.837ZM749.98 178.6L733.311 246.185L917.053 236.557L749.98 178.6Z" fill="white" fill-opacity="0.08"/>
<path fill-rule="evenodd" clip-rule="evenodd" d="M749.548 177.805L863.212 155.715L920.231 237.019L749.548 177.805ZM862.915 156.379L751.886 177.993L918.581 235.819L862.915 156.379Z" fill="white" fill-opacity="0.08"/>
<path fill-rule="evenodd" clip-rule="evenodd" d="M800.148 87.8589L857.516 15.7626L900.838 20.8725L800.148 87.8589ZM857.789 16.4069L803.085 85.189L899.172 21.288L857.789 16.4069Z" fill="white" fill-opacity="0.08"/>
<path fill-rule="evenodd" clip-rule="evenodd" d="M809.304 461.966L828.089 453.515L883.45 548.875L809.304 461.966ZM827.825 454.27L810.285 462.169L879.476 543.291L827.825 454.27Z" fill="white" fill-opacity="0.08"/>
<path fill-rule="evenodd" clip-rule="evenodd" d="M863.212 155.713L800.148 87.8594L926.992 141.902L863.212 155.713ZM802.567 89.5873L863.423 155.038L925.004 141.712L802.567 89.5873Z" fill="white" fill-opacity="0.08"/>
<path fill-rule="evenodd" clip-rule="evenodd" d="M827.409 421.477L760.211 388.677L904.454 295.571L827.409 421.477ZM761.443 388.604L827.156 420.66L902.476 297.523L761.443 388.604Z" fill="white" fill-opacity="0.08"/>
</svg>
