<svg width="796" height="347" viewBox="0 0 796 347" fill="none" xmlns="http://www.w3.org/2000/svg">
<path fill-rule="evenodd" clip-rule="evenodd" d="M-44.8139 160.437L8.80078 81.707L43.3101 156.42L-44.8139 160.437ZM8.69213 82.9462L-43.6274 159.774L42.3285 155.857L8.69213 82.9462Z" fill="white" fill-opacity="0.08"/>
<path fill-rule="evenodd" clip-rule="evenodd" d="M8.80078 81.707L41.6279 104.062L43.3101 156.42L8.80078 81.707ZM40.9988 104.369L10.2884 83.4554L42.5572 153.439L40.9988 104.369Z" fill="white" fill-opacity="0.08"/>
<path fill-rule="evenodd" clip-rule="evenodd" d="M41.6281 104.063L90.5625 0.820312L127.375 64.2858L41.6281 104.063ZM90.6577 2.14575L42.9171 102.787L126.547 64.0369L90.6577 2.14575Z" fill="white" fill-opacity="0.08"/>
<path fill-rule="evenodd" clip-rule="evenodd" d="M93.6011 113.878L41.6261 104.063L127.373 64.2866L93.6011 113.878ZM43.579 103.818L93.3188 113.213L125.6 65.8105L43.579 103.818Z" fill="white" fill-opacity="0.08"/>
<path fill-rule="evenodd" clip-rule="evenodd" d="M-116.358 171.49L-44.8152 160.437L4.26007 245.069L-116.358 171.49ZM-45.1475 161.156L-114.604 171.845L2.53122 243.367L-45.1475 161.156Z" fill="white" fill-opacity="0.08"/>
<path fill-rule="evenodd" clip-rule="evenodd" d="M-36.4372 281.384L-116.36 171.49L4.258 245.069L-36.4372 281.384ZM-114.046 173.644L-36.3561 280.494L3.25709 245.228L-114.046 173.644Z" fill="white" fill-opacity="0.08"/>
<path fill-rule="evenodd" clip-rule="evenodd" d="M43.3088 156.42L41.6265 104.061L93.6015 113.876L43.3088 156.42ZM42.2936 104.778L43.9114 155.149L92.2617 114.225L42.2936 104.778Z" fill="white" fill-opacity="0.08"/>
<path fill-rule="evenodd" clip-rule="evenodd" d="M43.3102 156.419L93.603 113.876L93.3418 169.165L43.3102 156.419ZM93.0119 115.207L44.6257 156.107L92.7235 168.377L93.0119 115.207Z" fill="white" fill-opacity="0.08"/>
<path fill-rule="evenodd" clip-rule="evenodd" d="M93.6022 113.877L127.374 64.2855L143.955 71.3227L93.6022 113.877ZM127.583 65.0582L96.6459 110.487L142.762 71.4555L127.583 65.0582Z" fill="white" fill-opacity="0.08"/>
<path fill-rule="evenodd" clip-rule="evenodd" d="M-44.816 160.434L43.3081 156.418L4.25926 245.067L-44.816 160.434ZM42.3384 157.071L-43.7985 161.022L4.19996 243.766L42.3384 157.071Z" fill="white" fill-opacity="0.08"/>
<path fill-rule="evenodd" clip-rule="evenodd" d="M-53.6009 384.933L-73.2068 358.818L3.67549 355.655L-53.6009 384.933ZM-71.9725 359.396L-53.4365 384.152L0.910956 356.399L-71.9725 359.396Z" fill="white" fill-opacity="0.08"/>
<path fill-rule="evenodd" clip-rule="evenodd" d="M-36.4354 281.385L4.25978 245.07L-24.5324 310.869L-36.4354 281.385ZM2.61105 247.414L-35.6903 281.525L-24.4565 309.292L2.61105 247.414Z" fill="white" fill-opacity="0.08"/>
<path fill-rule="evenodd" clip-rule="evenodd" d="M93.6022 113.877L143.955 71.3227L166.863 155.206L93.6022 113.877ZM143.596 72.3908L94.6749 113.767L165.876 153.956L143.596 72.3908Z" fill="white" fill-opacity="0.08"/>
<path fill-rule="evenodd" clip-rule="evenodd" d="M93.3414 169.166L93.6027 113.876L166.864 155.205L93.3414 169.166ZM94.2422 114.942L93.9508 168.425L165.121 154.911L94.2422 114.942Z" fill="white" fill-opacity="0.08"/>
<path fill-rule="evenodd" clip-rule="evenodd" d="M143.956 71.3225L192.009 86.9751L166.864 155.206L143.956 71.3225ZM191.174 87.3522L144.85 72.2463L166.956 153.22L191.174 87.3522Z" fill="white" fill-opacity="0.08"/>
<path fill-rule="evenodd" clip-rule="evenodd" d="M-53.5984 384.936L3.67796 355.658L16.24 368.52L-53.5984 384.936ZM3.59841 356.392L-48.777 383.177L15.1118 368.172L3.59841 356.392Z" fill="white" fill-opacity="0.08"/>
<path fill-rule="evenodd" clip-rule="evenodd" d="M16.2405 368.52L3.67846 355.659L56.0132 357.157L16.2405 368.52ZM5.15253 356.347L16.4277 367.86L51.9867 357.671L5.15253 356.347Z" fill="white" fill-opacity="0.08"/>
<path fill-rule="evenodd" clip-rule="evenodd" d="M3.67721 355.657L-24.5321 310.867L56.0119 357.155L3.67721 355.657ZM-22.6711 312.607L4.03234 355.059L53.5988 356.457L-22.6711 312.607Z" fill="white" fill-opacity="0.08"/>
<path fill-rule="evenodd" clip-rule="evenodd" d="M4.26024 245.069L43.309 156.42L93.3406 169.166L4.26024 245.069ZM43.6273 157.11L5.87151 242.858L92.0136 169.418L43.6273 157.11Z" fill="white" fill-opacity="0.08"/>
<path fill-rule="evenodd" clip-rule="evenodd" d="M4.26073 245.068L93.341 169.165L144.396 250.891L4.26073 245.068ZM93.1637 170.042L5.84343 244.518L143.259 250.17L93.1637 170.042Z" fill="white" fill-opacity="0.08"/>
<path fill-rule="evenodd" clip-rule="evenodd" d="M-24.5324 310.87L4.25977 245.07L56.0116 357.158L-24.5324 310.87ZM4.26862 246.6L-23.7353 310.624L54.6056 355.675L4.26862 246.6Z" fill="white" fill-opacity="0.08"/>
<path fill-rule="evenodd" clip-rule="evenodd" d="M-53.5982 384.937L16.2402 368.521L8.69819 465.81L-53.5982 384.937ZM15.6064 369.297L-52.5302 385.297L8.25724 464.144L15.6064 369.297Z" fill="white" fill-opacity="0.08"/>
<path fill-rule="evenodd" clip-rule="evenodd" d="M93.3402 169.165L166.863 155.204L144.395 250.891L93.3402 169.165ZM166.072 155.979L94.3234 169.571L144.158 249.311L166.072 155.979Z" fill="white" fill-opacity="0.08"/>
<path fill-rule="evenodd" clip-rule="evenodd" d="M166.862 155.205L192.006 86.9745L230.76 100.55L166.862 155.205ZM192.372 87.7486L168.266 153.22L229.554 100.779L192.372 87.7486Z" fill="white" fill-opacity="0.08"/>
<path fill-rule="evenodd" clip-rule="evenodd" d="M56.0115 357.156L4.25974 245.068L144.395 250.891L56.0115 357.156ZM5.2284 245.727L56.1675 356.001L143.125 251.444L5.2284 245.727Z" fill="white" fill-opacity="0.08"/>
<path fill-rule="evenodd" clip-rule="evenodd" d="M56.0123 357.156L144.395 250.891L109.368 380.675L56.0123 357.156ZM143.07 253.455L57.0018 356.937L108.931 379.852L143.07 253.455Z" fill="white" fill-opacity="0.08"/>
<path fill-rule="evenodd" clip-rule="evenodd" d="M109.367 380.674L144.395 250.891L205.071 326.353L109.367 380.674ZM144.671 252.182L110.343 379.395L204.122 326.127L144.671 252.182Z" fill="white" fill-opacity="0.08"/>
<path fill-rule="evenodd" clip-rule="evenodd" d="M16.2394 368.521L56.012 357.157L109.368 380.676L16.2394 368.521ZM55.921 357.831L19.2275 368.297L105.153 379.539L55.921 357.831Z" fill="white" fill-opacity="0.08"/>
<path fill-rule="evenodd" clip-rule="evenodd" d="M109.367 380.675L205.071 326.354L196.11 362.955L109.367 380.675ZM204.144 327.561L113.04 379.29L195.694 362.409L204.144 327.561Z" fill="white" fill-opacity="0.08"/>
<path fill-rule="evenodd" clip-rule="evenodd" d="M16.2394 368.521L109.368 380.676L41.8483 479.824L16.2394 368.521ZM108.243 381.171L17.0027 369.251L42.0677 478.345L108.243 381.171Z" fill="white" fill-opacity="0.08"/>
<path fill-rule="evenodd" clip-rule="evenodd" d="M196.11 362.953L205.07 326.352L209.391 359.181L196.11 362.953ZM204.857 329.673L196.937 362.046L208.673 358.692L204.857 329.673Z" fill="white" fill-opacity="0.08"/>
<path fill-rule="evenodd" clip-rule="evenodd" d="M209.392 359.183L205.071 326.354L245.805 337.022L209.392 359.183ZM205.822 327.18L209.884 358.152L244.261 337.284L205.822 327.18Z" fill="white" fill-opacity="0.08"/>
<path fill-rule="evenodd" clip-rule="evenodd" d="M205.071 326.353L144.395 250.891L245.805 337.021L205.071 326.353ZM148.935 255.559L205.438 325.815L243.373 335.733L148.935 255.559Z" fill="white" fill-opacity="0.08"/>
<path fill-rule="evenodd" clip-rule="evenodd" d="M109.367 380.675L196.11 362.955L153.438 449.136L109.367 380.675ZM195.054 363.812L110.386 381.107L153.415 447.86L195.054 363.812Z" fill="white" fill-opacity="0.08"/>
<path fill-rule="evenodd" clip-rule="evenodd" d="M292.537 338.959L245.805 337.022L308.421 315.635L292.537 338.959ZM249.121 336.549L292.194 338.306L306.856 316.775L249.121 336.549Z" fill="white" fill-opacity="0.08"/>
<path fill-rule="evenodd" clip-rule="evenodd" d="M245.805 337.024L144.396 250.893L308.421 315.636L245.805 337.024ZM147.603 252.815L245.921 336.314L306.628 315.571L147.603 252.815Z" fill="white" fill-opacity="0.08"/>
<path fill-rule="evenodd" clip-rule="evenodd" d="M144.398 250.891L166.865 155.205L308.423 315.635L144.398 250.891ZM167.177 156.521L145.1 250.477L306.259 314.108L167.177 156.521Z" fill="white" fill-opacity="0.08"/>
<path fill-rule="evenodd" clip-rule="evenodd" d="M166.862 155.206L230.76 100.55L385.202 218.541L166.862 155.206ZM230.813 101.321L168.118 154.905L382.22 216.983L230.813 101.321Z" fill="white" fill-opacity="0.08"/>
<path fill-rule="evenodd" clip-rule="evenodd" d="M230.761 100.549L405.729 172.744L385.203 218.54L230.761 100.549ZM404.883 173.061L234.855 102.865L384.948 217.526L404.883 173.061Z" fill="white" fill-opacity="0.08"/>
<path fill-rule="evenodd" clip-rule="evenodd" d="M209.392 359.184L245.804 337.023L256.449 399.739L209.392 359.184ZM245.373 338.042L210.438 359.266L255.562 398.189L245.373 338.042Z" fill="white" fill-opacity="0.08"/>
<path fill-rule="evenodd" clip-rule="evenodd" d="M308.419 315.634L385.201 218.54L359.733 295.112L308.419 315.634ZM383.509 221.642L310.336 314.208L359.268 294.638L383.509 221.642Z" fill="white" fill-opacity="0.08"/>
<path fill-rule="evenodd" clip-rule="evenodd" d="M308.422 315.636L166.864 155.206L385.204 218.541L308.422 315.636ZM168.742 156.38L308.395 314.672L384.165 218.832L168.742 156.38Z" fill="white" fill-opacity="0.08"/>
<path fill-rule="evenodd" clip-rule="evenodd" d="M359.735 295.111L385.203 218.539L373.305 282.974L359.735 295.111ZM383.023 227.139L361.079 293.138L372.753 282.704L383.023 227.139Z" fill="white" fill-opacity="0.08"/>
<path fill-rule="evenodd" clip-rule="evenodd" d="M245.804 337.023L292.536 338.961L256.449 399.74L245.804 337.023ZM291.459 339.54L246.52 337.669L256.779 398.021L291.459 339.54Z" fill="white" fill-opacity="0.08"/>
<path fill-rule="evenodd" clip-rule="evenodd" d="M373.305 282.974L385.203 218.539L411.732 257.931L373.305 282.974ZM385.501 220.107L374.184 281.682L410.855 257.754L385.501 220.107Z" fill="white" fill-opacity="0.08"/>
<path fill-rule="evenodd" clip-rule="evenodd" d="M359.734 295.113L373.303 282.975L384.246 290.427L359.734 295.113ZM373.367 283.807L361.791 294.097L382.695 290.159L373.367 283.807Z" fill="white" fill-opacity="0.08"/>
<path fill-rule="evenodd" clip-rule="evenodd" d="M256.449 399.74L292.535 338.961L314.087 409.105L256.449 399.74ZM292.352 340.464L257.428 399.304L313.227 408.362L292.352 340.464Z" fill="white" fill-opacity="0.08"/>
<path fill-rule="evenodd" clip-rule="evenodd" d="M292.536 338.959L308.42 315.635L357.133 361.625L292.536 338.959ZM308.531 316.551L293.502 338.62L354.62 360.071L308.531 316.551Z" fill="white" fill-opacity="0.08"/>
<path fill-rule="evenodd" clip-rule="evenodd" d="M385.201 218.541L420.954 213.002L411.73 257.933L385.201 218.541ZM420.188 213.741L386.256 218.997L411.408 256.4L420.188 213.741Z" fill="white" fill-opacity="0.08"/>
<path fill-rule="evenodd" clip-rule="evenodd" d="M384.243 290.427L373.301 282.975L411.729 257.932L384.243 290.427ZM374.396 282.986L384.119 289.607L408.535 260.694L374.396 282.986Z" fill="white" fill-opacity="0.08"/>
<path fill-rule="evenodd" clip-rule="evenodd" d="M308.421 315.634L359.735 295.111L357.134 361.624L308.421 315.634ZM359.124 296.008L309.551 315.825L356.558 360.233L359.124 296.008Z" fill="white" fill-opacity="0.08"/>
<path fill-rule="evenodd" clip-rule="evenodd" d="M314.087 409.105L292.535 338.961L358.154 383.647L314.087 409.105ZM293.592 340.416L314.409 408.169L356.95 383.563L293.592 340.416Z" fill="white" fill-opacity="0.08"/>
<path fill-rule="evenodd" clip-rule="evenodd" d="M292.536 338.96L357.133 361.625L358.154 383.646L292.536 338.96ZM356.527 362.052L296.752 341.096L357.456 382.435L356.527 362.052Z" fill="white" fill-opacity="0.08"/>
<path fill-rule="evenodd" clip-rule="evenodd" d="M384.244 290.426L411.73 257.932L395.187 297.878L384.244 290.426ZM409.625 261.331L385.16 290.315L394.919 296.96L409.625 261.331Z" fill="white" fill-opacity="0.08"/>
<path fill-rule="evenodd" clip-rule="evenodd" d="M359.734 295.113L384.246 290.427L395.188 297.879L359.734 295.113ZM384.094 291.112L364.347 294.893L392.92 297.122L384.094 291.112Z" fill="white" fill-opacity="0.08"/>
<path fill-rule="evenodd" clip-rule="evenodd" d="M411.731 257.931L420.955 213L463.405 229.091L411.731 257.931ZM421.429 213.847L412.598 256.735L461.923 229.185L421.429 213.847Z" fill="white" fill-opacity="0.08"/>
<path fill-rule="evenodd" clip-rule="evenodd" d="M359.734 295.113L395.188 297.879L357.133 361.625L359.734 295.113ZM394.135 298.423L360.329 295.781L357.832 359.212L394.135 298.423Z" fill="white" fill-opacity="0.08"/>
<path fill-rule="evenodd" clip-rule="evenodd" d="M357.133 361.625L395.187 297.879L404.526 393.9L357.133 361.625ZM394.771 299.801L357.941 361.44L403.756 392.64L394.771 299.801Z" fill="white" fill-opacity="0.08"/>
<path fill-rule="evenodd" clip-rule="evenodd" d="M395.187 297.878L411.73 257.932L523.759 359.855L395.187 297.878ZM411.949 258.921L395.973 297.573L520.232 357.401L411.949 258.921Z" fill="white" fill-opacity="0.08"/>
<path fill-rule="evenodd" clip-rule="evenodd" d="M411.73 257.93L545.267 289.095L523.758 359.854L411.73 257.93ZM544.444 289.532L413.874 259.022L523.444 358.695L544.444 289.532Z" fill="white" fill-opacity="0.08"/>
<path fill-rule="evenodd" clip-rule="evenodd" d="M411.731 257.93L463.404 229.091L545.269 289.095L411.731 257.93ZM463.325 229.825L413.371 257.681L542.464 287.815L463.325 229.825Z" fill="white" fill-opacity="0.08"/>
<path fill-rule="evenodd" clip-rule="evenodd" d="M404.525 393.899L395.187 297.878L523.758 359.855L404.525 393.899ZM395.911 298.896L405.063 393.109L522.039 359.682L395.911 298.896Z" fill="white" fill-opacity="0.08"/>
<path fill-rule="evenodd" clip-rule="evenodd" d="M404.526 393.9L523.759 359.856L514.537 451.746L404.526 393.9ZM523.04 360.68L406.15 394.06L514.005 450.753L523.04 360.68Z" fill="white" fill-opacity="0.08"/>
<path fill-rule="evenodd" clip-rule="evenodd" d="M523.76 359.855L545.269 289.096L600.645 403.651L523.76 359.855ZM545.373 290.794L524.485 359.561L599.203 402.144L545.373 290.794Z" fill="white" fill-opacity="0.08"/>
<path fill-rule="evenodd" clip-rule="evenodd" d="M600.645 403.651L545.269 289.096L644.675 378.169L600.645 403.651ZM547.183 291.607L600.918 402.787L643.653 378.051L547.183 291.607Z" fill="white" fill-opacity="0.08"/>
<path fill-rule="evenodd" clip-rule="evenodd" d="M545.268 289.097L650.743 261.914L644.674 378.17L545.268 289.097ZM650.11 262.691L546.541 289.386L644.17 376.828L650.11 262.691Z" fill="white" fill-opacity="0.08"/>
<path fill-rule="evenodd" clip-rule="evenodd" d="M650.744 261.914L686.836 286.493L674.825 373.07L650.744 261.914ZM686.171 286.775L651.658 263.272L674.692 369.564L686.171 286.775Z" fill="white" fill-opacity="0.08"/>
<path fill-rule="evenodd" clip-rule="evenodd" d="M674.825 373.069L686.836 286.492L722.928 311.071L674.825 373.069ZM687.283 287.532L675.75 370.863L722.011 311.182L687.283 287.532Z" fill="white" fill-opacity="0.08"/>
<path fill-rule="evenodd" clip-rule="evenodd" d="M674.824 373.069L722.926 311.07L759.018 335.649L674.824 373.069ZM723.05 311.89L676.778 371.511L757.743 335.516L723.05 311.89Z" fill="white" fill-opacity="0.08"/>
<path fill-rule="evenodd" clip-rule="evenodd" d="M674.824 373.069L759.018 335.649L795.074 360.203L674.824 373.069ZM758.963 336.347L678.662 372.059L793.404 359.801L758.963 336.347Z" fill="white" fill-opacity="0.08"/>
</svg>
