<svg width="827" height="474" viewBox="0 0 827 474" fill="none" xmlns="http://www.w3.org/2000/svg">
<g clip-path="url(#clip0_3_5528)">
<path fill-rule="evenodd" clip-rule="evenodd" d="M63.7075 106.903L74.8652 12.3066L139.999 62.6119L63.7075 106.903ZM75.3416 13.4557L64.4534 105.767L138.868 62.5659L75.3416 13.4557Z" fill="white" fill-opacity="0.08"/>
<path fill-rule="evenodd" clip-rule="evenodd" d="M74.8652 12.3066L114.308 16.959L139.999 62.6119L74.8652 12.3066ZM113.892 17.5219L76.9925 13.1696L137.953 60.316L113.892 17.5219Z" fill="white" fill-opacity="0.08"/>
<path fill-rule="evenodd" clip-rule="evenodd" d="M114.308 16.9584L109.986 -97.2119L171.964 -57.9455L114.308 16.9584ZM110.683 -96.0805L114.862 15.2313L171.114 -57.7834L110.683 -96.0805Z" fill="white" fill-opacity="0.08"/>
<path fill-rule="evenodd" clip-rule="evenodd" d="M164.935 1.64134L114.308 16.9593L171.963 -57.9446L164.935 1.64134ZM115.926 15.8387L164.377 1.18212L171.095 -55.7738L115.926 15.8387Z" fill="white" fill-opacity="0.08"/>
<path fill-rule="evenodd" clip-rule="evenodd" d="M5.37279 149.771L63.7074 106.903L146.342 159.273L5.37279 149.771ZM63.7452 107.694L7.09222 149.274L144.022 158.562L63.7452 107.694Z" fill="white" fill-opacity="0.08"/>
<path fill-rule="evenodd" clip-rule="evenodd" d="M127.036 210.285L5.37027 149.771L146.34 159.273L127.036 210.285ZM8.41802 150.611L126.696 209.458L145.525 159.876L8.41802 150.611Z" fill="white" fill-opacity="0.08"/>
<path fill-rule="evenodd" clip-rule="evenodd" d="M9.76183 338.571L103.966 292.852L146.746 344.062L9.76183 338.571ZM103.832 293.623L12.2242 338.075L145.423 343.425L103.832 293.623Z" fill="white" fill-opacity="0.08"/>
<path fill-rule="evenodd" clip-rule="evenodd" d="M103.969 292.853L130.221 295.949L146.749 344.062L103.969 292.853ZM129.805 296.512L105.449 293.639L145.124 341.16L129.805 296.512Z" fill="white" fill-opacity="0.08"/>
<path fill-rule="evenodd" clip-rule="evenodd" d="M139.997 62.6112L114.307 16.9583L164.934 1.64033L139.997 62.6112ZM115.229 17.2857L139.944 61.2061L163.906 2.56833L115.229 17.2857Z" fill="white" fill-opacity="0.08"/>
<path fill-rule="evenodd" clip-rule="evenodd" d="M146.747 344.062L130.219 295.949L159.675 310.047L146.747 344.062ZM131.261 297.121L146.74 342.269L158.848 310.386L131.261 297.121Z" fill="white" fill-opacity="0.08"/>
<path fill-rule="evenodd" clip-rule="evenodd" d="M139.999 62.6114L164.935 1.64048L190.257 50.7909L139.999 62.6114ZM165.026 3.0938L141.021 61.7265L189.344 50.3772L165.026 3.0938Z" fill="white" fill-opacity="0.08"/>
<path fill-rule="evenodd" clip-rule="evenodd" d="M164.935 1.64083L171.963 -57.9451L189.919 -59.3681L164.935 1.64083ZM172.506 -57.3566L166.067 -2.77202L188.923 -58.6988L172.506 -57.3566Z" fill="white" fill-opacity="0.08"/>
<path fill-rule="evenodd" clip-rule="evenodd" d="M130.22 295.948L103.968 292.852L151.22 230.928L130.22 295.948ZM105.074 292.37L129.817 295.289L149.53 234.139L105.074 292.37Z" fill="white" fill-opacity="0.08"/>
<path fill-rule="evenodd" clip-rule="evenodd" d="M63.705 106.902L139.996 62.6112L146.34 159.271L63.705 106.902ZM139.438 63.6382L64.8791 106.953L145.686 158.145L139.438 63.6382Z" fill="white" fill-opacity="0.08"/>
<path fill-rule="evenodd" clip-rule="evenodd" d="M159.675 310.045L130.218 295.947L196.935 257.609L159.675 310.045ZM131.58 295.889L159.459 309.276L194.827 259.546L131.58 295.889Z" fill="white" fill-opacity="0.08"/>
<path fill-rule="evenodd" clip-rule="evenodd" d="M127.037 210.286L146.341 159.273L151.219 230.93L127.037 210.286ZM145.962 162.114L127.762 210.065L150.558 229.497L145.962 162.114Z" fill="white" fill-opacity="0.08"/>
<path fill-rule="evenodd" clip-rule="evenodd" d="M164.935 1.64083L189.919 -59.3681L249.003 4.43115L164.935 1.64083ZM190.094 -58.2546L165.835 1.04758L247.55 3.77891L190.094 -58.2546Z" fill="white" fill-opacity="0.08"/>
<path fill-rule="evenodd" clip-rule="evenodd" d="M190.256 50.7906L164.935 1.64017L249.003 4.43048L190.256 50.7906ZM165.994 2.28976L190.455 49.8522L247.322 4.97531L165.994 2.28976Z" fill="white" fill-opacity="0.08"/>
<path fill-rule="evenodd" clip-rule="evenodd" d="M189.919 -59.3682L239.766 -67.6964L249.003 4.43101L189.919 -59.3682ZM239.2 -66.9762L191.139 -58.9621L248.167 2.62746L239.2 -66.9762Z" fill="white" fill-opacity="0.08"/>
<path fill-rule="evenodd" clip-rule="evenodd" d="M159.678 310.046L196.938 257.61L214.022 263.21L159.678 310.046ZM197.207 258.298L163.14 306.257L212.861 263.423L197.207 258.298Z" fill="white" fill-opacity="0.08"/>
<path fill-rule="evenodd" clip-rule="evenodd" d="M214.021 263.21L196.937 257.61L244.039 234.751L214.021 263.21ZM198.562 257.54L213.882 262.538L240.706 237.068L198.562 257.54Z" fill="white" fill-opacity="0.08"/>
<path fill-rule="evenodd" clip-rule="evenodd" d="M196.937 257.61L151.22 230.928L244.039 234.751L196.937 257.61ZM153.674 231.611L196.975 256.915L241.576 235.247L153.674 231.611Z" fill="white" fill-opacity="0.08"/>
<path fill-rule="evenodd" clip-rule="evenodd" d="M146.341 159.273L139.998 62.6124L190.256 50.7919L146.341 159.273ZM140.599 63.0767L146.748 156.567L189.196 51.6286L140.599 63.0767Z" fill="white" fill-opacity="0.08"/>
<path fill-rule="evenodd" clip-rule="evenodd" d="M146.342 159.272L190.257 50.7911L273.303 99.6683L146.342 159.272ZM190.505 51.651L147.491 158.052L271.962 99.5537L190.505 51.651Z" fill="white" fill-opacity="0.08"/>
<path fill-rule="evenodd" clip-rule="evenodd" d="M151.22 230.929L146.342 159.272L244.039 234.752L151.22 230.929ZM147.056 160.625L151.814 230.344L242.107 234.087L147.056 160.625Z" fill="white" fill-opacity="0.08"/>
<path fill-rule="evenodd" clip-rule="evenodd" d="M146.748 344.062L159.677 310.046L252.298 352.971L146.748 344.062ZM159.973 310.868L147.6 343.507L248.867 352.041L159.973 310.868Z" fill="white" fill-opacity="0.08"/>
<path fill-rule="evenodd" clip-rule="evenodd" d="M159.677 310.047L214.021 263.212L252.298 352.972L159.677 310.047ZM213.818 264.193L160.79 309.872L251.137 351.698L213.818 264.193Z" fill="white" fill-opacity="0.08"/>
<path fill-rule="evenodd" clip-rule="evenodd" d="M148.931 401.15L146.748 344.063L252.298 352.971L148.931 401.15ZM147.415 344.71L149.522 400.215L249.98 353.354L147.415 344.71Z" fill="white" fill-opacity="0.08"/>
<path fill-rule="evenodd" clip-rule="evenodd" d="M220.534 445.137L148.93 401.15L252.297 352.971L220.534 445.137ZM150.19 401.211L220.205 444.224L251.244 354.115L150.19 401.211Z" fill="white" fill-opacity="0.08"/>
<path fill-rule="evenodd" clip-rule="evenodd" d="M190.256 50.7905L249.002 4.43043L273.302 99.6677L190.256 50.7905ZM248.66 5.4829L191.316 50.6969L272.362 98.3765L248.66 5.4829Z" fill="white" fill-opacity="0.08"/>
<path fill-rule="evenodd" clip-rule="evenodd" d="M249.002 4.43085L239.765 -67.6965L280.406 -73.5696L249.002 4.43085ZM240.447 -67.179L249.33 2.02145L279.442 -72.8089L240.447 -67.179Z" fill="white" fill-opacity="0.08"/>
<path fill-rule="evenodd" clip-rule="evenodd" d="M244.037 234.751L146.34 159.271L273.301 99.6677L244.037 234.751ZM147.504 159.409L243.642 233.655L272.431 100.745L147.504 159.409Z" fill="white" fill-opacity="0.08"/>
<path fill-rule="evenodd" clip-rule="evenodd" d="M263.902 450.251L252.299 352.971L300.979 429.75L263.902 450.251ZM253.216 355.571L264.412 449.262L300.084 429.557L253.216 355.571Z" fill="white" fill-opacity="0.08"/>
<path fill-rule="evenodd" clip-rule="evenodd" d="M252.298 352.97L288.173 350.076L300.978 429.75L252.298 352.97ZM287.655 350.758L253.373 353.49L299.871 426.909L287.655 350.758Z" fill="white" fill-opacity="0.08"/>
<path fill-rule="evenodd" clip-rule="evenodd" d="M252.298 352.971L214.021 263.211L288.173 350.077L252.298 352.971ZM216.15 266.653L252.681 352.317L286.92 349.58L216.15 266.653Z" fill="white" fill-opacity="0.08"/>
<path fill-rule="evenodd" clip-rule="evenodd" d="M244.038 234.751L273.302 99.668L302.223 230.947L244.038 234.751ZM273.311 102.554L244.814 234.099L301.455 230.42L273.311 102.554Z" fill="white" fill-opacity="0.08"/>
<path fill-rule="evenodd" clip-rule="evenodd" d="M302.222 230.947L273.301 99.668L361.985 138.544L302.222 230.947ZM274.142 100.685L302.496 229.362L361.039 138.782L274.142 100.685Z" fill="white" fill-opacity="0.08"/>
<path fill-rule="evenodd" clip-rule="evenodd" d="M214.021 263.211L244.039 234.752L302.224 230.948L214.021 263.211ZM244.269 235.391L216.567 261.631L297.961 231.888L244.269 235.391Z" fill="white" fill-opacity="0.08"/>
<path fill-rule="evenodd" clip-rule="evenodd" d="M302.223 230.948L361.986 138.544L370.956 175.143L302.223 230.948ZM361.722 140.043L304.841 228.022L370.335 174.851L361.722 140.043Z" fill="white" fill-opacity="0.08"/>
<path fill-rule="evenodd" clip-rule="evenodd" d="M214.021 263.211L302.224 230.948L288.172 350.077L214.021 263.211ZM301.455 231.907L215.035 263.505L287.683 348.664L301.455 231.907Z" fill="white" fill-opacity="0.08"/>
<path fill-rule="evenodd" clip-rule="evenodd" d="M370.954 175.142L361.984 138.543L380.989 165.659L370.954 175.142ZM363.33 141.587L371.269 173.955L380.127 165.557L363.33 141.587Z" fill="white" fill-opacity="0.08"/>
<path fill-rule="evenodd" clip-rule="evenodd" d="M288.171 350.076L302.223 230.947L372.946 271.289L288.171 350.076ZM302.719 231.924L288.973 348.466L371.929 271.388L302.719 231.924Z" fill="white" fill-opacity="0.08"/>
<path fill-rule="evenodd" clip-rule="evenodd" d="M380.99 165.66L361.986 138.544L403.038 129.178L380.99 165.66ZM363.033 138.93L380.95 164.518L401.79 130.124L363.033 138.93Z" fill="white" fill-opacity="0.08"/>
<path fill-rule="evenodd" clip-rule="evenodd" d="M361.985 138.544L273.301 99.668L403.038 129.178L361.985 138.544ZM279.485 101.709L362.061 137.897L400.286 129.16L279.485 101.709Z" fill="white" fill-opacity="0.08"/>
<path fill-rule="evenodd" clip-rule="evenodd" d="M302.223 230.948L370.956 175.143L372.946 271.29L302.223 230.948ZM370.416 176.391L303.326 230.86L372.335 270.169L370.416 176.391Z" fill="white" fill-opacity="0.08"/>
<path fill-rule="evenodd" clip-rule="evenodd" d="M445.375 109.298L403.039 129.178L448.681 81.2724L445.375 109.298ZM405.761 127.226L444.77 108.876L447.821 83.007L405.761 127.226Z" fill="white" fill-opacity="0.08"/>
<path fill-rule="evenodd" clip-rule="evenodd" d="M403.04 129.18L273.303 99.6695L448.682 81.2739L403.04 129.18ZM277.036 99.8912L402.815 128.497L447.061 82.0445L277.036 99.8912Z" fill="white" fill-opacity="0.08"/>
<path fill-rule="evenodd" clip-rule="evenodd" d="M288.171 350.076L372.946 271.289L416.86 351.047L288.171 350.076ZM372.785 272.275L289.685 349.468L415.795 350.441L372.785 272.275Z" fill="white" fill-opacity="0.08"/>
<path fill-rule="evenodd" clip-rule="evenodd" d="M273.304 99.6679L249.004 4.43066L448.683 81.2723L273.304 99.6679ZM249.889 5.45303L273.735 98.9756L446.059 80.9191L249.889 5.45303Z" fill="white" fill-opacity="0.08"/>
<path fill-rule="evenodd" clip-rule="evenodd" d="M249.003 4.43197L280.406 -73.5684L471.896 -40.3154L249.003 4.43197ZM280.809 -72.9089L249.977 3.58511L468.531 -40.3188L280.809 -72.9089Z" fill="white" fill-opacity="0.08"/>
<path fill-rule="evenodd" clip-rule="evenodd" d="M380.991 165.66L403.039 129.179L441.465 179.875L380.991 165.66ZM403.127 130.282L381.957 165.249L439.961 178.91L403.127 130.282Z" fill="white" fill-opacity="0.08"/>
<path fill-rule="evenodd" clip-rule="evenodd" d="M370.956 175.142L380.991 165.659L441.465 179.874L370.956 175.142ZM381.13 166.331L372.412 174.658L434.028 178.822L381.13 166.331Z" fill="white" fill-opacity="0.08"/>
<path fill-rule="evenodd" clip-rule="evenodd" d="M300.977 429.751L288.171 350.077L416.86 351.048L300.977 429.751ZM288.881 350.729L301.406 428.709L414.867 351.644L288.881 350.729Z" fill="white" fill-opacity="0.08"/>
<path fill-rule="evenodd" clip-rule="evenodd" d="M448.679 81.2725L471.893 -40.3165L484.699 39.3574L448.679 81.2725ZM471.826 -36.7834L449.72 79.122L484.067 39.1518L471.826 -36.7834Z" fill="white" fill-opacity="0.08"/>
<path fill-rule="evenodd" clip-rule="evenodd" d="M448.683 81.2719L249.004 4.43028L471.897 -40.3171L448.683 81.2719ZM251.212 4.60335L448.214 80.4298L471.11 -39.5792L251.212 4.60335Z" fill="white" fill-opacity="0.08"/>
<path fill-rule="evenodd" clip-rule="evenodd" d="M484.7 39.3565L471.895 -40.3174L491.123 22.3219L484.7 39.3565ZM473.936 -31.6833L484.98 36.9851L490.51 22.337L473.936 -31.6833Z" fill="white" fill-opacity="0.08"/>
<path fill-rule="evenodd" clip-rule="evenodd" d="M350.629 460.482L300.975 429.751L416.858 351.049L350.629 460.482ZM302.068 429.749L350.423 459.627L414.816 353.168L302.068 429.749Z" fill="white" fill-opacity="0.08"/>
<path fill-rule="evenodd" clip-rule="evenodd" d="M372.946 271.29L370.956 175.143L441.465 179.875L372.946 271.29ZM371.575 175.828L373.547 269.525L440.306 180.438L371.575 175.828Z" fill="white" fill-opacity="0.08"/>
<path fill-rule="evenodd" clip-rule="evenodd" d="M403.038 129.179L445.374 109.299L441.464 179.875L403.038 129.179ZM444.687 110.311L403.971 129.421L440.963 178.199L444.687 110.311Z" fill="white" fill-opacity="0.08"/>
<path fill-rule="evenodd" clip-rule="evenodd" d="M393.995 465.596L416.86 351.048L450.734 440.333L393.995 465.596ZM416.993 353.25L394.822 464.514L449.903 439.972L416.993 353.25Z" fill="white" fill-opacity="0.08"/>
<path fill-rule="evenodd" clip-rule="evenodd" d="M491.123 22.3219L471.895 -40.3174L513.626 -17.6465L491.123 22.3219ZM472.883 -39.0642L491.307 20.7698L512.767 -17.3982L472.883 -39.0642Z" fill="white" fill-opacity="0.08"/>
<path fill-rule="evenodd" clip-rule="evenodd" d="M484.7 39.3577L491.123 22.3231L504.271 23.8739L484.7 39.3577ZM491.564 23.0309L486.054 37.5066L502.772 24.3528L491.564 23.0309Z" fill="white" fill-opacity="0.08"/>
<path fill-rule="evenodd" clip-rule="evenodd" d="M416.859 351.049L454.189 373.244L450.734 440.333L416.859 351.049ZM453.588 373.523L418.048 352.457L450.256 437.348L453.588 373.523Z" fill="white" fill-opacity="0.08"/>
<path fill-rule="evenodd" clip-rule="evenodd" d="M441.465 179.875L445.375 109.299L496.906 161.541L441.465 179.875ZM445.907 110.717L442.132 179.036L495.8 161.279L445.907 110.717Z" fill="white" fill-opacity="0.08"/>
<path fill-rule="evenodd" clip-rule="evenodd" d="M479.256 198.539L441.466 179.874L496.907 161.539L479.256 198.539ZM443.109 180.024L479.002 197.722L495.778 162.586L443.109 180.024Z" fill="white" fill-opacity="0.08"/>
<path fill-rule="evenodd" clip-rule="evenodd" d="M445.374 109.298L448.68 81.2725L513.134 99.5415L445.374 109.298ZM449.202 82.0335L446.074 108.55L510.187 99.3251L449.202 82.0335Z" fill="white" fill-opacity="0.08"/>
<path fill-rule="evenodd" clip-rule="evenodd" d="M504.269 23.8738L491.122 22.323L513.625 -17.6454L504.269 23.8738ZM492.098 21.8262L503.78 23.2041L512.069 -13.7197L492.098 21.8262Z" fill="white" fill-opacity="0.08"/>
<path fill-rule="evenodd" clip-rule="evenodd" d="M372.945 271.29L441.464 179.875L479.254 198.54L372.945 271.29ZM441.631 180.681L375.651 268.724L478.016 198.656L441.631 180.681Z" fill="white" fill-opacity="0.08"/>
<path fill-rule="evenodd" clip-rule="evenodd" d="M448.68 81.2724L484.7 39.3573L513.134 99.5414L448.68 81.2724ZM484.573 40.4352L449.771 80.9202L511.981 98.5748L484.573 40.4352Z" fill="white" fill-opacity="0.08"/>
<path fill-rule="evenodd" clip-rule="evenodd" d="M416.86 351.048L372.945 271.289L503.554 293.776L416.86 351.048ZM374.119 272.083L417.048 350.195L501.898 294.106L374.119 272.083Z" fill="white" fill-opacity="0.08"/>
<path fill-rule="evenodd" clip-rule="evenodd" d="M496.906 161.541L445.375 109.299L524.217 118.598L496.906 161.541ZM446.985 110.101L496.759 160.562L523.112 119.08L446.985 110.101Z" fill="white" fill-opacity="0.08"/>
<path fill-rule="evenodd" clip-rule="evenodd" d="M445.375 109.298L513.134 99.5418L524.217 118.598L445.375 109.298ZM512.794 100.201L450.101 109.243L523.038 117.846L512.794 100.201Z" fill="white" fill-opacity="0.08"/>
<path fill-rule="evenodd" clip-rule="evenodd" d="M504.27 23.8738L513.625 -17.6454L517.418 25.4246L504.27 23.8738ZM513.33 -13.6585L505.031 23.3515L516.756 24.7345L513.33 -13.6585Z" fill="white" fill-opacity="0.08"/>
<path fill-rule="evenodd" clip-rule="evenodd" d="M484.7 39.3577L504.271 23.8739L517.418 25.4247L484.7 39.3577ZM504.453 24.5511L488.689 37.0305L515.058 25.8019L504.453 24.5511Z" fill="white" fill-opacity="0.08"/>
<path fill-rule="evenodd" clip-rule="evenodd" d="M454.189 373.243L416.859 351.047L503.553 293.776L454.189 373.243ZM417.952 351.045L453.978 372.431L501.516 295.853L417.952 351.045Z" fill="white" fill-opacity="0.08"/>
<path fill-rule="evenodd" clip-rule="evenodd" d="M372.945 271.29L479.254 198.54L503.554 293.777L372.945 271.29ZM478.825 199.582L374.515 270.95L502.677 293.062L478.825 199.582Z" fill="white" fill-opacity="0.08"/>
<path fill-rule="evenodd" clip-rule="evenodd" d="M484.7 39.3577L517.418 25.4247L513.134 99.5419L484.7 39.3577ZM516.736 26.3933L485.536 39.675L512.638 97.079L516.736 26.3933Z" fill="white" fill-opacity="0.08"/>
<path fill-rule="evenodd" clip-rule="evenodd" d="M524.218 118.597L513.135 99.541L570.079 106.258L524.218 118.597ZM514.271 100.287L524.476 117.884L566.818 106.485L514.271 100.287Z" fill="white" fill-opacity="0.08"/>
<path fill-rule="evenodd" clip-rule="evenodd" d="M513.134 99.542L517.418 25.4248L570.078 106.259L513.134 99.542ZM517.937 27.3221L513.765 99.0045L568.813 105.497L517.937 27.3221Z" fill="white" fill-opacity="0.08"/>
<path fill-rule="evenodd" clip-rule="evenodd" d="M496.907 161.54L524.219 118.598L599.712 155.917L496.907 161.54ZM524.434 119.366L498.076 160.891L597.367 155.422L524.434 119.366Z" fill="white" fill-opacity="0.08"/>
<path fill-rule="evenodd" clip-rule="evenodd" d="M524.217 118.597L570.078 106.258L599.71 155.916L524.217 118.597ZM569.819 106.97L525.989 118.762L598.176 154.468L569.819 106.97Z" fill="white" fill-opacity="0.08"/>
<path fill-rule="evenodd" clip-rule="evenodd" d="M479.254 198.541L496.905 161.541L599.71 155.918L479.254 198.541ZM497.356 162.162L480.474 197.461L595.544 156.782L497.356 162.162Z" fill="white" fill-opacity="0.08"/>
<path fill-rule="evenodd" clip-rule="evenodd" d="M517.417 25.4245L513.625 -17.6455L660.077 20.9619L517.417 25.4245ZM514.276 -16.8692L517.973 24.7906L655.815 20.4155L514.276 -16.8692Z" fill="white" fill-opacity="0.08"/>
<path fill-rule="evenodd" clip-rule="evenodd" d="M513.625 -17.6462L646.448 -51.7279L660.077 20.9613L513.625 -17.6462ZM645.92 -50.9595L516.031 -17.6684L659.263 20.0784L645.92 -50.9595Z" fill="white" fill-opacity="0.08"/>
<path fill-rule="evenodd" clip-rule="evenodd" d="M570.078 106.258L517.418 25.4241L660.078 20.9616L570.078 106.258ZM518.531 25.9926L570.19 105.309L658.473 21.6028L518.531 25.9926Z" fill="white" fill-opacity="0.08"/>
<path fill-rule="evenodd" clip-rule="evenodd" d="M567.742 464.757L454.19 373.243L656.089 393.473L567.742 464.757ZM456.193 374.048L567.747 463.97L654.547 393.947L456.193 374.048Z" fill="white" fill-opacity="0.08"/>
<path fill-rule="evenodd" clip-rule="evenodd" d="M454.191 373.243L649.553 335.871L656.089 393.473L454.191 373.243ZM649.025 336.64L458.448 373.09L655.379 392.821L649.025 336.64Z" fill="white" fill-opacity="0.08"/>
<path fill-rule="evenodd" clip-rule="evenodd" d="M454.191 373.242L503.556 293.775L649.553 335.87L454.191 373.242ZM503.82 294.506L455.472 372.387L646.942 335.781L503.82 294.506Z" fill="white" fill-opacity="0.08"/>
<path fill-rule="evenodd" clip-rule="evenodd" d="M599.71 155.918L570.078 106.259L694.369 106.712L599.71 155.918ZM571.104 106.817L599.936 155.114L691.811 107.284L571.104 106.817Z" fill="white" fill-opacity="0.08"/>
<path fill-rule="evenodd" clip-rule="evenodd" d="M503.554 293.778L479.254 198.541L599.71 155.918L503.554 293.778ZM479.994 198.934L503.856 292.327L598.168 157.135L479.994 198.934Z" fill="white" fill-opacity="0.08"/>
<path fill-rule="evenodd" clip-rule="evenodd" d="M599.709 155.917L694.369 106.711L694.176 145.77L599.709 155.917ZM693.729 107.685L602.884 154.936L693.59 145.176L693.729 107.685Z" fill="white" fill-opacity="0.08"/>
<path fill-rule="evenodd" clip-rule="evenodd" d="M570.079 106.258L660.079 20.9617L694.37 106.711L570.079 106.258ZM659.822 22.0243L571.593 105.65L693.44 106.077L659.822 22.0243Z" fill="white" fill-opacity="0.08"/>
<path fill-rule="evenodd" clip-rule="evenodd" d="M656.089 393.472L649.553 335.871L681.705 364.538L656.089 393.472ZM650.376 337.411L656.564 392.042L680.828 364.565L650.376 337.411Z" fill="white" fill-opacity="0.08"/>
<path fill-rule="evenodd" clip-rule="evenodd" d="M694.178 145.77L694.371 106.711L732.535 121.835L694.178 145.77ZM694.959 107.655L694.79 144.662L731.158 122.023L694.959 107.655Z" fill="white" fill-opacity="0.08"/>
<path fill-rule="evenodd" clip-rule="evenodd" d="M694.37 106.711L725.436 106.791L732.534 121.836L694.37 106.711ZM725.053 107.445L697.616 107.356L731.353 120.735L725.053 107.445Z" fill="white" fill-opacity="0.08"/>
<path fill-rule="evenodd" clip-rule="evenodd" d="M503.555 293.777L599.711 155.918L649.552 335.872L503.555 293.777ZM599.5 157.335L504.559 293.415L648.696 334.984L599.5 157.335Z" fill="white" fill-opacity="0.08"/>
<path fill-rule="evenodd" clip-rule="evenodd" d="M599.711 155.916L694.178 145.769L725.356 220.485L599.711 155.916ZM693.756 146.375L601.808 156.295L724.114 219.158L693.756 146.375Z" fill="white" fill-opacity="0.08"/>
<path fill-rule="evenodd" clip-rule="evenodd" d="M694.37 106.712L660.078 20.9629L749.548 52.8055L694.37 106.712ZM661.178 22.0107L694.626 105.649L748.468 53.0715L661.178 22.0107Z" fill="white" fill-opacity="0.08"/>
<path fill-rule="evenodd" clip-rule="evenodd" d="M660.079 20.9624L748.501 24.2663L749.549 52.805L660.079 20.9624ZM747.946 24.9002L664.053 21.7371L748.951 51.9476L747.946 24.9002Z" fill="white" fill-opacity="0.08"/>
<path fill-rule="evenodd" clip-rule="evenodd" d="M725.436 106.791L694.37 106.711L749.549 52.8044L725.436 106.791ZM695.889 106.06L725.071 106.179L747.699 55.5152L695.889 106.06Z" fill="white" fill-opacity="0.08"/>
<path fill-rule="evenodd" clip-rule="evenodd" d="M649.552 335.871L599.711 155.917L725.356 220.485L649.552 335.871ZM600.667 157.079L649.768 334.41L724.459 220.685L600.667 157.079Z" fill="white" fill-opacity="0.08"/>
<path fill-rule="evenodd" clip-rule="evenodd" d="M660.078 20.9616L646.449 -51.7275L748.5 24.2654L660.078 20.9616ZM647.326 -50.2689L660.586 20.3657L746.525 23.5953L647.326 -50.2689Z" fill="white" fill-opacity="0.08"/>
<path fill-rule="evenodd" clip-rule="evenodd" d="M748.5 24.2654L646.449 -51.7275L775.769 -18.6819L748.5 24.2654ZM649.307 -50.385L748.344 23.3726L774.808 -18.3144L649.307 -50.385Z" fill="white" fill-opacity="0.08"/>
<path fill-rule="evenodd" clip-rule="evenodd" d="M649.552 335.87L725.357 220.484L746.501 304.683L649.552 335.87ZM725.093 221.983L651.041 334.734L745.766 304.246L725.093 221.983Z" fill="white" fill-opacity="0.08"/>
<path fill-rule="evenodd" clip-rule="evenodd" d="M656.087 393.472L681.703 364.537L722.873 429.764L656.087 393.472ZM681.624 365.577L657.066 393.325L721.058 428.108L681.624 365.577Z" fill="white" fill-opacity="0.08"/>
<path fill-rule="evenodd" clip-rule="evenodd" d="M746.501 304.684L760.21 263.679L770.881 286.227L746.501 304.684ZM760.318 265.353L747.701 303.034L770.11 286.092L760.318 265.353Z" fill="white" fill-opacity="0.08"/>
<path fill-rule="evenodd" clip-rule="evenodd" d="M694.178 145.77L732.534 121.835L725.356 220.485L694.178 145.77ZM731.826 123.019L694.938 145.99L724.875 217.893L731.826 123.019Z" fill="white" fill-opacity="0.08"/>
<path fill-rule="evenodd" clip-rule="evenodd" d="M746.501 304.683L770.881 286.226L809.302 336.965L746.501 304.683ZM770.779 287.088L747.652 304.557L807.195 335.186L770.779 287.088Z" fill="white" fill-opacity="0.08"/>
<path fill-rule="evenodd" clip-rule="evenodd" d="M681.703 364.538L746.499 304.684L809.3 336.966L681.703 364.538ZM746.59 305.395L683.795 363.474L807.495 336.709L746.59 305.395Z" fill="white" fill-opacity="0.08"/>
<path fill-rule="evenodd" clip-rule="evenodd" d="M775.77 -18.6822L800.15 -37.1397L863.214 30.7136L775.77 -18.6822ZM800.054 -36.3205L776.873 -18.7706L860.057 28.1993L800.054 -36.3205Z" fill="white" fill-opacity="0.08"/>
<path fill-rule="evenodd" clip-rule="evenodd" d="M749.549 52.8057L748.5 24.267L863.212 30.7155L749.549 52.8057ZM749.081 24.9037L750.119 52.0425L858.24 31.0032L749.081 24.9037Z" fill="white" fill-opacity="0.08"/>
<path fill-rule="evenodd" clip-rule="evenodd" d="M748.501 24.2656L775.769 -18.6817L863.213 30.7141L748.501 24.2656ZM775.985 -17.9132L749.574 23.6927L860.596 29.9246L775.985 -17.9132Z" fill="white" fill-opacity="0.08"/>
<path fill-rule="evenodd" clip-rule="evenodd" d="M809.301 336.966L827.407 296.479L828.087 328.515L809.301 336.966ZM826.823 299.207L810.494 335.751L827.433 328.132L826.823 299.207Z" fill="white" fill-opacity="0.08"/>
<path fill-rule="evenodd" clip-rule="evenodd" d="M770.88 286.226L760.209 263.678L827.407 296.478L770.88 286.226ZM761.499 264.967L771.296 285.663L823.16 295.059L761.499 264.967Z" fill="white" fill-opacity="0.08"/>
<path fill-rule="evenodd" clip-rule="evenodd" d="M809.302 336.965L770.881 286.226L827.408 296.478L809.302 336.965ZM772.303 287.137L809.181 335.77L826.528 296.899L772.303 287.137Z" fill="white" fill-opacity="0.08"/>
<path fill-rule="evenodd" clip-rule="evenodd" d="M722.874 429.765L681.704 364.538L809.301 336.965L722.874 429.765ZM682.708 364.919L722.991 428.774L807.526 337.936L682.708 364.919Z" fill="white" fill-opacity="0.08"/>
<path fill-rule="evenodd" clip-rule="evenodd" d="M732.534 121.835L725.436 106.791L749.548 52.8045L732.534 121.835ZM726.136 106.786L732.354 120.022L747.337 59.3197L726.136 106.786Z" fill="white" fill-opacity="0.08"/>
<path fill-rule="evenodd" clip-rule="evenodd" d="M725.357 220.486L732.535 121.836L904.454 170.573L725.357 220.486ZM733.095 122.645L726.025 219.647L902.144 170.519L733.095 122.645Z" fill="white" fill-opacity="0.08"/>
<path fill-rule="evenodd" clip-rule="evenodd" d="M722.874 429.764L809.301 336.965L883.447 423.874L722.874 429.764ZM809.285 337.837L724.312 429.06L882.167 423.242L809.285 337.837Z" fill="white" fill-opacity="0.08"/>
<path fill-rule="evenodd" clip-rule="evenodd" d="M904.453 170.572L732.534 121.835L920.232 112.018L904.453 170.572ZM736.28 122.32L904.017 169.821L919.408 112.708L736.28 122.32Z" fill="white" fill-opacity="0.08"/>
<path fill-rule="evenodd" clip-rule="evenodd" d="M732.535 121.836L749.549 52.8046L920.232 112.019L732.535 121.836ZM749.98 53.5986L733.311 121.184L917.053 111.556L749.98 53.5986Z" fill="white" fill-opacity="0.08"/>
<path fill-rule="evenodd" clip-rule="evenodd" d="M749.548 52.8049L863.212 30.7146L920.231 112.019L749.548 52.8049ZM862.915 31.3791L751.886 52.9932L918.581 110.819L862.915 31.3791Z" fill="white" fill-opacity="0.08"/>
<path fill-rule="evenodd" clip-rule="evenodd" d="M809.304 336.966L828.089 328.515L883.45 423.875L809.304 336.966ZM827.825 329.27L810.285 337.169L879.476 418.291L827.825 329.27Z" fill="white" fill-opacity="0.08"/>
<path fill-rule="evenodd" clip-rule="evenodd" d="M863.212 30.7137L800.148 -37.1396L926.992 16.9034L863.212 30.7137ZM802.567 -35.4118L863.423 30.0391L925.004 16.7126L802.567 -35.4118Z" fill="white" fill-opacity="0.08"/>
<path fill-rule="evenodd" clip-rule="evenodd" d="M827.409 296.477L760.211 263.677L904.454 170.571L827.409 296.477ZM761.443 263.604L827.156 295.66L902.476 172.523L761.443 263.604Z" fill="white" fill-opacity="0.08"/>
</g>
<defs>
<clipPath id="clip0_3_5528">
<rect width="828" height="474" fill="white"/>
</clipPath>
</defs>
</svg>
