<svg width="1440" height="106" viewBox="0 0 1440 106" fill="none" xmlns="http://www.w3.org/2000/svg">
<path d="M-14.5372 24.5879L-21.2558 33.5985L-24.3448 33.1599L-24.2429 33.1537C-24.1962 33.15 -24.1511 33.1351 -24.1113 33.1104C-24.0716 33.0857 -24.0383 33.0518 -24.0143 33.0116L-23.5509 32.2332C-23.529 32.1979 -23.5213 32.1557 -23.5293 32.115C-23.5373 32.0743 -23.5605 32.0381 -23.5942 32.0139L-25.9665 30.2624C-25.9853 30.2487 -26.0066 30.2391 -26.0292 30.2341C-26.0518 30.2292 -26.0751 30.2291 -26.0976 30.2337C-26.1201 30.2384 -26.1413 30.2478 -26.1597 30.2612C-26.1781 30.2747 -26.1933 30.2919 -26.2044 30.3118L-26.5596 30.9389C-26.6132 31.0336 -26.6811 31.115 -26.7635 31.1829C-27.3772 31.6854 -27.8323 32.3104 -28.1288 33.0579H-31.1406C-31.0541 32.3722 -30.7669 31.7842 -30.2788 31.2941C-29.972 31.5577 -29.6898 31.5052 -29.4324 31.1366C-28.0897 29.2132 -26.7326 27.2527 -25.3611 25.2551C-25.353 25.2431 -25.3481 25.2291 -25.3471 25.2147C-25.346 25.2002 -25.3487 25.1857 -25.3549 25.1726C-25.3612 25.1595 -25.3707 25.1482 -25.3826 25.14C-25.3945 25.1317 -25.4084 25.1267 -25.4229 25.1254L-25.8121 25.1038L-25.7318 24.8937C-25.717 24.8542 -25.7177 24.8106 -25.7338 24.7721C-25.7499 24.7335 -25.7802 24.7029 -25.8183 24.6867L-26.0438 24.5879H-14.5372ZM-23.4521 27.0189C-23.4274 27.3402 -23.2616 27.5698 -22.9548 27.7078C-22.8621 27.751 -22.7838 27.8118 -22.72 27.89C-22.1537 28.5882 -21.4854 28.8178 -20.7152 28.5789L-19.943 27.0591L-19.2449 26.1509C-19.2312 26.1331 -19.2211 26.1127 -19.2152 26.091C-19.2093 26.0693 -19.2078 26.0468 -19.2106 26.0246C-19.2135 26.0025 -19.2208 25.9812 -19.2319 25.9621C-19.2431 25.9429 -19.258 25.9263 -19.2758 25.9131C-20.0604 25.3107 -21.4566 24.3068 -22.4018 25.2026C-23.0279 25.7957 -23.378 26.4011 -23.4521 27.0189Z" fill="#6B6B6B" fill-opacity="0.4"/>
<path d="M-26.0464 24.5911L-25.8209 24.6899C-25.7828 24.7061 -25.7526 24.7367 -25.7365 24.7752C-25.7204 24.8138 -25.7196 24.8574 -25.7345 24.8969L-25.8148 25.1069L-30.2815 31.2973C-30.7695 31.7874 -31.0568 32.3754 -31.1433 33.0611C-32.8402 33.2403 -34.5113 33.5337 -36.1568 33.9415C-36.2012 33.953 -36.2475 33.9546 -36.2924 33.946C-36.3373 33.9375 -36.3796 33.919 -36.4162 33.8921L-40.3331 31.0471C-40.3658 31.0222 -40.3893 30.9872 -40.4 30.9475C-40.4106 30.9078 -40.4077 30.8657 -40.3918 30.8278C-40.2847 30.5621 -40.1344 30.3088 -39.9408 30.0679C-37.1524 26.5711 -33.5239 24.7414 -29.0551 24.5787C-28.6289 24.5643 -27.626 24.5684 -26.0464 24.5911Z" fill="#9E9E9E"/>
<path d="M-14.5431 24.5879H-13.3848C-13.2303 24.6538 -13.1304 24.7516 -13.0851 24.8813C-13.0695 24.9273 -13.0676 24.9767 -13.0797 25.0234C-13.0918 25.0701 -13.1173 25.112 -13.1531 25.1439C-13.8594 25.772 -14.4731 26.4835 -14.9941 27.2784C-16.4521 29.3007 -17.904 31.3281 -19.3496 33.3607C-19.4608 33.5151 -19.433 33.7015 -19.2662 33.9198L-21.2617 33.5985L-14.5431 24.5879Z" fill="#9E9E9E"/>
<path d="M-13.3867 24.5935C-4.99698 24.5564 0.248146 24.5574 2.34867 24.5965C8.17145 24.7108 13.5896 28.9984 15.097 34.6698C15.931 37.8051 15.5882 42.2008 15.5603 45.7408L14.7634 45.2157C14.6832 45.1636 14.6225 45.0877 14.5904 44.9994C14.2753 44.116 14.1641 43.0719 13.8521 42.2873C12.9748 40.0941 11.8906 38.7658 10.7353 36.9186C10.6591 36.795 10.5469 36.7044 10.3986 36.6468C10.3058 36.6105 10.2254 36.5483 10.1669 36.4676C8.61317 34.3238 7.01307 33.5176 5.17202 32.0936C4.80958 31.8114 4.32151 31.5283 3.70783 31.2441C0.82579 29.9096 -1.84311 28.4887 -5.36149 28.0717C-7.78121 27.7875 -10.2143 27.6372 -12.6608 27.6207C-12.7558 27.6188 -12.8457 27.5799 -12.911 27.5126C-13.0068 27.4168 -14.5389 27.5002 -14.9961 27.284C-14.4751 26.4891 -13.8614 25.7776 -13.155 25.1495C-13.1193 25.1175 -13.0937 25.0756 -13.0817 25.0289C-13.0696 24.9822 -13.0715 24.9328 -13.0871 24.8869C-13.1324 24.7572 -13.2323 24.6594 -13.3867 24.5935Z" fill="#9E9E9E"/>
<path d="M-19.944 27.0546L-21.2012 26.0753C-21.243 26.043 -21.292 26.0212 -21.3439 26.0117C-21.3959 26.0022 -21.4494 26.0053 -21.4999 26.0208C-21.5504 26.0362 -21.5965 26.0635 -21.6343 26.1004C-21.6721 26.1373 -21.7005 26.1827 -21.7171 26.2329C-21.8757 26.7189 -22.1856 27.1215 -22.6469 27.4407L-23.4531 27.0144C-23.379 26.3966 -23.0289 25.7912 -22.4029 25.1981C-21.4576 24.3023 -20.0614 25.3062 -19.2768 25.9085C-19.259 25.9217 -19.2441 25.9384 -19.233 25.9575C-19.2218 25.9767 -19.2146 25.998 -19.2117 26.0201C-19.2088 26.0422 -19.2104 26.0648 -19.2162 26.0865C-19.2221 26.1082 -19.2322 26.1285 -19.2459 26.1464L-19.944 27.0546Z" fill="#9E9E9E"/>
<path d="M-25.8145 25.0977L-25.4253 25.1193C-25.4109 25.1206 -25.397 25.1256 -25.3851 25.1339C-25.3732 25.1422 -25.3636 25.1534 -25.3574 25.1665C-25.3511 25.1796 -25.3484 25.1941 -25.3495 25.2086C-25.3506 25.2231 -25.3554 25.237 -25.3636 25.249C-26.7351 27.2466 -28.0922 29.2071 -29.4349 31.1305C-29.6923 31.4991 -29.9744 31.5516 -30.2812 31.288L-25.8145 25.0977Z" fill="#9E9E9E"/>
<path d="M-19.9456 27.0541L-20.7178 28.5739C-21.488 28.4277 -22.1315 28.0498 -22.6484 27.4402C-22.1871 27.121 -21.8772 26.7184 -21.7186 26.2324C-21.702 26.1823 -21.6736 26.1368 -21.6358 26.0999C-21.5981 26.063 -21.552 26.0357 -21.5014 26.0203C-21.4509 26.0048 -21.3974 26.0017 -21.3455 26.0112C-21.2935 26.0207 -21.2446 26.0426 -21.2028 26.0749L-19.9456 27.0541Z" fill="#9E9E9E"/>
<path d="M31.4295 37.6794C33.567 37.6763 39.1952 38.0007 39.9366 40.8086C40.4401 42.7114 38.2561 44.0829 36.5418 43.0666C36.5048 43.0446 36.4742 43.0132 36.453 42.9757C36.4319 42.9381 36.4209 42.8957 36.4212 42.8526C36.4215 42.8095 36.4331 42.7673 36.4548 42.73C36.4765 42.6928 36.5075 42.6619 36.5448 42.6404L37.694 41.9886C37.7398 41.9631 37.7784 41.9263 37.8062 41.8817C37.834 41.8372 37.85 41.7862 37.8527 41.7335C37.8555 41.6809 37.845 41.6282 37.8221 41.5805C37.7992 41.5327 37.7647 41.4914 37.7218 41.4604C36.1433 40.3329 33.2087 40.3452 31.2997 40.2927C31.2758 40.2919 31.252 40.296 31.2297 40.3048C31.2074 40.3136 31.1872 40.3269 31.1701 40.344C31.1531 40.361 31.1396 40.3815 31.1305 40.404C31.1215 40.4265 31.117 40.4506 31.1175 40.475L31.2534 46.4985C31.254 46.5433 31.27 46.5864 31.2987 46.6207C31.3274 46.655 31.367 46.6784 31.4109 46.6869C34.954 47.3727 40.6625 46.9372 42.8989 43.8389C45.2497 40.5831 42.068 36.6693 39.2354 34.5842C33.4497 30.3276 26.3017 27.9212 19.1198 29.2124C19.0777 29.2204 19.0395 29.2424 19.0116 29.2749C18.9837 29.3074 18.9678 29.3485 18.9663 29.3913C18.9649 29.4341 18.9781 29.4761 19.0037 29.5104C19.0294 29.5447 19.0659 29.5693 19.1074 29.58L20.1422 29.8364C20.1762 29.8454 20.2067 29.8644 20.2299 29.8908C20.253 29.9173 20.2677 29.9501 20.272 29.985C20.2763 30.0199 20.2701 30.0553 20.2541 30.0866C20.2381 30.1179 20.2132 30.1438 20.1824 30.1608C19.4781 30.5314 17.2169 30.621 17.5011 29.4348C18.0386 27.2139 21.6991 26.9451 23.5494 26.9358C30.7756 26.905 37.1132 29.2979 42.5622 34.1147C44.9006 36.1812 46.9146 39.3042 46.442 42.4766C45.4504 49.1118 36.4769 50.1219 31.4511 48.8276C31.4274 48.8215 31.4027 48.8209 31.3788 48.8258C31.3548 48.8307 31.3323 48.8409 31.313 48.8558C31.2936 48.8707 31.2779 48.8898 31.267 48.9117C31.2562 48.9336 31.2504 48.9577 31.2503 48.9821C31.2318 50.0488 30.65 50.47 29.505 50.2455C29.4053 50.2255 29.3164 50.1707 29.2548 50.091C28.7626 49.4712 28.5031 48.7576 28.4764 47.9504C28.4754 47.9042 28.4613 47.8593 28.4355 47.8209C28.4098 47.7826 28.3736 47.7525 28.3312 47.7341C25.9547 46.7127 23.9644 45.2022 22.3601 43.2025C19.6727 39.851 26.7465 38.3281 28.5165 38.0161C28.5575 38.0089 28.5946 37.9878 28.6217 37.9562C28.6487 37.9247 28.664 37.8847 28.6648 37.8431C28.6936 36.2698 28.9129 34.7232 29.3227 33.2034C29.3419 33.1316 29.3791 33.0658 29.4309 33.0124C29.4827 32.959 29.5472 32.9198 29.6185 32.8984C29.6897 32.8771 29.7652 32.8743 29.8378 32.8904C29.9104 32.9064 29.9777 32.9408 30.0332 32.9903C31.1051 33.951 31.1947 35.9063 31.2657 37.525C31.2673 37.567 31.2854 37.6068 31.316 37.6356C31.3466 37.6645 31.3874 37.6802 31.4295 37.6794ZM22.7061 42.0905C23.5123 43.7431 26.5396 45.1579 28.254 45.7695C28.2707 45.7753 28.2885 45.7771 28.3061 45.7748C28.3236 45.7725 28.3404 45.7661 28.355 45.7563C28.3697 45.7464 28.3819 45.7332 28.3906 45.7178C28.3993 45.7024 28.4044 45.6852 28.4053 45.6676L28.6277 40.651C28.6286 40.6297 28.6252 40.6084 28.6179 40.5884C28.6105 40.5683 28.5993 40.55 28.5849 40.5345C28.5705 40.519 28.5533 40.5065 28.5341 40.4979C28.5149 40.4892 28.4942 40.4846 28.4733 40.4842C27.1728 40.4441 23.5679 40.685 22.7277 41.8218C22.6997 41.8599 22.6829 41.9052 22.679 41.9526C22.6752 42.0001 22.6846 42.0478 22.7061 42.0905Z" fill="#9E9E9E"/>
<path d="M-23.4531 27.0156L-22.6469 27.4419C-22.13 28.0515 -21.4865 28.4294 -20.7163 28.5756C-21.4865 28.8145 -22.1547 28.5848 -22.721 27.8867C-22.7849 27.8085 -22.8631 27.7477 -22.9558 27.7045C-23.2626 27.5665 -23.4284 27.3369 -23.4531 27.0156Z" fill="#9E9E9E"/>
<path d="M-14.9946 27.2715C-14.5375 27.4877 -13.0053 27.4043 -12.9096 27.5001C-12.8442 27.5674 -12.7543 27.6063 -12.6593 27.6082C-10.2128 27.6247 -7.77975 27.775 -5.36002 28.0592C-1.84165 28.4762 0.827255 29.8971 3.7093 31.2316C4.32298 31.5158 4.81104 31.7989 5.17348 32.0811C7.01453 33.5051 8.61464 34.3113 10.1684 36.4551C10.2268 36.5358 10.3073 36.598 10.4001 36.6343C10.5484 36.6919 10.6606 36.7825 10.7368 36.9061C11.8921 38.7533 12.9763 40.0816 13.8536 42.2748C14.1656 43.0594 14.2768 44.1035 14.5919 44.9869C14.624 45.0752 14.6847 45.1511 14.7649 45.2032L15.5618 45.7283L15.5495 60.7099C14.1388 62.4769 12.8991 64.3642 11.8303 66.3721C11.509 66.9775 10.7152 67.1969 10.5854 67.9228C10.5672 68.0219 10.5234 68.1136 10.4588 68.1884L7.32961 71.8551C7.32961 71.8551 7.32327 71.856 7.31599 71.8549C7.30871 71.8537 7.29937 71.8516 7.28946 71.8489L7.21223 71.8242C7.20588 71.8223 7.19918 71.8219 7.19264 71.823C7.1861 71.8241 7.1799 71.8267 7.17453 71.8306C7.16916 71.8344 7.16475 71.8395 7.16164 71.8454C7.15854 71.8512 7.15683 71.8577 7.15663 71.8643V71.9879C7.15665 72.0003 7.15385 72.0125 7.14847 72.0232C7.14309 72.034 7.13529 72.0431 7.12574 72.0497C5.09729 73.5118 2.6889 74.908 -0.0994492 76.2384C-0.354805 76.3599 -0.563828 76.434 -0.726517 76.4608C-0.827423 76.4773 -0.91803 76.5174 -0.998344 76.5813C-2.18143 77.5265 -3.24714 77.2238 -4.46421 77.4585C-7.23608 77.996 -10.0347 78.2648 -12.8601 78.2648C-12.8716 78.2649 -12.8827 78.2686 -12.8916 78.2753C-12.9005 78.282 -12.9068 78.2913 -12.9096 78.3018L-12.925 78.3791C-12.9258 78.3851 -12.9287 78.3906 -12.9332 78.3946C-12.9378 78.3985 -12.9437 78.4007 -12.9497 78.4007C-15.3406 78.4686 -17.6656 78.1124 -19.9247 77.3319C-20.0215 77.2989 -20.1193 77.2897 -20.2181 77.3041C-20.7 77.3762 -21.1304 77.2855 -21.5093 77.0322C-22.0901 76.643 -22.7573 76.6986 -23.3627 76.4855C-25.3706 75.7771 -27.2096 74.7732 -28.8797 73.4737C-29.5284 72.9702 -30.418 72.5501 -31.1254 71.8829C-32.5361 70.5608 -33.7686 69.2613 -34.823 67.9846C-34.8286 67.9781 -34.8321 67.9695 -34.8332 67.9597C-34.8343 67.9499 -34.8329 67.9393 -34.8291 67.929L-34.8013 67.8579L-34.8 67.8538L-34.8013 67.8486C-35.7713 66.5718 -36.5374 65.1859 -37.0996 63.6908C-37.3405 63.0514 -38.19 60.5802 -38.8047 60.2466L-32.0737 50.9672C-30.6188 52.0824 -32.4815 54.5845 -30.9802 56.4626C-32.3394 57.4603 -33.019 58.7268 -32.395 60.4011C-32.5783 60.3969 -32.7132 60.4731 -32.7997 60.6296C-32.8223 60.6723 -32.8339 60.7201 -32.8333 60.7687C-32.8328 60.8172 -32.8202 60.865 -32.7966 60.9076C-29.964 65.9365 -26.3653 68.1761 -21.4352 70.8419C-21.3854 70.8697 -21.3429 70.9089 -21.3112 70.9562C-21.2795 71.0034 -21.2596 71.0574 -21.253 71.1137C-21.0573 72.6994 -20.4045 74.0606 -19.2945 75.1974C-19.2161 75.2778 -19.1146 75.3318 -19.0042 75.3518C-17.2167 75.6916 -16.1798 74.976 -15.8935 73.205C-15.8876 73.1685 -15.8744 73.1336 -15.8545 73.1025C-15.8347 73.0713 -15.8088 73.0446 -15.7783 73.0241C-15.7479 73.0035 -15.7136 72.9894 -15.6776 72.9828C-15.6416 72.9762 -15.6047 72.9772 -15.5692 72.9857C-8.05054 74.7433 1.18558 74.0977 7.09484 68.4881C8.17291 67.4656 8.93899 65.9365 9.85024 64.6639C9.90829 64.5817 9.93661 64.4836 9.93055 64.3859C9.91614 64.1676 9.83685 63.9719 9.6927 63.799C12.2597 58.0503 10.1684 52.7249 6.19286 48.2335C-0.334206 40.8538 -9.74023 36.0504 -19.2667 33.9128C-19.4335 33.6946 -19.4613 33.5082 -19.3501 33.3537C-17.9045 31.3212 -16.4526 29.2938 -14.9946 27.2715Z" fill="#9E9E9E"/>
<path d="M45.6826 34.9336C42.9488 31.0136 50.6868 27.0566 53.0406 29.5495C53.1088 29.6215 53.2 29.6693 53.3001 29.6854C57.0316 30.297 54.1248 33.9636 52.5865 35.1251C51.1656 36.198 49.5284 36.5502 47.675 36.1815C47.6349 36.174 47.5938 36.1762 47.555 36.188C47.5162 36.1999 47.4811 36.221 47.4526 36.2495L46.7853 36.9167C46.7462 36.956 46.6939 36.9795 46.6382 36.9829C46.5826 36.9863 46.5273 36.9694 46.4826 36.9353C45.9081 36.4904 45.6651 35.92 45.7536 35.224C45.7656 35.1223 45.7404 35.0192 45.6826 34.9336ZM48.8303 31.0167C47.8449 31.1959 46.5444 32.3079 46.5506 33.2748C46.5503 33.2973 46.5572 33.3191 46.5705 33.3371C46.5837 33.3551 46.6026 33.3684 46.6243 33.3749C46.646 33.3815 46.6694 33.381 46.6912 33.3735C46.7129 33.3661 46.7318 33.352 46.7452 33.3335C47.3342 32.4747 48.0426 31.7334 48.8704 31.1094C48.9899 31.0208 48.9765 30.99 48.8303 31.0167ZM52.4815 31.199C51.2273 31.5326 49.099 32.9597 48.5028 34.2355C48.495 34.2525 48.4912 34.2712 48.4916 34.2899C48.4921 34.3087 48.4968 34.3271 48.5054 34.3438C48.5141 34.3605 48.5264 34.375 48.5415 34.3862C48.5565 34.3974 48.574 34.405 48.5924 34.4085C50.5261 34.7318 52.0737 34.1747 53.2352 32.7373C53.748 32.1071 53.5626 30.9086 52.4815 31.199Z" fill="#9E9E9E"/>
<path d="M-24.3527 33.16L-28.1367 33.0581C-27.8402 32.3105 -27.3851 31.6855 -26.7714 31.183C-26.689 31.1151 -26.621 31.0337 -26.5675 30.939L-26.2123 30.3119C-26.2012 30.2921 -26.1859 30.2748 -26.1675 30.2614C-26.1491 30.2479 -26.128 30.2385 -26.1055 30.2339C-26.083 30.2292 -26.0597 30.2293 -26.0371 30.2343C-26.0145 30.2392 -25.9931 30.2488 -25.9744 30.2625L-23.6021 32.014C-23.5684 32.0383 -23.5452 32.0744 -23.5372 32.1151C-23.5292 32.1558 -23.5369 32.1981 -23.5588 32.2333L-24.0222 33.0117C-24.0462 33.0519 -24.0794 33.0858 -24.1192 33.1105C-24.159 33.1353 -24.2041 33.1501 -24.2507 33.1538L-24.3527 33.16Z" fill="#9E9E9E"/>
<path d="M-40.157 38.2259L-42.5664 36.6258C-42.3543 34.7085 -41.7313 32.9416 -40.6976 31.325C-40.6869 31.3076 -40.6728 31.2925 -40.6561 31.2808C-40.6394 31.2691 -40.6204 31.2609 -40.6004 31.2569C-40.5804 31.2528 -40.5598 31.2529 -40.5398 31.2572C-40.5199 31.2615 -40.501 31.2699 -40.4844 31.2818L-36.9753 33.8178C-36.9331 33.848 -36.9011 33.8903 -36.8834 33.939C-36.8657 33.9878 -36.8632 34.0407 -36.8763 34.0909C-36.8893 34.1411 -36.9173 34.1862 -36.9565 34.2201C-36.9957 34.2541 -37.0442 34.2754 -37.0958 34.2812C-39.4146 34.5695 -40.435 35.8844 -40.157 38.2259Z" fill="#9E9E9E"/>
<path d="M67.341 43.6595C67.3694 43.7027 67.4118 43.7348 67.461 43.7504C67.5102 43.7661 67.5633 43.7643 67.6114 43.7455C67.6595 43.7267 67.6997 43.692 67.7253 43.6471C67.7508 43.6022 67.7602 43.5499 67.7518 43.4989C67.3647 41.2007 66.8488 38.9365 66.2042 36.7062C66.18 36.624 66.1782 36.5368 66.1991 36.4537C66.22 36.3707 66.2628 36.2947 66.3231 36.2338C66.3834 36.1729 66.4589 36.1293 66.5417 36.1075C66.6246 36.0857 66.7118 36.0866 66.7942 36.11C67.4017 36.283 67.9073 36.7258 68.3109 37.4383C69.6021 39.7056 70.0006 42.1727 69.5064 44.8395C69.0894 47.0976 67.4213 47.6783 66.0374 45.6365C65.2405 44.4606 64.5176 43.2106 63.8689 41.8864C63.8524 41.8539 63.8255 41.8277 63.7926 41.8119C63.7597 41.796 63.7225 41.7914 63.6867 41.7988C63.6509 41.8062 63.6185 41.8251 63.5945 41.8526C63.5705 41.8802 63.5562 41.9149 63.5539 41.9513C63.4952 42.9861 63.6342 46.9431 62.6179 47.4312C61.5831 47.9255 61.1383 46.2574 61.1228 45.4851C61.0765 43.3414 61.2896 39.9836 62.7631 38.2754C62.808 38.2229 62.8633 38.1802 62.9255 38.1501C62.9877 38.12 63.0555 38.1031 63.1246 38.1005C63.1936 38.0979 63.2625 38.1096 63.3268 38.1349C63.3911 38.1602 63.4495 38.1986 63.4983 38.2476C65.0953 39.8477 66.1363 41.8092 67.341 43.6595Z" fill="#9E9E9E"/>
<path d="M-30.2537 36.2054C-30.8942 36.6358 -31.3194 37.1506 -31.5295 37.7499C-33.0966 37.3936 -34.5969 37.4667 -36.0302 37.9692C-36.6809 37.8951 -37.1741 37.7694 -37.5098 37.5923C-38.0658 37.2999 -38.037 37.0868 -37.4233 36.9529C-35.0242 36.4257 -32.6343 36.1765 -30.2537 36.2054ZM-23.7328 36.7707L-24.3506 37.7221C-25.5862 37.5738 -26.6674 37.4925 -27.5941 37.478C-27.7918 37.4739 -27.8978 37.649 -27.9123 38.0032C-28.7175 37.4904 -29.4351 36.9076 -30.0653 36.2548C-27.9298 36.1312 -25.8189 36.3032 -23.7328 36.7707Z" fill="#6B6B6B" fill-opacity="0.4"/>
<path d="M-30.2512 36.2051L-30.0628 36.2545C-29.4326 36.9073 -28.7149 37.4901 -27.9097 38.0029C-27.9365 38.3818 -28.1651 38.7257 -28.5955 39.0346C-29.0856 38.8143 -29.4655 38.5002 -29.7353 38.0925C-29.7555 38.0623 -29.7827 38.0376 -29.8146 38.0204C-29.8464 38.0032 -29.8821 37.994 -29.9183 37.9937C-29.9545 37.9934 -29.9903 38.002 -30.0225 38.0187C-30.0546 38.0353 -30.0823 38.0596 -30.1029 38.0894L-31.0667 39.498L-32.0706 38.9327C-32.1921 38.5579 -32.0109 38.1635 -31.5269 37.7496C-31.3169 37.1503 -30.8916 36.6355 -30.2512 36.2051ZM-42.5609 36.6283L-40.1514 38.2284C-39.6881 38.6917 -39.2083 38.9605 -38.712 39.0346C-38.5925 39.2199 -38.4412 39.3548 -38.2579 39.4393C-38.2157 39.4594 -38.1789 39.4892 -38.1505 39.5262C-38.122 39.5633 -38.1027 39.6065 -38.0942 39.6524C-38.0509 39.8933 -37.5381 41.2124 -37.844 41.3606C-37.8862 41.3816 -37.9337 41.3896 -37.9804 41.3835C-38.0272 41.3775 -38.071 41.3577 -38.1065 41.3266C-39.5048 40.1178 -41.0308 39.0974 -42.6844 38.2654C-42.7503 37.763 -42.7091 37.2172 -42.5609 36.6283Z" fill="#9E9E9E"/>
<path d="M-23.7298 36.7578C-16.3286 38.1993 -9.51525 41.0392 -3.28987 45.2773C0.951332 48.1624 5.80107 52.9905 5.9895 58.3932C5.75783 58.0534 5.56322 57.7631 5.46437 57.3491C4.5562 53.5188 1.62473 50.266 -1.55385 47.8906C-4.46987 45.6171 -7.61036 43.7122 -10.9753 42.1759C-13.5763 40.8847 -16.2833 39.8715 -19.0963 39.1363C-20.2598 38.8316 -21.3636 38.5227 -22.4077 38.2096C-22.5039 38.1799 -22.607 38.1812 -22.7023 38.2133C-22.7977 38.2455 -22.8805 38.3069 -22.939 38.3888L-38.8011 60.2466L-41.9395 64.7782C-41.9648 64.8152 -42.001 64.8433 -42.0431 64.8588C-42.0852 64.8743 -42.131 64.8764 -42.1743 64.8647L-42.7148 64.7257V63.0267L-42.5326 62.9433C-42.4397 62.903 -42.3596 62.8378 -42.3009 62.7549L-24.3476 37.7092L-23.7298 36.7578Z" fill="#9E9E9E"/>
<path d="M80.3113 43.4406C80.3119 43.461 80.319 43.4807 80.3315 43.4968C80.3441 43.5129 80.3615 43.5246 80.3811 43.5301C80.4008 43.5356 80.4217 43.5347 80.4408 43.5275C80.46 43.5203 80.4763 43.5071 80.4874 43.49C81.4048 42.0104 84.9016 37.1421 86.9959 38.214C87.9566 38.7051 88.2717 40.5678 88.1728 41.4821C87.8423 44.4754 85.2136 48.0864 81.8126 47.586C81.7423 47.5755 81.6706 47.589 81.6094 47.6244C81.5481 47.6598 81.501 47.7149 81.4759 47.7806C80.4915 50.3548 79.7913 52.9897 79.3753 55.6854C79.3506 55.8481 79.293 55.9963 79.2024 56.1302C79.1751 56.1701 79.1399 56.204 79.0989 56.2298C79.058 56.2555 79.0121 56.2725 78.9643 56.2798C78.9165 56.287 78.8677 56.2843 78.821 56.2719C78.7742 56.2594 78.7306 56.2375 78.6927 56.2074C77.8586 55.5464 77.385 54.8308 77.2717 54.0606C76.8269 51.0581 77.8247 48.593 79.085 45.955C79.1064 45.9101 79.1186 45.8615 79.1207 45.8121C79.1228 45.7628 79.1149 45.7136 79.0973 45.6677C77.837 42.4768 79.6039 38.9924 82.1493 37.1235C82.1869 37.0957 82.2318 37.0793 82.2785 37.0766C82.3253 37.0738 82.3718 37.0848 82.4125 37.108C82.4531 37.1313 82.4861 37.1659 82.5074 37.2076C82.5286 37.2493 82.5373 37.2963 82.5323 37.3429C82.3161 39.5515 80.302 41.2566 80.3113 43.4406ZM86.3009 40.3114C85.2043 40.6049 83.4343 43.7155 82.9648 44.7596C82.9009 44.8975 82.9431 44.948 83.0914 44.9109C85.2372 44.3879 86.5048 43.0349 86.894 40.852C86.9077 40.7732 86.9013 40.6922 86.8754 40.6165C86.8494 40.5408 86.8049 40.4729 86.7457 40.419C86.6866 40.3651 86.6149 40.327 86.5371 40.3082C86.4593 40.2894 86.3781 40.2905 86.3009 40.3114Z" fill="#9E9E9E"/>
<path d="M-31.5316 37.7465C-32.0156 38.1604 -32.1968 38.5548 -32.0753 38.9296C-32.1288 38.9481 -32.168 38.9749 -32.1927 39.0099C-32.2184 39.0496 -32.228 39.0976 -32.2194 39.1437C-32.2107 39.1898 -32.1845 39.2305 -32.1463 39.257L-29.8512 40.8448C-29.8113 40.8717 -29.7647 40.8868 -29.7166 40.8884C-29.6686 40.8901 -29.621 40.8782 -29.5794 40.8541C-29.2458 40.6543 -29.0481 40.3732 -28.9863 40.0108L-28.6002 39.0315C-28.1698 38.7226 -27.9412 38.3787 -27.9144 37.9998C-27.9 37.6456 -27.7939 37.4706 -27.5962 37.4747C-26.6695 37.4891 -25.5884 37.5704 -24.3528 37.7187L-42.3061 62.7644C-42.3647 62.8473 -42.4449 62.9124 -42.5378 62.9528L-42.72 63.0362C-42.7983 61.5391 -42.755 60.046 -42.5903 58.5571C-42.1825 57.2412 -41.7315 57.1671 -40.9315 56.2002C-40.904 56.168 -40.8894 56.1267 -40.8905 56.084C-40.8917 56.0413 -40.9084 56.0002 -40.9377 55.9685C-41.4401 55.4063 -42.0343 55.0079 -42.72 54.7731V48.3634C-41.0828 46.683 -39.7206 44.3971 -38.3707 42.4603C-37.9506 41.8569 -37.6087 41.2103 -37.3451 40.5204C-37.3282 40.4764 -37.3 40.4377 -37.2637 40.4084C-37.2273 40.3791 -37.184 40.3602 -37.1382 40.3536C-36.5698 40.2671 -35.5195 40.2115 -35.5504 39.4177C-35.5513 39.3707 -35.568 39.3254 -35.5976 39.289C-35.6273 39.2526 -35.6683 39.2272 -35.7141 39.2169L-36.6316 39.0068L-35.6616 38.7628C-35.6162 38.751 -35.5755 38.7257 -35.5451 38.6903C-35.5147 38.655 -35.4961 38.6112 -35.4917 38.5651C-35.467 38.3036 -35.6472 38.1038 -36.0323 37.9658C-34.599 37.4634 -33.0988 37.3902 -31.5316 37.7465ZM-36.2455 45.0304C-36.3011 44.9954 -36.3649 45.0098 -36.437 45.0736C-36.4566 45.0907 -36.4721 45.112 -36.4822 45.1359C-36.4924 45.1599 -36.4969 45.1858 -36.4954 45.2118C-36.4939 45.2378 -36.4864 45.263 -36.4736 45.2857C-36.4608 45.3083 -36.443 45.3277 -36.4215 45.3424L-34.1388 46.9085C-34.0913 46.9406 -34.0349 46.9567 -33.9776 46.9545C-33.9204 46.9523 -33.8654 46.9318 -33.8206 46.8961C-33.6394 46.7499 -33.5982 46.6171 -33.697 46.4977C-33.5364 45.9396 -33.279 45.433 -32.9248 44.9779L-32.1865 44.2211C-32.1732 44.2076 -32.1631 44.1914 -32.1567 44.1736C-32.1504 44.1557 -32.148 44.1367 -32.1498 44.1179C-32.1515 44.0991 -32.1574 44.0808 -32.1669 44.0645C-32.1765 44.0482 -32.1895 44.0341 -32.205 44.0234L-34.6268 42.3399C-34.6639 42.3136 -34.7097 42.3028 -34.7542 42.3098C-34.7987 42.3167 -34.8384 42.3408 -34.8647 42.3769C-35.4001 43.1039 -35.9396 43.8092 -36.4833 44.4929C-36.6481 44.7009 -36.5688 44.8801 -36.2455 45.0304ZM-40.8975 50.8624C-40.7801 51.3443 -40.3724 51.5482 -40.1283 51.8138C-39.5352 52.4687 -38.8588 52.7045 -38.0989 52.5212L-37.4038 51.0787L-36.5574 50.118C-36.543 50.1018 -36.532 50.0828 -36.5254 50.0622C-36.5187 50.0415 -36.5165 50.0197 -36.5188 49.9982C-36.5211 49.9766 -36.528 49.9558 -36.5389 49.937C-36.5498 49.9183 -36.5646 49.9021 -36.5822 49.8894L-38.9267 48.1935C-38.9424 48.1821 -38.9602 48.1739 -38.9791 48.1696C-38.9981 48.1652 -39.0178 48.1648 -39.0371 48.1682C-39.0564 48.1717 -39.0749 48.179 -39.0915 48.1897C-39.108 48.2004 -39.1224 48.2143 -39.1337 48.2306L-40.8975 50.8624Z" fill="#6B6B6B" fill-opacity="0.4"/>
<path d="M52.8877 40.4066C52.8482 40.4195 52.8144 40.4458 52.7921 40.4809C52.7698 40.516 52.7604 40.5577 52.7655 40.599C52.7706 40.6402 52.7899 40.6784 52.8201 40.707C52.8503 40.7356 52.8895 40.7528 52.9309 40.7557C54.3457 40.8772 55.7502 41.0172 57.1444 41.1758C59.387 41.4322 60.7585 42.0531 60.6411 44.5119C60.5886 45.5683 60.4002 46.1522 59.4117 46.668C57.237 47.7924 53.1534 48.0581 51.5996 45.5838C50.747 44.2215 51.578 42.9921 53.107 42.8253C54.7174 42.6482 56.263 42.9046 57.7436 43.5945C57.7995 43.6207 57.8476 43.661 57.8831 43.7114C57.9187 43.7618 57.9405 43.8206 57.9464 43.882C57.9523 43.9434 57.9422 44.0053 57.9169 44.0616C57.8916 44.1179 57.8521 44.1666 57.8023 44.203C56.5173 45.1204 55.0284 44.7837 53.663 44.132C53.1842 43.9034 52.5108 43.9652 52.3101 44.4625C52.2842 44.526 52.2724 44.5945 52.2756 44.663C52.2788 44.7316 52.297 44.7986 52.3287 44.8595C52.3604 44.9204 52.4051 44.9736 52.4595 45.0154C52.5139 45.0573 52.5767 45.0868 52.6437 45.1019C54.0615 45.4293 57.9104 45.5622 58.8309 44.1134C58.8833 44.0304 58.9164 43.9367 58.9278 43.8394C58.9392 43.742 58.9286 43.6434 58.8968 43.5511C58.8651 43.4587 58.8129 43.3749 58.7443 43.306C58.6756 43.237 58.5923 43.1846 58.5004 43.1527C57.2483 42.7141 55.9839 42.4979 54.7071 42.5041C53.1194 42.5102 49.8636 42.5905 50.9818 39.7456C52.032 37.0829 58.2996 37.3516 60.4372 37.8088C61.7377 38.0868 60.6813 39.3687 59.7669 39.4398C57.5119 39.6097 55.016 39.6714 52.8877 40.4066ZM73.9671 41.2808L76.636 41.2561C76.6835 41.2556 76.7307 41.2649 76.7745 41.2836C76.8183 41.3023 76.8579 41.3299 76.8906 41.3646C76.9234 41.3994 76.9487 41.4407 76.9649 41.4858C76.9812 41.5309 76.988 41.5789 76.985 41.6268L76.9078 42.7697C76.9041 42.8236 76.8809 42.8741 76.8427 42.9118C76.8045 42.9494 76.754 42.9714 76.7008 42.9736L73.2628 43.128C73.2088 43.1307 73.157 43.1503 73.1148 43.1842C73.0727 43.218 73.0423 43.2643 73.028 43.3165L72.6264 44.8239C72.6196 44.8488 72.6192 44.8751 72.6254 44.9002C72.6316 44.9253 72.6441 44.9484 72.6618 44.9673C72.6795 44.9862 72.7017 45.0003 72.7263 45.0082C72.7509 45.016 72.7772 45.0175 72.8025 45.0123C73.7756 44.8332 76.5557 44.0486 77.2538 44.7652C78.6994 46.2417 73.0867 48.9446 71.2426 47.6689C69.7877 46.6619 70.2263 44.9351 70.7483 43.3226C70.7767 43.2315 70.7809 43.1357 70.7607 43.0446L70.5445 42.084C70.5315 42.0256 70.5311 41.9652 70.5432 41.9066C70.5553 41.8481 70.5796 41.7928 70.6146 41.7443C70.6496 41.6959 70.6945 41.6554 70.7463 41.6255C70.7981 41.5957 70.8557 41.5772 70.9151 41.5712C71.3805 41.5279 71.6678 41.2849 71.777 40.8422C71.8017 40.7454 71.8408 40.6568 71.8944 40.5765L72.1724 40.1626C72.1851 40.1438 72.1929 40.1221 72.195 40.0995C72.1972 40.0769 72.1937 40.0541 72.1848 40.0332C72.1759 40.0123 72.1619 39.994 72.144 39.9799C72.1262 39.9658 72.1052 39.9564 72.0828 39.9525C71.4011 39.8269 70.9028 39.4501 70.5877 38.822C70.553 38.7536 70.5346 38.6781 70.5339 38.6014C70.5332 38.5247 70.5503 38.4488 70.5837 38.3795C70.6171 38.3103 70.6661 38.2495 70.7268 38.202C70.7874 38.1544 70.8582 38.1214 70.9337 38.1053C72.8942 37.6976 74.7785 37.4855 76.5866 37.469C77.8407 37.4566 78.7211 37.9447 78.8786 39.2143C78.8863 39.2784 78.8809 39.3434 78.8628 39.4054C78.8447 39.4674 78.8143 39.5251 78.7733 39.5751C78.7323 39.625 78.6817 39.6661 78.6244 39.6959C78.5671 39.7258 78.5044 39.7437 78.44 39.7487L74.4459 40.0545C74.3983 40.0582 74.3525 40.0748 74.3134 40.1025C74.2743 40.1302 74.2432 40.168 74.2235 40.212L73.8312 41.0646C73.8202 41.0876 73.8153 41.113 73.8168 41.1384C73.8183 41.1638 73.8262 41.1884 73.8398 41.21C73.8533 41.2316 73.8721 41.2494 73.8943 41.2617C73.9166 41.2741 73.9416 41.2807 73.9671 41.2808ZM48.1368 37.8613C48.1649 37.8028 48.2061 37.7514 48.2571 37.7112C48.3081 37.671 48.3676 37.643 48.431 37.6293C48.4945 37.6156 48.5603 37.6165 48.6233 37.6321C48.6863 37.6477 48.745 37.6775 48.7948 37.7192C49.357 38.1918 49.6257 38.859 49.6751 39.6436C49.8358 42.1735 50.086 44.8733 49.7956 47.397C49.7899 47.4474 49.7717 47.4957 49.7427 47.5377C49.7136 47.5797 49.6745 47.6142 49.6288 47.638C48.943 47.9942 48.3325 47.8975 47.797 47.3476C47.7211 47.2697 47.6752 47.1679 47.6673 47.0603C47.4974 44.6108 47.6302 42.26 47.6518 39.8166C47.6601 39.1659 47.8217 38.5141 48.1368 37.8613Z" fill="#9E9E9E"/>
<path d="M-28.5913 39.0233L-28.9774 40.0025C-29.6138 40.9292 -30.5065 39.8604 -31.0625 39.4866L-30.0987 38.0781C-30.0781 38.0483 -30.0505 38.024 -30.0183 38.0073C-29.9861 37.9907 -29.9504 37.9821 -29.9141 37.9824C-29.8779 37.9827 -29.8423 37.9919 -29.8104 38.0091C-29.7785 38.0263 -29.7513 38.051 -29.7311 38.0812C-29.4614 38.4889 -29.0814 38.8029 -28.5913 39.0233Z" fill="#9E9E9E"/>
<path d="M-10.9755 42.1791C-11.5964 43.0162 -12.1895 42.8711 -13.0606 43.1429C-13.7062 43.3468 -14.2004 43.4641 -14.9788 43.5043C-15.9529 43.5558 -16.7962 43.9007 -17.5087 44.5391L-18.3644 43.6464C-18.4196 43.589 -18.4882 43.5461 -18.564 43.5217C-18.6398 43.4973 -18.7205 43.492 -18.7988 43.5064C-18.8772 43.5208 -18.9507 43.5543 -19.0129 43.6041C-19.0751 43.6539 -19.124 43.7183 -19.1552 43.7916C-20.3414 46.5439 -20.3661 49.5866 -20.6194 52.5242C-20.6227 52.5684 -20.6408 52.6104 -20.6709 52.6439C-20.701 52.6773 -20.7415 52.7004 -20.7862 52.7095C-24.3632 53.4231 -27.9836 54.3467 -30.9768 56.4658C-32.4781 54.5876 -30.6154 52.0856 -32.0703 50.9704L-22.9392 38.392C-22.8807 38.3101 -22.7979 38.2487 -22.7025 38.2165C-22.6071 38.1843 -22.5041 38.1831 -22.4079 38.2128C-21.3638 38.5259 -20.26 38.8348 -19.0965 39.1395C-16.2834 39.8747 -13.5764 40.8879 -10.9755 42.1791Z" fill="#9E9E9E"/>
<path d="M-38.7115 39.0231C-38.0134 39.1322 -37.3184 39.124 -36.6264 38.9984L-35.709 39.2084C-35.6632 39.2188 -35.6222 39.2442 -35.5925 39.2806C-35.5628 39.317 -35.5462 39.3622 -35.5453 39.4092C-35.5144 40.2031 -36.5646 40.2587 -37.133 40.3452C-37.1788 40.3517 -37.2221 40.3706 -37.2585 40.3999C-37.2949 40.4292 -37.323 40.4679 -37.34 40.512C-37.6036 41.2018 -37.9454 41.8485 -38.3655 42.4519C-39.7154 44.3887 -41.0777 46.6745 -42.7148 48.355L-42.684 38.2539C-41.0303 39.0859 -39.5043 40.1063 -38.106 41.3151C-38.0706 41.3462 -38.0267 41.366 -37.9799 41.372C-37.9332 41.3781 -37.8857 41.3701 -37.8435 41.3491C-37.5377 41.2008 -38.0504 39.8818 -38.0937 39.6409C-38.1023 39.595 -38.1216 39.5517 -38.15 39.5147C-38.1785 39.4776 -38.2153 39.4479 -38.2574 39.4277C-38.4407 39.3433 -38.5921 39.2084 -38.7115 39.0231Z" fill="#9E9E9E"/>
<path d="M-32.0638 38.9219L-31.0598 39.4872C-30.5038 39.8609 -29.6111 40.9297 -28.9748 40.003C-29.0365 40.3655 -29.2342 40.6466 -29.5679 40.8463C-29.6095 40.8704 -29.657 40.8823 -29.7051 40.8807C-29.7532 40.8791 -29.7998 40.8639 -29.8397 40.8371L-32.1348 39.2493C-32.173 39.2227 -32.1992 39.1821 -32.2078 39.136C-32.2165 39.0899 -32.2069 39.0419 -32.1811 39.0022C-32.1564 38.9672 -32.1173 38.9404 -32.0638 38.9219Z" fill="#9E9E9E"/>
<path d="M-10.9668 42.1738C-7.6018 43.7101 -4.46131 45.615 -1.54529 47.8885C-1.39084 48.6031 -1.28272 49.3218 -1.22094 50.0446C-1.07885 51.7065 -0.701984 53.3468 -0.797745 55.0766C-0.803772 55.171 -0.839401 55.2617 -0.899681 55.3361L-1.57 56.1516C-2.73146 54.8789 -4.14314 53.9996 -5.80502 53.5136C-5.38492 52.5189 -5.99345 51.5273 -6.49078 50.4585C-6.97267 49.4268 -8.01675 48.877 -8.94345 48.3179C-9.06393 48.2468 -9.27398 48.2067 -9.29869 48.0306C-9.30338 47.9879 -9.31996 47.9472 -9.34665 47.9128C-9.37333 47.8785 -9.4091 47.852 -9.45005 47.836C-11.5722 47.0205 -14.2102 47.3016 -16.3725 47.8113C-16.5002 46.6827 -16.876 45.5903 -17.5 44.5338C-16.7875 43.8954 -15.9442 43.5505 -14.9701 43.499C-14.1917 43.4589 -13.6974 43.3415 -13.0518 43.1376C-12.1807 42.8658 -11.5876 43.0109 -10.9668 42.1738Z" fill="#9E9E9E"/>
<path d="M-32.9205 44.9807L-33.943 44.3444C-34.0361 44.287 -34.1463 44.264 -34.2546 44.2792C-34.3629 44.2944 -34.4624 44.347 -34.5361 44.4278L-35.469 45.444L-36.2412 45.0332C-36.5645 44.8829 -36.6438 44.7037 -36.4791 44.4957C-35.9354 43.812 -35.3959 43.1067 -34.8604 42.3798C-34.8342 42.3437 -34.7945 42.3195 -34.75 42.3126C-34.7055 42.3057 -34.6597 42.3165 -34.6226 42.3427L-32.2008 44.0262C-32.1853 44.037 -32.1723 44.051 -32.1627 44.0673C-32.1532 44.0837 -32.1473 44.1019 -32.1455 44.1207C-32.1438 44.1396 -32.1461 44.1586 -32.1525 44.1764C-32.1588 44.1942 -32.169 44.2104 -32.1823 44.2239L-32.9205 44.9807Z" fill="#9E9E9E"/>
<path d="M-32.9125 44.9795C-33.2667 45.4346 -33.5241 45.9412 -33.6848 46.4993C-34.3746 46.3222 -34.9667 45.97 -35.4609 45.4428L-34.5281 44.4266C-34.4544 44.3458 -34.3548 44.2932 -34.2465 44.278C-34.1383 44.2628 -34.0281 44.2858 -33.935 44.3432L-32.9125 44.9795Z" fill="#9E9E9E"/>
<path d="M-36.2381 45.0245L-35.4658 45.4353C-34.9716 45.9625 -34.3795 46.3146 -33.6897 46.4917C-33.5908 46.6112 -33.632 46.744 -33.8132 46.8902C-33.858 46.9259 -33.9131 46.9464 -33.9703 46.9486C-34.0275 46.9508 -34.084 46.9347 -34.1314 46.9026L-36.4142 45.3364C-36.4356 45.3218 -36.4535 45.3024 -36.4663 45.2798C-36.4791 45.2571 -36.4865 45.2318 -36.488 45.2059C-36.4895 45.1799 -36.485 45.154 -36.4749 45.13C-36.4648 45.106 -36.4493 45.0847 -36.4296 45.0677C-36.3575 45.0039 -36.2937 44.9894 -36.2381 45.0245ZM-5.8114 53.5192C-9.09192 52.436 -12.4589 52.0427 -15.9124 52.3392C-15.9328 52.3413 -15.9534 52.3393 -15.973 52.3332C-15.9926 52.3272 -16.0107 52.3172 -16.0263 52.3039C-16.0419 52.2906 -16.0546 52.2743 -16.0637 52.2559C-16.0728 52.2376 -16.0781 52.2176 -16.0792 52.1971L-16.3789 47.8169C-14.2166 47.3072 -11.5786 47.0261 -9.45642 47.8416C-9.41547 47.8576 -9.3797 47.8842 -9.35302 47.9185C-9.32633 47.9528 -9.30975 47.9935 -9.30506 48.0362C-9.28035 48.2123 -9.0703 48.2525 -8.94983 48.3235C-8.02312 48.8826 -6.97904 49.4325 -6.49716 50.4642C-5.99983 51.533 -5.3913 52.5246 -5.8114 53.5192Z" fill="#9E9E9E"/>
<path d="M-1.55469 47.8926C1.6239 50.268 4.55537 53.5207 5.46353 57.3511C5.56238 57.765 5.75699 58.0554 5.98867 58.3952C6.0906 68.5457 -9.20615 69.5928 -16.0421 68.2028C-16.086 68.1943 -16.1257 68.1709 -16.1544 68.1366C-16.1831 68.1022 -16.1991 68.0591 -16.1997 68.0143L-16.3047 57.9318L-16.0081 57.867C-16.0926 58.6351 -15.9608 59.3518 -15.6128 60.0169C-15.5906 60.06 -15.5587 60.0972 -15.5195 60.1256C-15.4803 60.1541 -15.435 60.1729 -15.3873 60.1806C-13.6842 60.4669 -12.0244 60.3392 -10.4078 59.7976C-9.88573 59.6215 -9.40076 59.671 -9.06715 59.0624C-9.04399 59.0208 -9.01206 58.9849 -8.97362 58.9571C-8.93518 58.9294 -8.89117 58.9105 -8.84474 58.9018C-8.5276 58.8462 -8.26401 58.7072 -8.05396 58.4848C-6.79982 58.6104 -5.69292 59.0737 -4.73327 59.8748L-6.76584 61.0456C-6.79559 61.0632 -6.82053 61.0879 -6.83844 61.1175C-6.85635 61.147 -6.86668 61.1806 -6.86851 61.2151C-6.87035 61.2497 -6.86362 61.2841 -6.84895 61.3154C-6.83427 61.3467 -6.81209 61.3739 -6.78437 61.3946L-6.43223 61.651C-6.70818 61.7869 -6.8441 62.0196 -6.83998 62.3491C-6.83898 62.3987 -6.82745 62.4474 -6.80614 62.4922C-6.78484 62.5369 -6.75425 62.5766 -6.71642 62.6086C-5.79795 63.3664 -4.793 63.5981 -3.70155 63.3036C-1.71429 62.7661 -0.754631 61.4409 -0.82259 59.3281C-0.631073 58.1501 -0.883339 57.0927 -1.5794 56.1557L-0.909084 55.3402C-0.848801 55.2658 -0.813175 55.1751 -0.807144 55.0807C-0.711384 53.3508 -1.08825 51.7106 -1.23034 50.0487C-1.29212 49.3259 -1.40024 48.6072 -1.55469 47.8926Z" fill="#9E9E9E"/>
<path d="M-37.4048 51.0709C-37.6931 50.6179 -38.0874 50.2945 -38.5879 50.101C-38.6309 50.0848 -38.6784 50.0846 -38.7219 50.1005C-38.7655 50.1163 -38.8022 50.1471 -38.8257 50.1875L-39.6443 51.6115L-40.8984 50.8547L-39.1346 48.2229C-39.1233 48.2066 -39.109 48.1927 -39.0924 48.182C-39.0758 48.1712 -39.0573 48.1639 -39.038 48.1605C-39.0187 48.157 -38.999 48.1575 -38.9801 48.1618C-38.9611 48.1662 -38.9433 48.1743 -38.9277 48.1858L-36.5831 49.8816C-36.5655 49.8943 -36.5507 49.9105 -36.5398 49.9293C-36.5289 49.948 -36.5221 49.9689 -36.5197 49.9904C-36.5174 50.012 -36.5196 50.0338 -36.5263 50.0544C-36.533 50.0751 -36.5439 50.0941 -36.5584 50.1102L-37.4048 51.0709Z" fill="#9E9E9E"/>
<path d="M-37.3894 51.0701L-38.0844 52.5126C-38.6754 52.3479 -39.1903 52.0472 -39.6289 51.6107L-38.8103 50.1866C-38.7868 50.1463 -38.7501 50.1155 -38.7065 50.0996C-38.663 50.0838 -38.6155 50.084 -38.5725 50.1001C-38.072 50.2937 -37.6777 50.617 -37.3894 51.0701Z" fill="#9E9E9E"/>
<path d="M-40.8984 50.8613L-39.6443 51.6181C-39.2057 52.0547 -38.6908 52.3554 -38.0998 52.5201C-38.8597 52.7034 -39.5362 52.4676 -40.1293 51.8127C-40.3733 51.5471 -40.7811 51.3432 -40.8984 50.8613Z" fill="#9E9E9E"/>
<path d="M65.1594 53.6009L63.6336 53.6249C63.562 53.626 63.5048 53.685 63.5059 53.7567L63.5286 55.2022C63.5298 55.2738 63.5888 55.331 63.6604 55.3298L65.1862 55.3059C65.2578 55.3047 65.315 55.2458 65.3139 55.1741L65.2912 53.7286C65.29 53.657 65.231 53.5998 65.1594 53.6009Z" fill="#9E9E9E"/>
<path d="M34.4098 56.7907L29.5693 63.9293C29.5597 63.9434 29.5468 63.9548 29.5317 63.9627C29.5166 63.9707 29.4999 63.9748 29.4828 63.9748C29.4658 63.9748 29.4491 63.9707 29.434 63.9627C29.4189 63.9548 29.406 63.9434 29.3964 63.9293L24.5837 56.8401C24.5709 56.8215 24.5524 56.8075 24.531 56.8002C24.5096 56.7929 24.4864 56.7927 24.4649 56.7997C24.4434 56.8066 24.4247 56.8203 24.4116 56.8387C24.3985 56.8571 24.3917 56.8793 24.3922 56.9019V67.7165C24.3922 67.7443 24.3811 67.771 24.3614 67.7907C24.3417 67.8104 24.315 67.8215 24.2871 67.8215H22.9527C22.9248 67.8215 22.8981 67.8104 22.8784 67.7907C22.8587 67.771 22.8477 67.7443 22.8477 67.7165V53.9488C22.8477 53.9209 22.8587 53.8942 22.8784 53.8745C22.8981 53.8548 22.9248 53.8438 22.9527 53.8438H24.386C24.4031 53.8438 24.4199 53.8481 24.435 53.8562C24.4501 53.8643 24.4629 53.8759 24.4725 53.8901L29.418 61.3469C29.4276 61.361 29.4405 61.3724 29.4556 61.3803C29.4707 61.3882 29.4874 61.3924 29.5045 61.3924C29.5215 61.3924 29.5383 61.3882 29.5533 61.3803C29.5684 61.3724 29.5813 61.361 29.591 61.3469L34.5488 53.8901C34.5584 53.8759 34.5712 53.8643 34.5863 53.8562C34.6014 53.8481 34.6182 53.8438 34.6353 53.8438H36.0285C36.0563 53.8438 36.083 53.8548 36.1027 53.8745C36.1224 53.8942 36.1335 53.9209 36.1335 53.9488L36.1304 67.7165C36.1304 67.7308 36.1275 67.745 36.1218 67.7581C36.1162 67.7713 36.1079 67.7832 36.0975 67.793C36.0871 67.8028 36.0747 67.8104 36.0613 67.8153C36.0478 67.8202 36.0335 67.8223 36.0192 67.8215L34.6291 67.7566C34.6153 67.7562 34.6017 67.7531 34.5892 67.7475C34.5766 67.7418 34.5652 67.7337 34.5557 67.7237C34.5463 67.7136 34.5389 67.7018 34.534 67.6889C34.5291 67.676 34.5268 67.6623 34.5272 67.6485L34.6013 56.8493C34.6011 56.827 34.5938 56.8053 34.5805 56.7874C34.5671 56.7695 34.5484 56.7564 34.5271 56.7498C34.5057 56.7433 34.4828 56.7437 34.4618 56.751C34.4407 56.7584 34.4225 56.7723 34.4098 56.7907Z" fill="#9E9E9E"/>
<path d="M-42.7159 54.7715C-42.0302 55.0062 -41.4361 55.4047 -40.9336 55.9669C-40.9044 55.9986 -40.8876 56.0397 -40.8865 56.0824C-40.8853 56.1251 -40.8999 56.1664 -40.9274 56.1986C-41.7275 57.1655 -42.1785 57.2396 -42.5862 58.5555C-42.7571 57.3014 -42.8004 56.04 -42.7159 54.7715Z" fill="#9E9E9E"/>
<path d="M-4.7205 59.8769C-5.68016 59.0758 -6.78705 58.6124 -8.04119 58.4868C-10.6689 57.9596 -13.3203 57.7537 -15.9954 57.869L-16.2919 57.9339L-16.3475 56.6952C-16.3484 56.6758 -16.3452 56.6563 -16.3383 56.6382C-16.3313 56.62 -16.3207 56.6035 -16.3071 56.5896C-16.2935 56.5757 -16.2772 56.5647 -16.2591 56.5574C-16.2411 56.55 -16.2218 56.5465 -16.2023 56.5469C-14.7073 56.5747 -4.07491 56.9269 -4.23244 59.2282C-4.25304 59.5247 -4.41572 59.7409 -4.7205 59.8769Z" fill="#9E9E9E"/>
<path d="M-20.6546 57.8526C-23.0702 58.3036 -29.2297 58.319 -30.9008 60.401C-31.5557 59.3878 -31.0121 58.77 -30.0421 58.3932C-27.0828 57.241 -23.861 56.9846 -20.7257 56.651C-20.706 56.6491 -20.6862 56.6516 -20.6676 56.6582C-20.6489 56.6648 -20.632 56.6754 -20.6179 56.6892C-20.6038 56.703 -20.5928 56.7197 -20.5858 56.7382C-20.5788 56.7567 -20.576 56.7765 -20.5774 56.7962L-20.6546 57.8526ZM49.6419 62.6622C49.6419 63.3664 49.5032 64.0637 49.2337 64.7143C48.9642 65.3649 48.5692 65.9561 48.0712 66.4541C47.5733 66.952 46.9821 67.347 46.3315 67.6165C45.6809 67.886 44.9836 68.0247 44.2794 68.0247C43.5751 68.0247 42.8778 67.886 42.2272 67.6165C41.5766 67.347 40.9854 66.952 40.4875 66.4541C39.9895 65.9561 39.5945 65.3649 39.325 64.7143C39.0555 64.0637 38.9168 63.3664 38.9168 62.6622C38.9168 61.24 39.4818 59.876 40.4875 58.8703C41.4931 57.8647 42.8571 57.2997 44.2794 57.2997C45.7016 57.2997 47.0656 57.8647 48.0712 58.8703C49.0769 59.876 49.6419 61.24 49.6419 62.6622ZM44.5533 66.6189C45.0446 66.5845 45.5239 66.448 45.9638 66.2171C46.4038 65.9862 46.7958 65.6654 47.1174 65.2732C47.439 64.8809 47.684 64.4247 47.8384 63.9308C47.9927 63.4369 48.0535 62.9148 48.017 62.3944C47.9436 61.3434 47.479 60.363 46.7255 59.6689C45.972 58.9748 44.9913 58.6238 43.9992 58.6931C43.5079 58.7275 43.0286 58.864 42.5887 59.0949C42.1487 59.3258 41.7568 59.6466 41.4351 60.0389C41.1135 60.4311 40.8685 60.8873 40.7141 61.3812C40.5598 61.8752 40.4991 62.3972 40.5355 62.9176C40.6089 63.9686 41.0735 64.949 41.827 65.6431C42.5805 66.3372 43.5612 66.6882 44.5533 66.6189ZM69.3065 58.9925C71.6448 56.1042 76.1363 57.0464 77.3286 60.4999C77.5922 61.266 77.7013 62.136 77.656 63.1101C77.6544 63.15 77.6375 63.1877 77.6087 63.2153C77.5799 63.243 77.5415 63.2584 77.5016 63.2584H69.7791C69.7564 63.2585 69.734 63.2635 69.7135 63.2733C69.6929 63.283 69.6747 63.2972 69.66 63.3148C69.6453 63.3324 69.6346 63.353 69.6285 63.3753C69.6224 63.3975 69.6211 63.4209 69.6246 63.4437C70.2146 66.9899 73.7515 67.5768 76.2444 65.3589C76.2869 65.3216 76.3417 65.3014 76.3986 65.302C76.4555 65.3025 76.5105 65.3239 76.5533 65.362L77.2174 65.9674C77.2344 65.9826 77.2481 66.0011 77.2578 66.0217C77.2675 66.0424 77.2729 66.0647 77.2738 66.0875C77.2746 66.1102 77.2709 66.133 77.2628 66.1543C77.2547 66.1756 77.2424 66.195 77.2267 66.2115C72.1391 71.5122 64.8645 64.4723 69.3065 58.9925ZM76.0281 61.8652C75.8088 57.4541 69.8316 57.7198 69.6524 61.8714C69.6516 61.891 69.6547 61.9105 69.6617 61.9289C69.6686 61.9472 69.6791 61.9639 69.6927 61.9781C69.7063 61.9922 69.7226 62.0035 69.7406 62.0112C69.7586 62.0188 69.778 62.0228 69.7976 62.0228H75.8768C75.8975 62.0228 75.9179 62.0186 75.9369 62.0106C75.9559 62.0026 75.973 61.9908 75.9872 61.976C76.0014 61.9613 76.0124 61.9438 76.0194 61.9248C76.0264 61.9057 76.0294 61.8854 76.0281 61.8652ZM81.4339 57.9916C83.0618 56.7993 85.5701 57.414 87.2103 58.3592C87.2569 58.3863 87.2909 58.4308 87.3048 58.4829C87.3187 58.535 87.3114 58.5905 87.2845 58.6372L86.7871 59.5114C86.775 59.5321 86.7588 59.5501 86.7395 59.5644C86.7203 59.5786 86.6985 59.5888 86.6753 59.5943C86.6522 59.5998 86.6282 59.6005 86.6049 59.5963C86.5817 59.5922 86.5596 59.5832 86.54 59.5701C85.4805 58.872 82.4286 57.8464 81.8077 59.6628C81.5276 60.4824 81.854 61.0508 82.7869 61.3679C84.1481 61.8333 85.2015 62.2235 85.9469 62.5386C88.7023 63.7063 87.8745 67.2154 85.1747 67.793C83.2595 68.2028 81.4813 67.8023 79.84 66.5914C79.8075 66.567 79.7852 66.5315 79.7778 66.4919C79.7703 66.4524 79.7782 66.4118 79.7998 66.3783L80.3558 65.5473C80.3806 65.5111 80.4178 65.4853 80.4601 65.475C80.5024 65.4647 80.5468 65.4707 80.5844 65.4917C82.0239 66.2794 83.4109 67.0424 85.048 66.4926C85.9294 66.196 86.2847 65.5875 86.1137 64.667C86.0936 64.5682 86.0453 64.478 85.9747 64.4075C84.6619 63.107 82.549 63.2615 81.1528 62.2019C79.6485 61.059 80.0284 59.0233 81.4339 57.9916ZM55.9002 65.8748L59.2178 57.6889C59.2421 57.628 59.2844 57.5759 59.339 57.5395C59.3936 57.5031 59.458 57.4841 59.5236 57.485L60.7715 57.5036C60.7954 57.5041 60.8189 57.5104 60.8397 57.5222C60.8605 57.5339 60.8782 57.5506 60.891 57.5708C60.9038 57.5909 60.9115 57.614 60.9133 57.6378C60.9151 57.6616 60.911 57.6856 60.9013 57.7074L56.5859 67.6355C56.5606 67.6923 56.5205 67.7413 56.47 67.7772C56.4194 67.8131 56.3602 67.8345 56.2987 67.8394L55.3658 67.9104C55.3066 67.9151 55.2474 67.9009 55.1964 67.8698C55.1454 67.8388 55.1053 67.7925 55.0816 67.7374L50.7292 57.6456C50.7207 57.6258 50.7175 57.6042 50.7198 57.5828C50.722 57.5614 50.7297 57.5409 50.742 57.5233C50.7544 57.5057 50.7711 57.4915 50.7904 57.4821C50.8098 57.4727 50.8313 57.4684 50.8528 57.4696L52.2243 57.5561C52.2816 57.5598 52.3366 57.5795 52.383 57.6128C52.4295 57.6461 52.4654 57.6918 52.4868 57.7445L55.7643 65.8748C55.77 65.888 55.7795 65.8992 55.7916 65.9071C55.8037 65.915 55.8178 65.9193 55.8322 65.9193C55.8467 65.9193 55.8608 65.915 55.8728 65.9071C55.8849 65.8992 55.8944 65.888 55.9002 65.8748Z" fill="#9E9E9E"/>
<path d="M65.0367 57.5352H63.7578C63.6845 57.5352 63.625 57.5946 63.625 57.668V67.6825C63.625 67.7559 63.6845 67.8154 63.7578 67.8154H65.0367C65.11 67.8154 65.1695 67.7559 65.1695 67.6825V57.668C65.1695 57.5946 65.11 57.5352 65.0367 57.5352Z" fill="#9E9E9E"/>
<path d="M-8.05233 58.4809C-8.26239 58.7033 -8.52598 58.8423 -8.84312 58.8979C-8.88955 58.9066 -8.93356 58.9255 -8.972 58.9532C-9.01044 58.981 -9.04237 59.017 -9.06553 59.0585C-9.39914 59.6671 -9.88411 59.6176 -10.4062 59.7937C-12.0227 60.3353 -13.6826 60.463 -15.3856 60.1767C-15.4334 60.169 -15.4787 60.1502 -15.5179 60.1218C-15.5571 60.0933 -15.589 60.0561 -15.6111 60.013C-15.9592 59.3479 -16.091 58.6312 -16.0065 57.8631C-13.3314 57.7478 -10.68 57.9537 -8.05233 58.4809Z" fill="#9E9E9E"/>
<path d="M-20.6561 57.8652C-20.5779 60.8245 -20.6777 63.7457 -20.9557 66.6287C-20.9576 66.6455 -20.9631 66.6616 -20.9721 66.6759C-20.981 66.6901 -20.9931 66.7022 -21.0074 66.7111C-21.0217 66.72 -21.0378 66.7256 -21.0545 66.7274C-21.0713 66.7292 -21.0882 66.7271 -21.104 66.7214C-24.1652 65.6125 -29.2343 63.2401 -30.9023 60.4137C-29.2312 58.3317 -23.0717 58.3162 -20.6561 57.8652Z" fill="#9E9E9E"/>
<path d="M-0.830177 59.3262C-0.762218 61.4391 -1.72187 62.7642 -3.70913 63.3017C-4.80058 63.5962 -5.80554 63.3645 -6.724 62.6067C-6.76184 62.5747 -6.79242 62.535 -6.81373 62.4903C-6.83503 62.4455 -6.84657 62.3968 -6.84756 62.3472C-6.85168 62.0177 -6.71577 61.785 -6.43982 61.6491C-5.46575 62.2751 -4.51948 62.445 -3.60102 62.1588C-2.33864 61.7655 -1.41503 60.8213 -0.830177 59.3262Z" fill="#9E9E9E"/>
<path d="M-38.7993 60.248C-38.1846 60.5817 -37.3351 63.0529 -37.0942 63.6923C-36.532 65.1874 -35.7659 66.5733 -34.7959 67.8501L-34.7946 67.8553L-34.7959 67.8594L-34.8237 67.9304C-34.8275 67.9408 -34.8289 67.9514 -34.8278 67.9612C-34.8267 67.971 -34.8232 67.9795 -34.8176 67.986C-33.7632 69.2628 -32.5307 70.5622 -31.12 71.8843C-30.4127 72.5515 -29.523 72.9717 -28.8743 73.4752C-27.2042 74.7746 -25.3652 75.7785 -23.3574 76.4869C-22.7519 76.7001 -22.0847 76.6445 -21.504 77.0337C-21.125 77.287 -20.6946 77.3776 -20.2128 77.3055C-20.1139 77.2911 -20.0161 77.3004 -19.9193 77.3333C-17.6602 78.1138 -15.3352 78.4701 -12.9443 78.4021C-12.9383 78.4022 -12.9324 78.4 -12.9279 78.396C-12.9233 78.392 -12.9204 78.3865 -12.9196 78.3805L-12.9042 78.3033C-12.9014 78.2928 -12.8951 78.2835 -12.8862 78.2768C-12.8773 78.2701 -12.8662 78.2664 -12.8547 78.2662C-10.0293 78.2662 -7.23069 77.9975 -4.45883 77.46C-3.24176 77.2252 -2.17605 77.5279 -0.992966 76.5827C-0.912651 76.5189 -0.822041 76.4787 -0.721134 76.4622C-0.558449 76.4355 -0.349426 76.3613 -0.0940666 76.2398C2.69427 74.9095 5.10267 73.5133 7.13111 72.0511C7.14067 72.0445 7.14847 72.0354 7.15385 72.0247C7.15923 72.0139 7.16203 72.0018 7.16201 71.9893V71.8658C7.1622 71.8592 7.16392 71.8527 7.16703 71.8468C7.17013 71.841 7.17454 71.8359 7.17991 71.832C7.18529 71.8281 7.19148 71.8255 7.19802 71.8244C7.20456 71.8233 7.21125 71.8237 7.21761 71.8256L7.29483 71.8503C7.30474 71.8531 7.31409 71.8552 7.32137 71.8563C7.32866 71.8574 7.33499 71.8565 7.33499 71.8565L10.4642 68.1899C10.5288 68.1151 10.5725 68.0234 10.5908 67.9242C10.7205 67.1983 11.5144 66.979 11.8357 66.3735C12.9045 64.3657 14.1442 62.4783 15.5548 60.7114C15.7134 65.5838 15.7216 68.75 15.5795 70.2101C15.0204 75.9587 11.1777 80.8826 5.58971 82.3931C4.42824 82.7061 2.51511 82.8647 -0.149666 82.8688C-9.66174 82.8853 -19.1646 82.8801 -28.6581 82.8534C-29.4098 81.9864 -30.3313 81.3974 -31.4228 81.0865C-32.5348 80.7714 -33.0599 80.3142 -33.9743 79.7736C-34.7136 79.3391 -35.319 78.9448 -35.7906 78.5906C-37.9282 76.9822 -39.9741 75.2513 -41.9285 73.3979C-43.022 70.729 -42.7409 67.5783 -42.7131 64.7271L-42.1725 64.8661C-42.1292 64.8778 -42.0834 64.8758 -42.0413 64.8603C-41.9993 64.8448 -41.9631 64.8166 -41.9377 64.7796L-38.7993 60.248Z" fill="#9E9E9E"/>
<path d="M-32.3937 60.4103C-30.2623 64.565 -25.2272 68.0525 -20.9613 69.9461C-20.9192 69.9648 -20.883 69.9944 -20.8564 70.0319C-20.8297 70.0694 -20.8137 70.1134 -20.8099 70.1592C-20.7018 71.367 -20.3249 73.4367 -19.2808 74.1657C-17.863 75.1603 -15.7625 73.7981 -16.2196 72.0404C-16.2327 71.989 -16.232 71.935 -16.2177 71.8839C-16.2034 71.8328 -16.1758 71.7863 -16.1378 71.7489C-16.0998 71.7115 -16.0526 71.6845 -16.0009 71.6706C-15.9491 71.6568 -15.8947 71.6565 -15.8428 71.6697C-7.04221 73.9958 4.90916 72.7911 9.69403 63.8082C9.83818 63.9812 9.91747 64.1768 9.93188 64.3951C9.93795 64.4929 9.90961 64.591 9.85157 64.6731C8.94031 65.9458 8.17424 67.4749 7.09618 68.4973C1.18691 74.107 -8.04922 74.7526 -15.5679 72.9949C-15.6034 72.9865 -15.6403 72.9855 -15.6763 72.9921C-15.7123 72.9987 -15.7466 73.0128 -15.777 73.0333C-15.8075 73.0539 -15.8334 73.0806 -15.8532 73.1117C-15.873 73.1429 -15.8863 73.1778 -15.8922 73.2142C-16.1785 74.9853 -17.2153 75.7009 -19.0028 75.3611C-19.1133 75.341 -19.2148 75.287 -19.2932 75.2067C-20.4032 74.0699 -21.056 72.7087 -21.2516 71.123C-21.2582 71.0667 -21.2782 71.0127 -21.3099 70.9654C-21.3416 70.9182 -21.3841 70.879 -21.4339 70.8512C-26.3639 68.1853 -29.9626 65.9458 -32.7952 60.9169C-32.8188 60.8742 -32.8315 60.8265 -32.832 60.7779C-32.8326 60.7294 -32.821 60.6816 -32.7983 60.6389C-32.7118 60.4824 -32.577 60.4062 -32.3937 60.4103ZM61.6665 74.9039C64.0574 73.3316 65.9139 74.0143 66.0468 77.0045C66.1085 78.3451 66.1096 79.6857 66.0498 81.0263C66.0475 81.0689 66.0292 81.109 65.9987 81.1383C65.9683 81.1676 65.928 81.1839 65.8861 81.1839H63.7763C63.7346 81.1839 63.6945 81.1673 63.6649 81.1377C63.6354 81.1082 63.6188 81.0681 63.6188 81.0263C63.6126 80.0935 63.8319 77.3164 63.3562 76.6307C62.5624 75.497 61.5955 76.6492 61.6017 77.6315C61.6079 78.7642 61.6048 79.8958 61.5924 81.0263C61.5924 81.0681 61.5758 81.1082 61.5463 81.1377C61.5167 81.1673 61.4766 81.1839 61.4349 81.1839H59.2849C59.244 81.1839 59.2047 81.1676 59.1757 81.1386C59.1467 81.1097 59.1305 81.0704 59.1305 81.0294V71.9169C59.1305 71.8759 59.1467 71.8366 59.1757 71.8077C59.2047 71.7787 59.244 71.7624 59.2849 71.7624H61.4194C61.4461 71.7624 61.4724 71.7677 61.497 71.778C61.5215 71.7883 61.5438 71.8033 61.5625 71.8223C61.5812 71.8413 61.5959 71.8638 61.6058 71.8885C61.6157 71.9132 61.6206 71.9397 61.6202 71.9663L61.5584 74.8452C61.5564 74.9338 61.5924 74.9534 61.6665 74.9039ZM28.0149 79.5622H24.6572C24.6385 79.5621 24.6203 79.5677 24.6049 79.5781C24.5894 79.5886 24.5775 79.6035 24.5707 79.6208L23.9652 81.1252C23.9584 81.1425 23.9465 81.1574 23.9311 81.1679C23.9156 81.1784 23.8974 81.1839 23.8787 81.1839L21.4323 81.187C21.417 81.1867 21.402 81.1827 21.3887 81.1753C21.3754 81.1679 21.3641 81.1573 21.3558 81.1444C21.3476 81.1316 21.3426 81.1169 21.3414 81.1017C21.3402 81.0865 21.3427 81.0712 21.3488 81.0572L25.136 72.1269C25.1433 72.1101 25.1554 72.0959 25.1708 72.086C25.1862 72.0761 25.2042 72.071 25.2225 72.0713H27.4929C27.5112 72.071 27.5291 72.0761 27.5445 72.086C27.5599 72.0959 27.5721 72.1101 27.5794 72.1269L31.3603 81.048C31.3664 81.062 31.369 81.0772 31.3678 81.0924C31.3665 81.1077 31.3616 81.1223 31.3533 81.1352C31.3451 81.148 31.3338 81.1586 31.3205 81.166C31.3071 81.1734 31.2922 81.1775 31.2769 81.1777L28.7254 81.187C28.7064 81.1868 28.6879 81.1808 28.6724 81.1697C28.6569 81.1587 28.6452 81.1431 28.6389 81.1252L28.1014 79.6239C28.0951 79.606 28.0834 79.5905 28.0679 79.5794C28.0524 79.5684 28.0339 79.5623 28.0149 79.5622ZM25.3893 77.406C25.3832 77.42 25.3806 77.4353 25.3818 77.4505C25.383 77.4657 25.388 77.4804 25.3962 77.4932C25.4045 77.5061 25.4158 77.5167 25.4291 77.5241C25.4424 77.5315 25.4574 77.5355 25.4727 77.5358L27.1191 77.579C27.1341 77.5794 27.149 77.5761 27.1625 77.5694C27.1759 77.5628 27.1875 77.5529 27.1964 77.5408C27.2052 77.5286 27.2109 77.5145 27.213 77.4996C27.2152 77.4848 27.2137 77.4696 27.2087 77.4555L26.4395 75.3735C26.4335 75.3557 26.4221 75.3402 26.4071 75.3291C26.392 75.3179 26.3739 75.3115 26.3552 75.3109C26.3364 75.3102 26.3179 75.3152 26.3021 75.3253C26.2863 75.3354 26.2739 75.35 26.2665 75.3673L25.3893 77.406Z" fill="#9E9E9E"/>
<path d="M-28.6476 82.8539C-34.7484 83.1103 -40.0707 79.1687 -41.918 73.3984C-39.9637 75.2518 -37.9177 76.9827 -35.7801 78.5911C-35.3085 78.9453 -34.7031 79.3396 -33.9638 79.7741C-33.0494 80.3147 -32.5243 80.7719 -31.4123 81.087C-30.3208 81.3979 -29.3993 81.9869 -28.6476 82.8539Z" fill="#9E9E9E"/>
<path d="M77.6388 75.2205C78.4604 74.6429 78.3183 74.1764 79.5539 74.0498C79.579 74.0472 79.6043 74.0499 79.6282 74.0577C79.6521 74.0655 79.6741 74.0783 79.6928 74.0952C79.7114 74.1121 79.7263 74.1328 79.7365 74.1558C79.7466 74.1789 79.7518 74.2038 79.7516 74.229V76.4345C79.7518 76.4852 79.7328 76.534 79.6984 76.5713C79.664 76.6085 79.6168 76.6314 79.5663 76.6353C77.1229 76.8268 77.4689 79.3196 77.5059 81.0155C77.5063 81.0364 77.5026 81.0573 77.4948 81.0767C77.4871 81.0962 77.4756 81.1139 77.4609 81.1289C77.4462 81.1439 77.4287 81.1557 77.4094 81.1638C77.3901 81.172 77.3693 81.1761 77.3484 81.1761H75.2046C75.1661 81.1761 75.1292 81.1608 75.102 81.1336C75.0747 81.1064 75.0594 81.0694 75.0594 81.0309L75.0409 74.4946C75.0405 74.4595 75.0471 74.4246 75.0605 74.392C75.0738 74.3594 75.0935 74.3298 75.1185 74.3048C75.1435 74.2798 75.1733 74.2599 75.2061 74.2464C75.2389 74.2328 75.2741 74.2259 75.3096 74.2259H77.3669C77.3879 74.2258 77.4086 74.2301 77.4278 74.2384C77.4471 74.2468 77.4643 74.2591 77.4786 74.2745C77.4928 74.2899 77.5037 74.308 77.5105 74.3279C77.5173 74.3477 77.52 74.3687 77.5183 74.3896L77.4781 75.1279C77.4678 75.2699 77.5214 75.3008 77.6388 75.2205ZM34.6923 74.9116C35.9434 74.0529 37.6052 73.4721 38.5845 75.0043C39.3196 76.1596 38.9706 79.505 39.0015 80.9815C39.0019 81.0061 38.9974 81.0305 38.9883 81.0534C38.9791 81.0762 38.9656 81.097 38.9483 81.1146C38.9311 81.1321 38.9105 81.146 38.8878 81.1556C38.8651 81.1651 38.8408 81.1699 38.8161 81.1699L36.7558 81.1885C36.7344 81.1889 36.7132 81.185 36.6934 81.1772C36.6735 81.1693 36.6554 81.1575 36.6402 81.1425C36.6249 81.1276 36.6128 81.1097 36.6046 81.09C36.5963 81.0704 36.5921 81.0492 36.5921 81.0279C36.5818 79.7325 36.5787 78.4454 36.5828 77.1666C36.5859 76.1781 35.0846 75.8939 34.717 76.7218C34.3463 77.5527 34.5688 80.0177 34.5688 81.0155C34.5688 81.0581 34.5522 81.099 34.5226 81.1291C34.4931 81.1592 34.453 81.1761 34.4112 81.1761H32.32C32.2798 81.1761 32.2413 81.1602 32.2129 81.1318C32.1845 81.1034 32.1686 81.0649 32.1686 81.0248L32.1562 74.3927C32.1562 74.3484 32.1738 74.306 32.2051 74.2747C32.2364 74.2434 32.2788 74.2259 32.3231 74.2259H34.3742C34.3959 74.2259 34.4175 74.2302 34.4375 74.2386C34.4576 74.247 34.4758 74.2594 34.491 74.2749C34.5063 74.2904 34.5183 74.3088 34.5263 74.3291C34.5343 74.3493 34.5383 74.3709 34.5379 74.3927L34.5348 74.8282C34.5327 74.958 34.5852 74.9858 34.6923 74.9116ZM69.5456 78.5474C70.1788 80.2 71.3465 79.2115 72.4276 78.9397C72.4793 78.9273 72.5332 78.9273 72.5848 78.9396C72.6363 78.952 72.6841 78.9763 72.7241 79.0107L73.7126 79.8757C73.726 79.8873 73.7369 79.9017 73.7444 79.9178C73.7519 79.9339 73.7559 79.9514 73.7562 79.9692C73.7565 79.987 73.753 80.0046 73.7461 80.0209C73.7391 80.0373 73.7287 80.052 73.7157 80.0641C72.2577 81.4274 70.705 81.726 69.0575 80.9599C65.4434 79.2795 66.818 73.6544 70.9943 74.1177C73.0125 74.3422 74.0339 75.6767 74.0586 78.1211C74.059 78.1566 74.0524 78.1919 74.039 78.2249C74.0257 78.2579 74.006 78.2878 73.981 78.3131C73.956 78.3384 73.9262 78.3585 73.8934 78.3722C73.8606 78.3859 73.8254 78.3929 73.7899 78.3929L69.6506 78.3991C69.6328 78.3991 69.6152 78.4033 69.5994 78.4115C69.5836 78.4197 69.57 78.4315 69.5597 78.446C69.5494 78.4606 69.5427 78.4774 69.5403 78.495C69.5378 78.5126 69.5396 78.5306 69.5456 78.5474ZM69.4869 76.6507C69.3098 76.939 69.3911 77.0832 69.7309 77.0832H71.5596C71.5798 77.0831 71.5997 77.0786 71.6179 77.07C71.6361 77.0614 71.6522 77.049 71.6649 77.0336C71.6776 77.0182 71.6867 77.0002 71.6915 76.981C71.6962 76.9618 71.6965 76.9419 71.6924 76.9226C71.4515 75.6746 70.1356 75.5974 69.4869 76.6507Z" fill="#9E9E9E"/>
<path d="M81.8288 80.783C78.0849 78.4477 81.2017 72.2419 85.4244 74.4907C86.7681 75.2043 87.2222 76.5572 87.2315 78.006C87.2319 78.0599 87.2215 78.1134 87.201 78.1632C87.1805 78.2131 87.1501 78.2583 87.1119 78.2963C87.0736 78.3343 87.0281 78.3643 86.9781 78.3844C86.9281 78.4046 86.8746 78.4146 86.8206 78.4137L82.7401 78.3612C82.7164 78.3613 82.6932 78.3674 82.6726 78.3789C82.652 78.3904 82.6347 78.407 82.6226 78.4269C82.6104 78.4469 82.6037 78.4696 82.6032 78.4927C82.6027 78.5159 82.6083 78.5387 82.6196 78.5589C83.4629 80.122 84.4236 79.3343 85.5727 78.9574C85.6237 78.9414 85.6781 78.9387 85.7305 78.9495C85.7829 78.9603 85.8317 78.9843 85.8723 79.0192L86.833 79.8378C86.8483 79.8505 86.8609 79.8662 86.8701 79.884C86.8792 79.9017 86.8846 79.9211 86.8861 79.941C86.8875 79.9609 86.8849 79.9809 86.8784 79.9998C86.872 80.0187 86.8618 80.0361 86.8484 80.0509C85.5881 81.5027 83.398 81.7591 81.8288 80.783ZM84.8097 76.6283C84.1548 75.5657 82.9285 75.7448 82.5331 76.8569C82.5236 76.8826 82.5205 76.9103 82.5241 76.9376C82.5276 76.9648 82.5377 76.9908 82.5535 77.0132C82.5693 77.0357 82.5903 77.054 82.6147 77.0666C82.6392 77.0792 82.6663 77.0857 82.6937 77.0855L84.5502 77.0916C84.6045 77.0922 84.658 77.0781 84.7049 77.0508C84.7519 77.0236 84.7907 76.9842 84.8172 76.9368C84.8438 76.8895 84.8571 76.8358 84.8557 76.7815C84.8544 76.7272 84.8385 76.6743 84.8097 76.6283ZM50.9079 77.453L51.9272 74.2312C51.9332 74.2122 51.9451 74.1956 51.9613 74.184C51.9774 74.1723 51.9969 74.1661 52.0168 74.1663L53.864 74.1694C53.884 74.1692 53.9034 74.1754 53.9196 74.187C53.9357 74.1987 53.9476 74.2153 53.9536 74.2343L54.9483 77.3727C54.9547 77.3912 54.9668 77.4071 54.9828 77.4183C54.9988 77.4295 55.0179 77.4353 55.0374 77.435C55.057 77.4346 55.0759 77.4281 55.0915 77.4164C55.1071 77.4047 55.1186 77.3883 55.1244 77.3696L55.9337 74.2837C55.9385 74.2636 55.95 74.2456 55.9662 74.2327C55.9824 74.2199 56.0025 74.2128 56.0232 74.2127L58.1763 74.2405C58.1907 74.2408 58.2048 74.2444 58.2175 74.2511C58.2303 74.2578 58.2413 74.2674 58.2497 74.2791C58.258 74.2908 58.2636 74.3043 58.2659 74.3185C58.2682 74.3327 58.2671 74.3472 58.2628 74.361L56.1931 81.2062C56.1876 81.2263 56.1754 81.2439 56.1586 81.2563C56.1418 81.2686 56.1213 81.2749 56.1005 81.2742L54.0834 81.234C54.064 81.2336 54.0452 81.2271 54.0297 81.2155C54.0142 81.2038 54.0027 81.1876 53.9969 81.1691L53.0084 77.799C53.0023 77.7805 52.9905 77.7643 52.9747 77.7529C52.9589 77.7414 52.9399 77.7353 52.9203 77.7353C52.9008 77.7353 52.8818 77.7414 52.866 77.7529C52.8502 77.7643 52.8384 77.7805 52.8323 77.799L51.8098 81.1784C51.804 81.1969 51.7926 81.2131 51.777 81.2247C51.7615 81.2364 51.7427 81.2429 51.7234 81.2433L49.7309 81.2711C49.7101 81.2718 49.6896 81.2655 49.6728 81.2532C49.656 81.2409 49.6438 81.2232 49.6383 81.2031L47.5656 74.3548C47.5612 74.341 47.5602 74.3265 47.5624 74.3123C47.5647 74.2981 47.5703 74.2846 47.5787 74.2729C47.5871 74.2612 47.5981 74.2516 47.6108 74.2449C47.6235 74.2382 47.6377 74.2346 47.652 74.2343H49.9225C49.9432 74.2344 49.9633 74.2415 49.9795 74.2544C49.9958 74.2672 50.0072 74.2852 50.012 74.3054L50.7287 77.4438C50.7328 77.4639 50.7435 77.4821 50.7591 77.4954C50.7746 77.5088 50.7942 77.5167 50.8147 77.5177C50.8352 77.5188 50.8555 77.513 50.8723 77.5013C50.8892 77.4896 50.9017 77.4726 50.9079 77.453ZM43.1174 78.145C43.1227 78.1592 43.1321 78.1714 43.1446 78.1801C43.157 78.1887 43.1718 78.1933 43.1869 78.1933C43.202 78.1933 43.2168 78.1887 43.2292 78.1801C43.2416 78.1714 43.2511 78.1592 43.2564 78.145L44.4611 74.4011C44.4763 74.3527 44.5069 74.3104 44.5486 74.2804C44.5903 74.2504 44.6408 74.2343 44.6928 74.2343H46.8118C46.8343 74.2343 46.8565 74.2398 46.8764 74.2503C46.8963 74.2608 46.9134 74.276 46.9261 74.2945C46.9389 74.313 46.947 74.3344 46.9497 74.3567C46.9523 74.379 46.9496 74.4017 46.9416 74.4227C46.2352 76.2906 45.5381 78.1543 44.8503 80.0138C43.8865 82.6271 42.722 84.3724 39.7287 82.76C39.6914 82.7407 39.6627 82.708 39.6484 82.6685C39.634 82.629 39.6352 82.5855 39.6515 82.5468L40.2261 81.1691C40.2438 81.1261 40.2766 81.0909 40.3185 81.07C40.3605 81.049 40.4088 81.0436 40.4547 81.0548L41.576 81.339C41.6257 81.3508 41.6777 81.3488 41.7264 81.3333C41.775 81.3177 41.8186 81.2892 41.8522 81.2507C41.8859 81.2123 41.9085 81.1654 41.9175 81.1151C41.9265 81.0648 41.9216 81.013 41.9034 80.9652L39.2963 74.3671C39.2903 74.3523 39.288 74.3362 39.2895 74.3203C39.2911 74.3043 39.2966 74.289 39.3054 74.2756C39.3142 74.2623 39.3261 74.2512 39.3401 74.2435C39.3542 74.2358 39.3699 74.2316 39.3859 74.2312L41.6316 74.2343C41.6852 74.2342 41.7374 74.2508 41.7807 74.2819C41.824 74.313 41.8561 74.3569 41.8725 74.4073L43.1174 78.145Z" fill="#9E9E9E"/>
<g clip-path="url(#clip0_3_6863)">
<path d="M185.619 42.2909H194.737V42.6433L193.269 44.1116C193.096 44.2631 192.96 44.451 192.868 44.6617C192.777 44.8724 192.733 45.1007 192.74 45.3302V68.25H192.388L175.15 52.422V64.2563C175.137 64.4831 175.177 64.7098 175.266 64.9187C175.355 65.1276 175.491 65.313 175.664 65.4603L177.133 66.9286V67.2809H168V66.9286L169.468 65.4603C169.644 65.3145 169.783 65.1298 169.875 64.9208C169.967 64.7118 170.008 64.4843 169.997 64.2563V41.1456H170.32L187.572 56.9296V45.3302C187.591 45.1034 187.558 44.8753 187.473 44.6638C187.389 44.4523 187.257 44.2632 187.088 44.1116L185.619 42.6433V42.2909ZM220.168 60.1892C220.168 65.0492 216.747 67.2809 211.153 67.2809H196.764V66.9286L198.232 65.4603C198.409 65.313 198.55 65.1259 198.642 64.9141C198.734 64.7024 198.774 64.472 198.76 64.2416V45.3302C198.774 45.0999 198.734 44.8694 198.642 44.6577C198.55 44.446 198.409 44.2589 198.232 44.1116L196.764 42.6433V42.2909H211.285C216.541 42.2909 219.155 44.787 219.155 49.045C219.112 50.2708 218.652 51.4453 217.851 52.3743C217.05 53.3034 215.956 53.9314 214.75 54.1546C218.112 54.7272 220.227 56.724 220.227 60.1304M204.369 52.1871H210.58C212.489 52.1871 213.517 51.2767 213.517 49.5295C213.517 47.7822 212.65 46.8572 210.58 46.8572H204.369V52.1871ZM214.471 59.5284C214.471 57.326 213.135 56.4598 210.477 56.4598H204.369V62.5678H210.477C212.738 62.5678 214.471 61.7896 214.471 59.5284ZM235.541 63.0376C231.297 63.0376 228.405 59.7781 228.405 54.9034C228.405 49.7351 231.606 46.6517 235.746 46.6517C236.884 46.5375 238.028 46.8062 238.996 47.4152C239.964 48.0242 240.701 48.9388 241.091 50.014L241.472 50.1168L243.572 41.5861L243.22 41.4393C242.543 42.0343 241.668 42.354 240.768 42.335C239.549 42.335 237.655 41.8651 235.379 41.8651C228.038 41.8651 222.311 46.7985 222.311 54.874C222.311 62.9495 227.95 67.7948 235.262 67.7948C237.006 67.8586 238.744 67.5572 240.365 66.9099C241.985 66.2626 243.453 65.2837 244.673 64.0361L241.414 60.0717C240.745 60.9993 239.861 61.7509 238.838 62.2624C237.816 62.7738 236.684 63.0297 235.541 63.0083M261.647 42.658L263.115 44.1262C263.289 44.2777 263.427 44.4652 263.521 44.6757C263.615 44.8861 263.662 45.1145 263.658 45.3449V57.6344C263.658 61.217 261.852 62.9789 258.681 62.9789C255.509 62.9789 253.644 61.3051 253.644 57.6344V45.3302C253.632 45.0986 253.675 44.8674 253.77 44.6556C253.864 44.4438 254.007 44.2574 254.188 44.1116L255.656 42.6433V42.3056H246.098V42.658L247.566 44.1262C247.744 44.2735 247.884 44.4606 247.976 44.6724C248.068 44.8841 248.108 45.1145 248.094 45.3449V57.4875C248.094 64.4031 252.499 67.7655 258.681 67.7655C264.862 67.7655 269.282 64.3591 269.282 57.4875V45.3302C269.268 45.0998 269.308 44.8694 269.4 44.6577C269.492 44.446 269.632 44.2589 269.81 44.1116L271.278 42.6433V42.3056H261.647V42.658ZM291.335 63.8158V56.6066C291.335 52.3192 289.206 49.8232 285.55 49.8232C284.381 49.7947 283.229 50.0982 282.225 50.6986C281.222 51.2989 280.41 52.1714 279.883 53.2149V50.1462H272.761V50.5279L274.23 51.9962C274.685 52.4514 274.758 52.745 274.758 53.6407V63.9186C274.758 64.8142 274.758 65.1079 274.23 65.5631L272.761 67.0313V67.3837H281.982V67.0313L280.514 65.5631C280.059 65.1079 279.985 64.8142 279.985 63.9186V58.0602C279.985 56.034 280.984 54.4335 283.23 54.4335C285.124 54.4335 286.005 55.8137 286.005 57.7959V67.2809H293.259V66.9286L291.79 65.4603C291.335 65.0051 291.276 64.7115 291.276 63.8158M302.465 63.8158V50.1462H295.27V50.5279L296.738 51.9962C297.194 52.4514 297.267 52.745 297.267 53.6407V63.9186C297.267 64.8142 297.267 65.1079 296.738 65.5631L295.27 67.0313V67.3837H304.55V67.0313L303.081 65.5631C302.626 65.1079 302.538 64.8142 302.538 63.9186M299.851 47.5914C300.26 47.5974 300.666 47.5208 301.045 47.3662C301.424 47.2115 301.767 46.982 302.055 46.6913C302.343 46.4006 302.57 46.0548 302.721 45.6746C302.872 45.2944 302.944 44.8876 302.934 44.4786C302.942 44.0715 302.868 43.667 302.716 43.2893C302.564 42.9116 302.337 42.5685 302.049 42.2806C301.761 41.9926 301.418 41.7658 301.04 41.6137C300.663 41.4616 300.258 41.3873 299.851 41.3953C299.419 41.3531 298.983 41.4019 298.57 41.5384C298.158 41.6749 297.779 41.8962 297.458 42.188C297.136 42.4798 296.879 42.8356 296.703 43.2326C296.527 43.6296 296.436 44.0591 296.436 44.4933C296.436 44.9276 296.527 45.357 296.703 45.754C296.879 46.151 297.136 46.5069 297.458 46.7987C297.779 47.0904 298.158 47.3117 298.57 47.4482C298.983 47.5847 299.419 47.6335 299.851 47.5914ZM324.224 50.1315H317.647L314.607 58.4126H314.519L311.039 50.1462H304.55V50.5279C305.712 51.4275 306.63 52.6036 307.222 53.949L314.211 68.0444H314.593L321.538 53.949C322.108 52.587 323.036 51.4048 324.224 50.5279V50.1315ZM341.08 58.7062C341.08 59.3082 341.08 59.8662 341.08 60.1745H329.231C329.411 61.1541 329.954 62.0298 330.752 62.626C331.549 63.2223 332.543 63.4952 333.533 63.39C334.207 63.4164 334.879 63.2991 335.505 63.046C336.13 62.7928 336.694 62.4096 337.16 61.9217L340.096 65.4162C338.102 66.9826 335.611 67.7799 333.078 67.6627C327.425 67.6627 323.828 64.2269 323.828 58.853C323.746 57.6312 323.926 56.406 324.356 55.2593C324.785 54.1125 325.455 53.0707 326.319 52.2034C327.184 51.3361 328.223 50.6634 329.369 50.2301C330.514 49.7968 331.739 49.613 332.961 49.691C338.643 49.691 341.139 53.4351 341.139 58.5741M335.78 56.9883C335.811 56.5603 335.752 56.1305 335.607 55.7266C335.462 55.3226 335.234 54.9533 334.939 54.6424C334.643 54.3314 334.285 54.0856 333.889 53.9207C333.493 53.7558 333.067 53.6754 332.638 53.6847C331.742 53.6689 330.875 54.0067 330.227 54.6251C329.578 55.2435 329.199 56.0926 329.173 56.9883H335.78ZM350.228 53.4645V50.1462H343.106V50.5279L344.575 51.9962C345.03 52.4514 345.103 52.745 345.103 53.6407V63.9186C345.103 64.8142 345.103 65.1079 344.575 65.5631L343.106 67.0313V67.3837H352.342V67.0313L350.874 65.5631C350.433 65.1079 350.36 64.8142 350.36 63.9186V58.6328C350.36 56.0633 351.622 54.6831 353.649 54.6831C354.592 54.6786 355.501 55.0359 356.189 55.6816L357.569 50.3224C356.879 49.9841 356.12 49.8131 355.352 49.8232C354.208 49.8445 353.1 50.2205 352.179 50.8991C351.259 51.5776 350.572 52.5254 350.213 53.6113M368.566 56.7828C366.217 56.401 364.455 56.401 364.455 55.0062C364.455 54.2133 365.116 53.6847 366.658 53.6847C368.743 53.6847 370.681 54.3748 371.4 55.9605L371.767 56.0633L373.426 49.5295L373.074 49.3974C372.435 49.9679 371.611 50.2863 370.754 50.293C369.594 50.293 368.522 49.8378 366.349 49.8378C362.59 49.8378 359.008 51.1886 359.008 55.432C359.008 58.7503 361.651 60.0277 364.176 60.4535C366.702 60.8793 368.449 60.938 368.449 62.3622C368.449 63.1845 367.729 63.8305 366.202 63.8305C364.138 63.8491 362.131 63.1541 360.52 61.863L358.068 65.519C360.333 67.1207 363.063 67.9309 365.835 67.8242C370.769 67.8242 373.823 65.6512 373.823 61.8336C373.823 58.5447 371.033 57.2673 368.464 56.8268M392.44 65.5043L393.909 66.9726V67.325H386.773V64.9611C386.236 65.8778 385.454 66.627 384.515 67.1249C383.577 67.6228 382.518 67.8497 381.458 67.7802C380.768 67.8347 380.074 67.7463 379.419 67.5205C378.764 67.2947 378.164 66.9364 377.654 66.4679C377.144 65.9994 376.736 65.4308 376.456 64.7977C376.176 64.1645 376.029 63.4804 376.025 62.788C376.025 58.9852 378.639 57.2233 384.35 57.1058C386.186 57.1058 386.67 56.6653 386.67 55.6375C386.67 54.6097 385.833 53.8903 383.616 53.8903C382.828 53.8954 382.049 54.0638 381.329 54.3847C380.609 54.7056 379.963 55.1722 379.432 55.755L376.642 52.466C377.664 51.5466 378.859 50.8396 380.157 50.3859C381.456 49.9322 382.831 49.7409 384.203 49.8232C389.621 49.8232 391.971 52.0696 391.971 56.4598V63.8011C391.971 64.6968 392.044 64.9904 392.499 65.4456M386.729 59.5725C386.008 59.7483 385.269 59.8419 384.527 59.8515C382.163 59.9983 381.34 60.8646 381.34 62.0392C381.327 62.2977 381.369 62.5561 381.463 62.7973C381.557 63.0385 381.701 63.2571 381.885 63.4388C382.07 63.6204 382.291 63.761 382.533 63.8513C382.776 63.9416 383.035 63.9795 383.293 63.9626C383.734 64.008 384.18 63.96 384.601 63.8218C385.022 63.6836 385.409 63.4583 385.737 63.1605C386.065 62.8627 386.327 62.4991 386.506 62.0934C386.684 61.6878 386.775 61.249 386.773 60.8058L386.729 59.5725ZM403.13 65.4456C402.66 64.9904 402.586 64.6968 402.586 63.8011V40.25H395.362V40.6024L396.831 42.0707C397.286 42.5258 397.359 42.8195 397.359 43.7004V63.8158C397.359 64.7115 397.286 65.0051 396.831 65.4603L395.362 66.9286V67.2809H404.568V66.9286L403.13 65.4456Z" fill="#6B6B6B" fill-opacity="0.65"/>
</g>
<g clip-path="url(#clip1_3_6863)">
<path d="M667.754 48.2709C666.772 46.4921 664.656 45.1429 662.358 45.1429C660.337 45.1429 658.559 45.9707 658.559 48.1172C658.559 49.9246 660.797 51.1506 663.127 52.6535C665.67 54.247 668.307 56.2072 668.307 59.6112C668.307 64.0558 663.985 66.7827 658.989 66.7827C656.935 66.7827 654.79 66.3845 652.369 65.4651L652.766 59.5491C653.932 61.9103 656.109 63.7789 659.325 63.7789C661.808 63.7789 663.646 62.5844 663.646 60.4991C663.646 58.7213 662.143 57.6185 660.306 56.5157C656.443 54.1869 653.993 52.3154 653.993 48.945C653.993 43.8864 658.222 42.2012 662.605 42.2012C665.147 42.2012 666.743 42.6614 668.366 42.6614L667.754 48.2709ZM646.331 53.572C645.777 54.4924 645.075 55.747 644.644 56.6684C644.277 58.4148 644.093 60.7455 644.093 63.3187C644.093 64.3919 644.277 65.8317 644.767 66.3225H638.362C639.494 65.2502 639.956 58.6621 639.895 56.5768C639.037 53.6045 637.87 50.7534 636.093 47.2894C634.962 45.1143 633.642 43.0585 632.815 42.6614C634.254 42.5402 636.093 42.4476 636.983 42.4476C638.576 42.4476 639.007 42.6614 639.988 44.8078C641.518 48.2719 642.652 50.8746 643.327 52.8072C644.952 50.2626 646.085 48.5163 647.557 46.1255C647.924 45.543 648.231 44.8078 648.231 44.1022C648.231 43.5494 648.138 42.9373 647.894 42.6614H654.239C653.013 42.9373 647.495 51.6118 646.331 53.572ZM624.049 48.2108L620.249 56.4536H626.439L624.049 48.2108ZM631.497 66.5363C629.473 66.5363 629.321 66.4762 627.696 60.8982L627.114 58.8444C626.135 59.3037 624.386 59.5185 621.598 59.5185H618.778L618.287 60.5602C617.583 62.1252 616.633 63.9612 616.633 65.2512C616.633 65.5577 616.663 65.8938 616.786 66.3234H600.051C601.002 65.2512 601.309 61.7881 601.768 55.5035L601.86 54.0026C602.105 50.4163 602.291 47.6579 602.259 45.7283C602.228 44.1347 602.075 43.1226 601.646 42.6634H608.114C607.193 43.369 606.855 47.1682 606.428 53.4527L606.304 54.9536C606.151 57.2834 605.845 59.6733 605.845 62.003C605.845 63.0742 606.274 63.3196 607.379 63.3196C611.3 63.3196 612.283 63.228 614.058 62.0326C615.161 60.0093 616.42 57.4647 617.644 54.8295L619.301 51.3053C620.863 47.995 622.395 44.6226 622.395 43.98C622.395 43.5188 622.273 43.0911 622.09 42.6614H627.239C627.239 42.6614 629.322 50.3858 629.782 52.0395L630.792 55.7795C632.539 62.0631 633.643 65.127 635.115 66.3225C633.887 66.4762 632.141 66.5363 631.497 66.5363ZM589.785 66.7827C583.686 66.7827 580.161 61.7566 580.161 56.1175C580.161 48.2719 584.42 42.2012 592.543 42.2012C595.086 42.2012 596.283 42.6614 598.335 42.6614L597.723 48.6996C596.558 46.5847 594.657 45.1439 592.114 45.1439C587.057 45.1439 585.004 50.6006 585.004 55.2897C585.004 60.3769 587.855 63.1649 591.654 63.1649C593.708 63.1649 595.515 62.613 598.55 60.4991C597.324 64.4234 594.473 66.7827 589.785 66.7827ZM568.638 45.543C568.056 45.543 567.349 45.543 566.799 45.6041C566.615 46.6152 566.461 48.3626 566.246 51.1811L566.123 52.8378C566.432 52.8998 566.829 52.9314 567.197 52.9314C570.138 52.9314 572.162 51.1516 572.162 48.4562C572.162 46.6152 570.875 45.543 568.638 45.543ZM577.188 67.3346C575.441 67.3346 575.012 67.0577 574.43 66.2604L567.81 57.0656C567.288 56.361 566.89 55.7785 566.063 55.7785H565.909L565.788 57.5564C565.633 59.9778 565.542 61.9103 565.542 63.3502C565.572 64.9438 565.757 65.9233 566.186 66.3225H559.781C560.699 65.4947 561.035 62.7362 561.557 55.5026L561.65 54.0016C561.895 50.4469 562.08 47.6875 562.048 45.7579C562.017 44.0716 561.834 43.029 561.373 42.6614H570.108C572.958 42.6614 576.881 43.1531 576.881 47.7801C576.881 51.5793 574.337 53.6646 571.181 54.6442C571.487 54.9211 572.038 55.6258 572.376 56.0555L577.188 62.4307C580.191 66.3845 580.436 66.5678 581.51 67.1198C580.161 67.2725 578.353 67.3346 577.188 67.3346ZM547.338 48.2108L543.505 56.4536H549.726L547.338 48.2108ZM554.784 66.5363C552.763 66.5363 552.609 66.4762 550.985 60.8982L550.402 58.8444C549.42 59.3037 547.674 59.5185 544.885 59.5185H542.065L541.575 60.5602C541.084 61.6649 539.889 63.9336 539.92 65.2512C539.92 65.5577 539.95 65.8642 540.073 66.3234H534.404C536.028 64.6993 538.082 60.9298 540.932 54.8305L542.587 51.3063C544.088 48.1191 545.683 44.5023 545.683 43.981C545.683 43.5198 545.562 43.0921 545.376 42.6624H550.527C550.527 42.6624 551.873 47.7811 553.069 52.0405L554.08 55.7805C555.828 62.0641 556.93 65.128 558.402 66.3234C557.084 66.4762 555.429 66.5363 554.784 66.5363ZM525.606 45.5125C525.146 45.5125 524.534 45.5125 523.951 45.5746C523.706 47.2292 523.552 48.8228 523.431 50.5691C523.431 50.5691 523.338 52.07 523.338 52.0089H523.951C526.955 52.0089 529.715 50.9673 529.715 48.2108C529.715 46.6152 528.396 45.5125 525.606 45.5125ZM524.841 54.8906H523.156L522.911 58.3842C522.789 59.9177 522.726 61.2038 522.696 62.7362C522.696 62.952 523.37 63.4113 524.963 63.4113C528.273 63.4113 530.45 61.7566 530.45 59.0277C530.45 55.9934 527.966 54.8906 524.841 54.8906ZM525.209 66.3225H516.934C517.976 65.402 518.252 61.8167 518.711 55.5026L518.803 54.0322C519.049 50.4459 519.233 47.6875 519.202 45.7579C519.172 44.1022 518.987 43.029 518.527 42.6614H527.783C529.99 42.6614 534.404 42.7846 534.404 47.381C534.404 50.4459 531.553 52.346 528.948 53.022C532.626 53.3896 535.384 55.1665 535.384 58.9666C535.383 63.0732 531.522 66.3225 525.209 66.3225Z" fill="#6B6B6B" fill-opacity="0.65"/>
<mask id="mask0_3_6863" style="mask-type:luminance" maskUnits="userSpaceOnUse" x="277" y="-62" width="301" height="195">
<path d="M277.945 111.108V-1.75269C277.946 -8.25113 282.773 -12.9422 289.142 -12.9422C282.773 -12.9422 277.61 -18.2127 277.61 -24.7081L277.58 -56.4445C277.58 -59.2906 279.841 -61.5957 282.624 -61.5957H556.887C568.451 -61.5957 577.825 -52.0333 577.825 -40.2388V121.668C577.825 127 573.586 132.462 568.356 132.462H298.883C287.314 132.462 277.945 119.863 277.945 111.108Z" fill="white"/>
</mask>
<g mask="url(#mask0_3_6863)">
<path d="M498.306 39.3438C497.486 39.3438 497.316 39.4867 497.05 39.7833C496.941 39.7768 496.831 39.7738 496.722 39.7745C496.091 39.7745 495.281 39.8671 494.59 40.3293C493.923 40.7698 493.606 41.5493 493.962 42.1199C493.962 42.1199 494.2 41.7701 494.984 41.7701C495.095 41.7701 495.217 41.7819 495.347 41.7928C496.431 41.9209 497.233 42.4915 497.136 43.9983C497.049 45.5042 496.484 47.1835 494.174 47.2032C494.174 47.2032 493.877 47.2032 493.559 47.1737C492.484 47.0564 492.146 46.3813 492.146 46.3813C492.146 46.3813 493.076 46.129 493.083 44.9493C493.076 44.1471 492.377 43.4129 491.369 43.1163C491.02 43.018 490.66 42.9696 490.298 42.9724C489.11 42.9724 487.775 43.4701 486.876 44.6448C484.836 47.3382 484.67 51.2645 485.168 54.9158C485.668 58.575 487.989 61.9642 488.057 62.0568C488.107 62.1219 488.151 62.1573 488.201 62.1573C488.231 62.1555 488.259 62.1433 488.281 62.1228C489.283 61.1501 490.239 59.8207 490.648 58.9318C491.086 59.2806 490.857 60.0227 490.617 60.815C490.388 61.6251 489.832 62.7003 489.631 63.0472C489.437 63.3862 489.177 63.7804 489.527 63.9864C489.568 64.0098 489.615 64.0214 489.662 64.0199C490.111 64.0199 491.169 63.2365 492.348 61.6636C493.669 59.8936 494.339 58.3227 494.339 58.3227C494.436 58.3444 494.597 58.508 494.571 58.9534C494.553 59.4058 494.088 61.089 493.182 62.656C492.266 64.222 491.421 65.2016 491.25 65.4243C491.145 65.5534 491.235 65.6342 491.303 65.6864C491.37 65.7318 492.989 67.2435 495.341 68.5207C498.128 70.0059 499.364 70.273 499.364 70.273C499.364 70.273 500.597 70.0128 503.384 68.5286C505.735 67.2494 507.361 65.7308 507.422 65.6795C507.49 65.6332 507.576 65.5603 507.474 65.4183C507.313 65.2055 506.465 64.221 505.551 62.655C504.648 61.0989 504.165 59.4048 504.159 58.9583C504.14 58.508 504.292 58.3592 504.384 58.3217C504.384 58.3217 505.061 59.9025 506.382 61.6626C507.567 63.2374 508.615 64.0189 509.066 64.0189C509.115 64.0205 509.164 64.009 509.206 63.9854C509.545 63.7795 509.293 63.3793 509.094 63.0443C508.909 62.6993 508.345 61.6311 508.106 60.8141C507.876 60.0129 507.637 59.2717 508.083 58.9308C508.493 59.8197 509.442 61.156 510.447 62.1149C510.458 62.1273 510.471 62.1374 510.486 62.1445C510.501 62.1516 510.517 62.1556 510.534 62.1563C510.578 62.1563 510.625 62.1218 510.667 62.0617C510.741 61.9631 513.066 58.5799 513.562 54.9148C514.061 51.2556 513.896 47.3382 511.854 44.6438C510.961 43.4662 509.616 42.9655 508.42 42.9655C508.046 42.9655 507.69 43.0138 507.363 43.1074C506.347 43.4129 505.652 44.1541 505.658 44.9484C505.658 46.128 506.592 46.3803 506.592 46.3803C506.592 46.3803 506.279 47.0386 505.166 47.1727C504.966 47.1974 504.764 47.2099 504.563 47.2101C503.725 47.2101 503.019 46.944 502.369 46.0255C501.738 45.1415 501.759 43.3213 501.722 42.7142C501.694 42.0983 501.562 40.7166 500.914 40.1529C500.269 39.5744 499.482 39.3802 498.502 39.3418C498.43 39.3438 498.366 39.3438 498.306 39.3438Z" fill="#6B6B6B" fill-opacity="0.65"/>
</g>
</g>
<g clip-path="url(#clip2_3_6863)">
<path d="M1121.12 67.3488C1121.12 66.45 1121.85 65.7246 1122.8 65.7246C1123.75 65.7246 1124.48 66.45 1124.48 67.3488C1124.48 68.2477 1123.75 69.0283 1122.8 69.0283C1121.85 69.0361 1121.12 68.3029 1121.12 67.3488ZM1121.46 67.3488C1121.46 68.0742 1122.07 68.6971 1122.86 68.6971C1123.59 68.6971 1124.21 68.1373 1124.21 67.3488C1124.21 66.6235 1123.59 66.0557 1122.86 66.0557C1122.02 66.0636 1121.46 66.6786 1121.46 67.3488Z" fill="#6B6B6B" fill-opacity="0.65"/>
<path d="M1123.64 68.3041H1123.3L1122.74 67.4604H1122.4V68.3041H1122.18V66.4512H1123.03C1123.19 66.4512 1123.37 66.4512 1123.48 66.5616C1123.64 66.6168 1123.7 66.7823 1123.7 66.9558C1123.7 67.2948 1123.41 67.4604 1123.08 67.4604L1123.64 68.3041ZM1122.75 67.2396C1123.04 67.2396 1123.37 67.2948 1123.37 66.9558C1123.37 66.735 1123.15 66.672 1122.92 66.672H1122.41V67.2318H1122.75V67.2396Z" fill="#6B6B6B" fill-opacity="0.65"/>
<path d="M1114.78 69.0421C1126.56 58.9498 1143.1 49.1413 1152.18 45.609C1150.78 44.7101 1148.59 43.4249 1146.13 42.0215C1134.41 45.8928 1120.73 54.4713 1108.5 64.1694C1110.58 65.7305 1112.77 67.3548 1114.78 69.0421Z" fill="#6B6B6B" fill-opacity="0.65"/>
<path d="M1109.41 41.6168C1107.67 40.7731 1105.76 39.9925 1104.3 39.3145C1099.87 41.4985 1094.1 44.81 1086.81 50.0218C1088.38 50.8654 1090.06 51.8746 1091.85 52.8839C1097.47 48.7366 1103.13 44.8179 1109.41 41.6168Z" fill="#6B6B6B" fill-opacity="0.65"/>
<path d="M1119.89 36.7967C1117.76 35.6219 1110.36 32.8701 1105.25 31.6953C1103.74 32.2551 1101.61 33.0988 1100.15 33.7138C1102.01 34.2184 1108.9 36.0713 1114.79 39.0438C1116.3 38.3105 1118.43 37.4117 1119.89 36.7967Z" fill="#6B6B6B" fill-opacity="0.65"/>
<path d="M1094.83 36.0703C1088.27 39.098 1081.37 43.2453 1077.61 45.658C1078.96 46.273 1080.3 46.7776 1082.15 47.6765C1090.45 42.0705 1096.95 38.6486 1099.53 37.529C1097.69 36.8588 1095.95 36.4094 1094.83 36.0703Z" fill="#6B6B6B" fill-opacity="0.65"/>
<path d="M1124.83 35.057C1126.34 34.5524 1128.08 34.103 1129.59 33.6536C1125.22 31.8007 1119.72 29.8374 1114.79 28.6074C1114.01 28.8282 1111.66 29.4511 1110.03 29.9557C1111.71 30.4603 1117.26 31.7534 1124.83 35.057ZM1097.19 56.1405C1098.99 57.2049 1100.89 58.6636 1102.74 59.8936C1115.01 50.3611 1127.13 43.0205 1140.42 38.8653C1138.57 37.9113 1136.94 37.0676 1134.87 36.0584C1126.9 38.0847 1113.28 43.5251 1097.19 56.1405Z" fill="#6B6B6B" fill-opacity="0.65"/>
<path d="M748.492 66.1219H757.465C762.006 66.1219 764.135 63.7645 764.135 60.4608C764.135 57.7721 762.732 55.9744 759.814 55.4146C762.393 54.7996 763.568 53.2306 763.568 50.9283C763.568 48.011 761.439 45.6614 756.897 45.6614H748.547V66.1219H748.492ZM756.282 57.4331C757.962 57.4331 759.144 58.2768 759.144 59.9562C759.144 61.7539 758.025 62.4793 756.282 62.4793H753.365V57.3779H756.282V57.4331ZM755.722 49.241C757.402 49.241 758.584 49.9664 758.584 51.6537C758.584 53.341 757.465 54.0664 755.722 54.0664H753.373V49.241H755.722ZM782.246 45.5983H777.2L769.52 66.1219H774.622L776.025 61.8643H783.429L784.832 66.1219H789.989L782.246 45.5983ZM779.723 50.5341L782.136 58.1033H777.2L779.723 50.5341ZM815.551 45.5983H810.899V59.3333L802.155 45.5983H796.943V66.1219H801.595V52.4421L810.339 66.1219H815.551V45.5983ZM837.021 66.1219L830.295 55.6906V66.1219H825.304V45.5983H830.295V55.4698L836.689 45.5983H842.24L835.515 55.4698L842.863 66.1219H837.021ZM860.517 55.8562C860.517 59.9483 862.985 62.4714 866.178 62.4714C869.371 62.4714 871.839 59.9483 871.839 55.8562C871.839 51.7641 869.371 49.241 866.178 49.241C862.985 49.241 860.517 51.7641 860.517 55.8562ZM855.25 55.8562C855.305 49.856 859.508 45.1489 866.186 45.1489C872.856 45.1489 877.067 49.856 877.122 55.8562C877.067 61.8564 872.864 66.5635 866.186 66.5635C859.508 66.5714 855.305 61.8564 855.25 55.8562ZM883.95 66.1219H888.941V58.0481H895.446V54.1216H888.941V49.5248H896.794L897.693 45.5983H883.95V66.1219ZM920.96 45.5983H915.914L908.234 66.1219H913.336L914.739 61.8643H922.143L923.546 66.1219H928.703L920.96 45.5983ZM918.437 50.5341L920.85 58.1033H915.914L918.437 50.5341ZM958.302 45.5983H952.467L947.137 56.6998L941.807 45.5983H935.973V66.1219H940.459V52.3869L947.074 66.1219L953.689 52.3869V66.1219H958.341L958.302 45.5983ZM968 66.1219H982.019V62.1954H972.991V57.5987H980.111V53.7825H972.991V49.5248H981.23L982.129 45.5983H968V66.1219ZM1001.02 66.1219H1006.46L1001.36 57.4331C1004.17 56.6447 1005.51 54.6893 1005.51 51.8271C1005.51 48.1293 1003.27 45.6614 998.222 45.6614H990.313V66.185H995.194V58.1112H996.542L1001.02 66.1219ZM997.268 49.4144C999.341 49.4144 1000.41 50.3133 1000.41 52.0479C1000.41 53.7825 999.341 54.6814 997.268 54.6814H995.139V49.4144H997.268ZM1013.92 66.1219H1018.91V45.6535H1013.92V66.1219ZM1043.47 60.6264C1041.56 61.9746 1039.88 62.4241 1038.14 62.4241C1034.33 62.4241 1031.64 59.7906 1031.64 55.8641C1031.64 51.9375 1034.27 49.3041 1037.98 49.3041C1039.66 49.3041 1041.34 49.7535 1043.19 51.1018V46.4498C1041.51 45.4958 1039.54 45.1016 1037.35 45.1016C1030.57 45.1016 1026.31 49.8087 1026.25 55.8089C1026.31 61.8642 1030.45 66.5162 1037.35 66.5162C1039.66 66.5162 1041.61 66.122 1043.41 65.1679V60.6264H1043.47ZM1061.75 45.5983H1056.7L1049.02 66.1219H1054.12L1055.53 61.8643H1062.93L1064.33 66.1219H1069.49L1061.75 45.5983ZM1059.22 50.5341L1061.64 58.1033H1056.7L1059.22 50.5341Z" fill="#6B6B6B" fill-opacity="0.65"/>
</g>
<g clip-path="url(#clip3_3_6863)">
<path d="M1399.46 66.1219H1408.43C1412.97 66.1219 1415.1 63.7645 1415.1 60.4608C1415.1 57.7721 1413.7 55.9744 1410.78 55.4146C1413.36 54.7996 1414.53 53.2306 1414.53 50.9283C1414.53 48.011 1412.4 45.6614 1407.86 45.6614H1399.51V66.1219H1399.46ZM1407.25 57.4331C1408.93 57.4331 1410.11 58.2768 1410.11 59.9562C1410.11 61.7539 1408.99 62.4793 1407.25 62.4793H1404.33V57.3779H1407.25V57.4331ZM1406.69 49.241C1408.37 49.241 1409.55 49.9664 1409.55 51.6537C1409.55 53.341 1408.43 54.0664 1406.69 54.0664H1404.34V49.241H1406.69ZM1433.21 45.5983H1428.16L1420.49 66.1219H1425.59L1426.99 61.8643H1434.39L1435.8 66.1219H1440.95L1433.21 45.5983ZM1430.69 50.5341L1433.1 58.1033H1428.16L1430.69 50.5341ZM1466.52 45.5983H1461.86V59.3333L1453.12 45.5983H1447.91V66.1219H1452.56V52.4421L1461.3 66.1219H1466.52V45.5983ZM1487.99 66.1219L1481.26 55.6906V66.1219H1476.27V45.5983H1481.26V55.4698L1487.65 45.5983H1493.21L1486.48 55.4698L1493.83 66.1219H1487.99ZM1511.48 55.8562C1511.48 59.9483 1513.95 62.4714 1517.14 62.4714C1520.34 62.4714 1522.8 59.9483 1522.8 55.8562C1522.8 51.7641 1520.34 49.241 1517.14 49.241C1513.95 49.241 1511.48 51.7641 1511.48 55.8562ZM1506.21 55.8562C1506.27 49.856 1510.47 45.1489 1517.15 45.1489C1523.82 45.1489 1528.03 49.856 1528.09 55.8562C1528.03 61.8564 1523.83 66.5635 1517.15 66.5635C1510.47 66.5714 1506.27 61.8564 1506.21 55.8562ZM1534.91 66.1219H1539.91V58.0481H1546.41V54.1216H1539.91V49.5248H1547.76L1548.66 45.5983H1534.91V66.1219ZM1571.93 45.5983H1566.88L1559.2 66.1219H1564.3L1565.7 61.8643H1573.11L1574.51 66.1219H1579.67L1571.93 45.5983ZM1569.4 50.5341L1571.81 58.1033H1566.88L1569.4 50.5341ZM1609.27 45.5983H1603.43L1598.1 56.6998L1592.77 45.5983H1586.94V66.1219H1591.42V52.3869L1598.04 66.1219L1604.65 52.3869V66.1219H1609.31L1609.27 45.5983ZM1618.96 66.1219H1632.98V62.1954H1623.96V57.5987H1631.08V53.7825H1623.96V49.5248H1632.2L1633.09 45.5983H1618.96V66.1219ZM1651.99 66.1219H1657.43L1652.32 57.4331C1655.13 56.6447 1656.47 54.6893 1656.47 51.8271C1656.47 48.1293 1654.23 45.6614 1649.19 45.6614H1641.28V66.185H1646.16V58.1112H1647.51L1651.99 66.1219ZM1648.23 49.4144C1650.31 49.4144 1651.37 50.3133 1651.37 52.0479C1651.37 53.7825 1650.31 54.6814 1648.23 54.6814H1646.1V49.4144H1648.23ZM1664.88 66.1219H1669.88V45.6535H1664.88V66.1219ZM1694.44 60.6264C1692.53 61.9746 1690.85 62.4241 1689.11 62.4241C1685.29 62.4241 1682.6 59.7906 1682.6 55.8641C1682.6 51.9375 1685.23 49.3041 1688.94 49.3041C1690.62 49.3041 1692.31 49.7535 1694.15 51.1018V46.4498C1692.47 45.4958 1690.51 45.1016 1688.32 45.1016C1681.54 45.1016 1677.27 49.8087 1677.22 55.8089C1677.27 61.8642 1681.42 66.5162 1688.32 66.5162C1690.62 66.5162 1692.58 66.122 1694.37 65.1679V60.6264H1694.44ZM1712.71 45.5983H1707.67L1699.99 66.1219H1705.09L1706.49 61.8643H1713.9L1715.3 66.1219H1720.46L1712.71 45.5983ZM1710.19 50.5341L1712.6 58.1033H1707.67L1710.19 50.5341Z" fill="#6B6B6B" fill-opacity="0.65"/>
</g>
<path d="M1258.95 70.9625H1250.02V58.2021H1244.22V70.9625H1235.05L1235.01 38.0724H1244.22V50.3093H1250.02V38.0724H1258.95V70.9625ZM1299.89 71.1189C1309.1 71.1121 1316.59 63.4606 1316.59 54.2455C1316.61 52.047 1316.18 49.8676 1315.35 47.8336C1314.51 45.7995 1313.28 43.9513 1311.73 42.3959C1310.18 40.8405 1308.33 39.6087 1306.3 38.7721C1304.26 37.9354 1302.08 37.5104 1299.89 37.5217C1290.68 37.5149 1285.98 44.2894 1284.82 47.0223C1284.83 42.9195 1280.79 38.0758 1276.05 38.069H1260.81V70.9523L1275.03 70.9557C1280.76 70.9557 1284.83 65.993 1284.84 61.7338C1286.15 64.4123 1290.69 71.1223 1299.89 71.1155L1299.89 71.1189ZM1273.83 57.7398C1275.15 57.7398 1276.18 59.0383 1276.18 60.5169C1276.18 61.9956 1275.15 63.294 1273.83 63.294H1269.31V57.7398H1273.83ZM1273.85 45.3907C1275.16 45.3907 1276.2 46.6892 1276.2 48.1678C1276.2 49.6499 1275.16 50.9483 1273.85 50.9483H1269.33V45.3907H1273.85ZM1279.87 54.2523C1280.9 54.1197 1282.63 52.9368 1283.24 52.1788C1283.02 53.117 1283.01 55.8295 1283.26 56.7677C1282.56 55.7003 1280.92 54.3849 1279.87 54.2523ZM1291.52 54.2523C1291.52 53.1533 1291.74 52.0651 1292.16 51.0497C1292.58 50.0344 1293.2 49.1118 1293.98 48.3347C1294.75 47.5576 1295.68 46.9412 1296.69 46.5206C1297.71 46.1001 1298.79 45.8836 1299.89 45.8836C1300.99 45.8836 1302.08 46.1001 1303.1 46.5206C1304.11 46.9412 1305.03 47.5576 1305.81 48.3347C1306.59 49.1118 1307.2 50.0344 1307.62 51.0497C1308.05 52.0651 1308.26 53.1533 1308.26 54.2523C1308.26 56.4723 1307.38 58.6013 1305.81 60.1711C1304.24 61.7408 1302.11 62.6227 1299.89 62.6227C1297.67 62.6227 1295.54 61.7408 1293.97 60.1711C1292.4 58.6013 1291.52 56.4723 1291.52 54.2523ZM1299.89 60.8331C1301.64 60.8331 1303.31 60.1397 1304.55 58.9056C1305.78 57.6715 1306.47 55.9976 1306.47 54.2523C1306.47 52.507 1305.78 50.8331 1304.55 49.599C1303.31 48.3649 1301.64 47.6716 1299.89 47.6716C1298.15 47.6716 1296.47 48.3649 1295.24 49.599C1294.01 50.8331 1293.31 52.507 1293.31 54.2523C1293.31 55.9976 1294.01 57.6715 1295.24 58.9056C1296.47 60.1397 1298.15 60.8331 1299.89 60.8331Z" fill="#6B6B6B" fill-opacity="0.65"/>
<defs>
<clipPath id="clip0_3_6863">
<rect width="236.568" height="28" fill="white" transform="translate(168.283 40.3184)"/>
</clipPath>
<clipPath id="clip1_3_6863">
<rect width="183.615" height="31" fill="white" transform="translate(484.852 39.3184)"/>
</clipPath>
<clipPath id="clip2_3_6863">
<rect width="403.692" height="41" fill="white" transform="translate(748.467 28.3184)"/>
</clipPath>
<clipPath id="clip3_3_6863">
<rect width="403.692" height="41" fill="white" transform="translate(1399.43 28.3184)"/>
</clipPath>
</defs>
</svg>
