<svg width="1440" height="253" viewBox="0 0 1440 253" fill="none" xmlns="http://www.w3.org/2000/svg">
<path fill-rule="evenodd" clip-rule="evenodd" d="M-388.119 93.7478L-211.188 -36.1433L39.3599 122.658L-388.119 93.7478ZM-211.074 -33.7446L-382.904 92.2437L32.325 120.501L-211.074 -33.7446Z" fill="white" fill-opacity="0.14"/>
<path fill-rule="evenodd" clip-rule="evenodd" d="M-19.2148 277.326L-388.113 93.802L39.3624 122.714L-19.2148 277.326ZM-378.871 96.3516L-20.2438 274.819L36.8929 124.543L-378.871 96.3516Z" fill="white" fill-opacity="0.14"/>
<path fill-rule="evenodd" clip-rule="evenodd" d="M-211.192 -36.2189L20.1532 -170.445L39.3039 122.64L-211.192 -36.2189ZM18.4599 -167.331L-207.633 -36.063L37.3224 119.224L18.4599 -167.331Z" fill="white" fill-opacity="0.14"/>
<path fill-rule="evenodd" clip-rule="evenodd" d="M-19.1385 277.336L39.4135 122.657L54.1448 339.96L-19.1385 277.336ZM38.2632 131.271L-16.9398 276.668L52.1411 335.613L38.2632 131.271Z" fill="white" fill-opacity="0.14"/>
<path fill-rule="evenodd" clip-rule="evenodd" d="M39.3673 122.599L20.2155 -170.522L172.57 -206.327L39.3673 122.599ZM22.0364 -169.114L40.602 114.393L169.356 -203.79L22.0364 -169.114Z" fill="white" fill-opacity="0.14"/>
<path fill-rule="evenodd" clip-rule="evenodd" d="M39.382 122.554L172.624 -206.318L424.379 -58.0522L39.382 122.554ZM173.376 -203.71L42.8671 118.857L420.312 -58.4006L173.376 -203.71Z" fill="white" fill-opacity="0.14"/>
<path fill-rule="evenodd" clip-rule="evenodd" d="M54.1914 339.886L39.459 122.641L335.635 351.553L54.1914 339.886ZM41.6248 126.74L55.9917 338.111L329.778 349.536L41.6248 126.74Z" fill="white" fill-opacity="0.14"/>
<path fill-rule="evenodd" clip-rule="evenodd" d="M335.578 351.516L39.4375 122.571L424.417 -58.0437L335.578 351.516ZM42.9661 122.988L334.381 348.193L421.778 -54.7768L42.9661 122.988Z" fill="white" fill-opacity="0.14"/>
<path fill-rule="evenodd" clip-rule="evenodd" d="M335.645 351.463L424.458 -58.1456L512.02 339.976L335.645 351.463ZM424.483 -49.393L337.998 349.488L509.692 338.375L424.483 -49.393Z" fill="white" fill-opacity="0.14"/>
<path fill-rule="evenodd" clip-rule="evenodd" d="M512.076 339.949L424.506 -58.1406L693.34 59.8138L512.076 339.949ZM427.057 -55.0553L512.909 335.143L690.472 60.5351L427.057 -55.0553Z" fill="white" fill-opacity="0.14"/>
<path fill-rule="evenodd" clip-rule="evenodd" d="M512.115 339.959L693.37 59.8149L720.532 170.8L512.115 339.959ZM692.567 64.3597L520.054 331.088L718.649 169.915L692.567 64.3597Z" fill="white" fill-opacity="0.14"/>
<path fill-rule="evenodd" clip-rule="evenodd" d="M720.571 170.776L693.408 59.791L751 142.03L720.571 170.776ZM697.485 69.0222L721.526 167.178L748.386 141.721L697.485 69.0222Z" fill="white" fill-opacity="0.14"/>
<path fill-rule="evenodd" clip-rule="evenodd" d="M750.993 142.005L693.395 59.7737L817.873 31.4135L750.993 142.005ZM696.569 60.9443L750.872 138.544L814.089 34.2797L696.569 60.9443Z" fill="white" fill-opacity="0.14"/>
<path fill-rule="evenodd" clip-rule="evenodd" d="M693.341 59.7489L424.424 -58.1309L817.842 31.393L693.341 59.7489ZM443.176 -51.9414L693.573 57.7889L809.498 31.3351L443.176 -51.9414Z" fill="white" fill-opacity="0.14"/>
<path fill-rule="evenodd" clip-rule="evenodd" d="M512.141 339.992L720.572 170.842L726.523 462.375L512.141 339.992ZM718.932 174.624L515.485 339.724L724.672 458.974L718.932 174.624Z" fill="white" fill-opacity="0.14"/>
<path fill-rule="evenodd" clip-rule="evenodd" d="M946.223 -28.9022L817.852 31.3429L956.269 -113.877L946.223 -28.9022ZM826.105 25.4258L944.386 -30.1799L953.659 -108.618L826.105 25.4258Z" fill="white" fill-opacity="0.14"/>
<path fill-rule="evenodd" clip-rule="evenodd" d="M817.847 31.3582L424.44 -58.184L956.292 -113.809L817.847 31.3582ZM435.759 -57.5092L817.163 29.2899L951.377 -111.475L435.759 -57.5092Z" fill="white" fill-opacity="0.14"/>
<path fill-rule="evenodd" clip-rule="evenodd" d="M424.397 -58.2316L350.785 -346.945L956.23 -113.853L424.397 -58.2316ZM353.467 -343.845L425.705 -60.3299L948.272 -114.926L353.467 -343.845Z" fill="white" fill-opacity="0.14"/>
<path fill-rule="evenodd" clip-rule="evenodd" d="M751.022 141.943L817.905 31.3594L934.376 185.091L751.022 141.943ZM818.172 34.7045L753.952 140.699L929.819 182.167L818.172 34.7045Z" fill="white" fill-opacity="0.14"/>
<path fill-rule="evenodd" clip-rule="evenodd" d="M720.555 170.727L750.992 141.994L934.379 185.108L720.555 170.727ZM751.414 144.031L724.97 169.261L911.825 181.916L751.414 144.031Z" fill="white" fill-opacity="0.14"/>
<path fill-rule="evenodd" clip-rule="evenodd" d="M726.588 462.32L720.637 170.781L934.395 185.19L726.588 462.32ZM722.512 172.859L728.414 456.968L930.881 186.895L722.512 172.859Z" fill="white" fill-opacity="0.14"/>
<path fill-rule="evenodd" clip-rule="evenodd" d="M817.887 31.3533L946.25 -28.8941L934.337 185.11L817.887 31.3533ZM944.165 -25.8266L820.715 32.0855L932.818 180.026L944.165 -25.8266Z" fill="white" fill-opacity="0.14"/>
<path fill-rule="evenodd" clip-rule="evenodd" d="M934.38 185.065L946.295 -28.9297L1102.48 129.519L934.38 185.065ZM947.907 -24.6298L936.403 182.52L1099.13 128.725L947.907 -24.6298Z" fill="white" fill-opacity="0.14"/>
<path fill-rule="evenodd" clip-rule="evenodd" d="M1048.99 241.714L934.422 185.094L1102.54 129.555L1048.99 241.714ZM939.404 185.551L1048.22 239.238L1099.12 132.728L939.404 185.551Z" fill="white" fill-opacity="0.14"/>
<path fill-rule="evenodd" clip-rule="evenodd" d="M726.599 462.28L934.423 185.168L1048.98 241.793L726.599 462.28ZM934.929 187.614L734.807 454.502L1045.23 242.145L934.929 187.614Z" fill="white" fill-opacity="0.14"/>
<path fill-rule="evenodd" clip-rule="evenodd" d="M1102.47 129.521L946.258 -28.8965L1185.32 -0.638327L1102.47 129.521ZM951.139 -26.464L1102.03 126.552L1181.97 0.820749L951.139 -26.464Z" fill="white" fill-opacity="0.14"/>
<path fill-rule="evenodd" clip-rule="evenodd" d="M726.602 462.278L1049.01 241.811L1122.61 530.565L726.602 462.278ZM1047.71 244.971L731.362 461.25L1119.96 528.395L1047.71 244.971Z" fill="white" fill-opacity="0.14"/>
<path fill-rule="evenodd" clip-rule="evenodd" d="M1185.35 -0.765316L1151.76 -58.5312L1324.44 -38.1306L1185.35 -0.765316ZM1155.2 -56.2693L1186.14 -2.92504L1314.55 -37.4439L1155.2 -56.2693Z" fill="white" fill-opacity="0.14"/>
<path fill-rule="evenodd" clip-rule="evenodd" d="M1102.53 129.468L1185.38 -0.682014L1414.28 112.508L1102.53 129.468ZM1186.03 1.64793L1106.07 127.502L1407.17 111.004L1186.03 1.64793Z" fill="white" fill-opacity="0.14"/>
<path fill-rule="evenodd" clip-rule="evenodd" d="M1185.37 -0.729277L1324.44 -38.0977L1414.25 112.471L1185.37 -0.729277ZM1323.65 -35.9375L1190.74 -0.226499L1409.6 108.078L1323.65 -35.9375Z" fill="white" fill-opacity="0.14"/>
<path fill-rule="evenodd" clip-rule="evenodd" d="M1049.01 241.645L1102.57 129.498L1414.32 112.539L1049.01 241.645ZM1103.94 131.383L1052.71 238.372L1401.68 115.154L1103.94 131.383Z" fill="white" fill-opacity="0.14"/>
<path fill-rule="evenodd" clip-rule="evenodd" d="M1414.27 112.396L1324.46 -38.1641L1701.35 -36.6897L1414.27 112.396ZM1327.57 -36.4709L1414.96 109.959L1693.59 -34.9563L1327.57 -36.4709Z" fill="white" fill-opacity="0.14"/>
<path fill-rule="evenodd" clip-rule="evenodd" d="M1122.68 530.46L1049.08 241.664L1414.32 112.53L1122.68 530.46ZM1051.33 242.857L1123.59 526.062L1409.64 116.219L1051.33 242.857Z" fill="white" fill-opacity="0.14"/>
<path fill-rule="evenodd" clip-rule="evenodd" d="M1414.29 112.379L1701.37 -36.7171L1700.75 81.6964L1414.29 112.379ZM1699.43 -33.7654L1423.92 109.408L1698.97 79.8961L1699.43 -33.7654Z" fill="white" fill-opacity="0.14"/>
<path fill-rule="evenodd" clip-rule="evenodd" d="M1324.43 -38.2366L1597.4 -296.761L1701.3 -36.7571L1324.43 -38.2366ZM1596.62 -293.54L1329.02 -40.0795L1698.48 -38.6811L1596.62 -293.54Z" fill="white" fill-opacity="0.14"/>
<path fill-rule="evenodd" clip-rule="evenodd" d="M1122.71 530.456L1414.36 112.537L1565.32 658.217L1122.71 530.456ZM1413.72 116.836L1125.75 529.358L1562.72 655.524L1413.72 116.836Z" fill="white" fill-opacity="0.14"/>
<path fill-rule="evenodd" clip-rule="evenodd" d="M1414.33 112.401L1700.8 81.719L1795.28 308.243L1414.33 112.401ZM1699.52 83.5559L1420.69 113.55L1791.51 304.22L1699.52 83.5559Z" fill="white" fill-opacity="0.14"/>
<path fill-rule="evenodd" clip-rule="evenodd" d="M1565.38 658.151L1414.43 112.458L1795.3 308.348L1565.38 658.151ZM1417.32 115.981L1566.04 653.722L1792.58 308.954L1417.32 115.981Z" fill="white" fill-opacity="0.14"/>
</svg>
