<svg width="88" height="37" viewBox="0 0 88 37" fill="none" xmlns="http://www.w3.org/2000/svg">
<path d="M26.9505 34.9625H18.0175V22.2021H12.2186V34.9625H3.04766L3.01367 2.07236H12.2186V14.3093H18.0175V2.07236H26.9505V34.9625ZM67.8864 35.1189C77.0981 35.1121 84.5932 27.4606 84.5932 18.2455C84.6067 16.047 84.184 13.8676 83.3494 11.8336C82.5148 9.79954 81.2849 7.95131 79.7311 6.39588C78.1772 4.84045 76.3303 3.60875 74.2971 2.77208C72.2639 1.93542 70.085 1.51042 67.8864 1.5217C58.6849 1.5149 53.9839 8.2894 52.8214 11.0223C52.8316 6.91955 48.7866 2.07576 44.0516 2.06897H28.8132V34.9523L43.025 34.9557C48.756 34.9557 52.835 29.993 52.8418 25.7338C54.1505 28.4123 58.6883 35.1223 67.8898 35.1155L67.8864 35.1189ZM41.8319 21.7398C43.1474 21.7398 44.1842 23.0383 44.1842 24.5169C44.1842 25.9956 43.1474 27.294 41.8319 27.294H37.3111V21.7398H41.8319ZM41.8489 9.39073C43.1644 9.39073 44.2011 10.6892 44.2011 12.1678C44.2011 13.6499 43.1644 14.9483 41.8489 14.9483H37.3281V9.39073H41.8489ZM47.8654 18.2523C48.9022 18.1197 50.6289 16.9368 51.2374 16.1788C51.0232 17.117 51.0062 19.8295 51.2578 20.7677C50.5644 19.7003 48.9192 18.3849 47.8654 18.2523ZM59.5245 18.2523C59.5245 17.1533 59.741 16.0651 60.1615 15.0497C60.5821 14.0344 61.1985 13.1118 61.9756 12.3347C62.7527 11.5576 63.6753 10.9412 64.6906 10.5206C65.706 10.1001 66.7942 9.8836 67.8932 9.8836C68.9922 9.8836 70.0804 10.1001 71.0958 10.5206C72.1111 10.9412 73.0337 11.5576 73.8108 12.3347C74.5879 13.1118 75.2043 14.0344 75.6249 15.0497C76.0454 16.0651 76.2619 17.1533 76.2619 18.2523C76.2619 20.4723 75.38 22.6013 73.8103 24.1711C72.2405 25.7408 70.1115 26.6227 67.8915 26.6227C65.6715 26.6227 63.5425 25.7408 61.9727 24.1711C60.403 22.6013 59.5245 20.4723 59.5245 18.2523ZM67.8932 24.8331C69.6385 24.8331 71.3124 24.1397 72.5465 22.9056C73.7806 21.6715 74.474 19.9976 74.474 18.2523C74.474 16.507 73.7806 14.8331 72.5465 13.599C71.3124 12.3649 69.6385 11.6716 67.8932 11.6716C66.1479 11.6716 64.474 12.3649 63.2399 13.599C62.0058 14.8331 61.3125 16.507 61.3125 18.2523C61.3125 19.9976 62.0058 21.6715 63.2399 22.9056C64.474 24.1397 66.1479 24.8331 67.8932 24.8331Z" fill="#6B6B6B" fill-opacity="0.65"/>
</svg>
