<svg width="21" height="20" viewBox="0 0 21 20" fill="none" xmlns="http://www.w3.org/2000/svg">
<path d="M18.6711 8.36788H17.9998V8.33329H10.4998V11.6666H15.2094C14.5223 13.607 12.6761 15 10.4998 15C7.73859 15 5.49984 12.7612 5.49984 9.99996C5.49984 7.23871 7.73859 4.99996 10.4998 4.99996C11.7744 4.99996 12.934 5.48079 13.8169 6.26621L16.174 3.90913C14.6857 2.52204 12.6948 1.66663 10.4998 1.66663C5.89775 1.66663 2.1665 5.39788 2.1665 9.99996C2.1665 14.602 5.89775 18.3333 10.4998 18.3333C15.1019 18.3333 18.8332 14.602 18.8332 9.99996C18.8332 9.44121 18.7757 8.89579 18.6711 8.36788Z" fill="#FFC107"/>
<path d="M3.12744 6.12121L5.86536 8.12913C6.60619 6.29496 8.40036 4.99996 10.4999 4.99996C11.7745 4.99996 12.9341 5.48079 13.817 6.26621L16.1741 3.90913C14.6858 2.52204 12.6949 1.66663 10.4999 1.66663C7.29911 1.66663 4.52327 3.47371 3.12744 6.12121Z" fill="#FF3D00"/>
<path d="M10.4998 18.3334C12.6523 18.3334 14.6081 17.5096 16.0869 16.17L13.5077 13.9875C12.6429 14.6452 11.5862 15.0009 10.4998 15C8.3323 15 6.49189 13.618 5.79855 11.6892L3.08105 13.783C4.46022 16.4817 7.26105 18.3334 10.4998 18.3334Z" fill="#4CAF50"/>
<path d="M18.6713 8.36796H18V8.33337H10.5V11.6667H15.2096C14.8809 12.5902 14.2889 13.3972 13.5067 13.988L13.5079 13.9871L16.0871 16.1696C15.9046 16.3355 18.8333 14.1667 18.8333 10C18.8333 9.44129 18.7758 8.89587 18.6713 8.36796Z" fill="#1976D2"/>
</svg>
