<svg width="24" height="25" viewBox="0 0 24 25" fill="none" xmlns="http://www.w3.org/2000/svg">
<rect y="0.25" width="24" height="24" rx="12" fill="#FEFEFE"/>
<path d="M6 6.94113C6 6.51831 6.13514 6.16949 6.40541 5.89466C6.67567 5.61983 7.02703 5.48242 7.45946 5.48242C7.88417 5.48242 8.2278 5.61771 8.49035 5.88832C8.76061 6.16738 8.89575 6.53099 8.89575 6.97918C8.89575 7.38508 8.76448 7.72332 8.50193 7.99393C8.23166 8.27299 7.87645 8.41252 7.43629 8.41252H7.42471C7 8.41252 6.65637 8.27299 6.39382 7.99393C6.13127 7.71488 6 7.36394 6 6.94113ZM6.15058 18.04V9.5668H8.72201V18.04H6.15058ZM10.1467 18.04H12.7181V13.3087C12.7181 13.0127 12.749 12.7844 12.8108 12.6237C12.9189 12.3362 13.083 12.0931 13.3031 11.8944C13.5232 11.6957 13.7992 11.5963 14.1313 11.5963C14.9961 11.5963 15.4286 12.2347 15.4286 13.5116V18.04H18V13.1819C18 11.9303 17.7297 10.9811 17.1892 10.3342C16.6486 9.6873 15.9344 9.36385 15.0463 9.36385C14.0502 9.36385 13.2741 9.83317 12.7181 10.7718V10.7972H12.7066L12.7181 10.7718V9.5668H10.1467C10.1622 9.8374 10.1699 10.6788 10.1699 12.091C10.1699 13.5032 10.1622 15.4862 10.1467 18.04Z" fill="#292929"/>
</svg>
