<svg width="62" height="61" viewBox="0 0 62 61" fill="none" xmlns="http://www.w3.org/2000/svg">
<path fill-rule="evenodd" clip-rule="evenodd" d="M52.8261 16.8844L52.8029 16.7764L52.7798 16.6529L52.7644 16.5295V16.4215L52.7412 16.298L52.6949 16.1746L52.6795 16.0666L52.6563 15.9432L52.6178 15.8429L52.5946 15.7117L52.5483 15.5883L52.5329 15.488L52.4866 15.3568L52.448 15.2565L52.4018 15.1331L52.3632 15.0251L52.3015 14.9017L52.2629 14.7937L52.2166 14.6934L52.1549 14.5622L52.1163 14.4619L52.0469 14.3539L51.9852 14.2536L51.9234 14.1302L51.8617 14.0222L51.8 13.9219L51.7383 13.8139L51.6766 13.7136L51.5917 13.5824L51.53 13.4976L51.5068 13.4821L51.4837 13.4359L51.4683 13.3973L51.422 13.351L51.4066 13.3356L51.3603 13.2893L51.3371 13.2507L51.2985 13.2121L51.2754 13.1658L51.2368 13.1041L51.1905 13.0655L51.152 13.0193L51.1288 12.9807L51.0902 12.9344L51.0517 12.8958L51.0054 12.8341L50.9437 12.7724L50.8819 12.7107L50.8202 12.6412L50.7585 12.5795L50.7122 12.5178L50.6505 12.4561L50.5888 12.3944L50.5271 12.3326L50.4653 12.2864L50.4036 12.2246L50.3419 12.1861L50.2725 12.1243L50.2108 12.0781L50.149 12.0163L50.0873 11.9778L50.0025 11.8929L49.9176 11.8312L49.8405 11.7849L49.7556 11.7232L49.6707 11.6615L49.5859 11.5997L49.501 11.5612L49.4161 11.4994L49.339 11.4532L49.231 11.3914L49.1461 11.3529L49.0613 11.3066L48.961 11.2449L48.8761 11.2063L48.7912 11.16L48.6909 11.1214L48.6061 11.0751L48.4981 11.0366L48.4132 10.998L48.3129 10.9517L48.2049 10.9363L48.1278 10.89L48.0198 10.8514L47.9195 10.8283L47.8115 10.7897L47.7266 10.7665L47.6263 10.7434L47.5183 10.7048L47.418 10.6817L47.31 10.6585L47.202 10.6431L47.1017 10.62L46.9165 10.5814L46.7468 10.5582L46.5617 10.5351L46.3919 10.512L46.2068 10.4965L46.0371 10.4734H45.8673H45.6822H45.5125H45.3504H45.1576L43.4063 10.5968L42.9897 9.03072L42.928 8.86871L42.8817 8.72213L42.8663 8.63727L42.82 8.52926L42.7969 8.4444L42.7814 8.38268L42.7583 8.32096L42.7351 8.28238L42.7197 8.22067L42.6503 8.11266L42.5886 7.94293L42.5268 7.79635L42.442 7.63434L42.3648 7.48776L42.28 7.34118L42.1951 7.1946L42.1102 7.04802L42.0099 6.90144L41.9251 6.75486L41.8171 6.60828L41.7168 6.48484L41.6088 6.33826L41.5085 6.21482L41.3773 6.09139L41.277 5.96024L41.1536 5.8368L41.0225 5.71336L40.899 5.60536L40.7756 5.50506L40.629 5.38163L40.5056 5.27362L40.359 5.16561L40.2278 5.08847L40.089 4.98046L39.9424 4.88017L39.7958 4.7953L39.6492 4.71044L39.4795 4.62558L39.3329 4.54072L39.1632 4.479L39.0166 4.39413L38.9163 4.35556L38.8546 4.33242L38.7929 4.29384L38.708 4.2707L38.6463 4.24755L38.5614 4.23212L38.4997 4.18584L38.4149 4.17041L38.3531 4.14726L38.2914 4.12412L38.2066 4.10097L38.1448 4.08554L38.06 4.0624L37.9983 4.03925L37.9134 4.02383L37.8517 4.00068L37.7437 3.95439L37.6434 3.93896L37.5354 3.91582L37.4119 3.89267L37.3116 3.87724L37.1805 3.8541L37.0802 3.83096L36.9722 3.81553L36.8488 3.79238H36.7408L36.6173 3.76924H36.517L36.409 3.74609H36.2856H36.1776H36.0541H35.9538H35.8227H35.7224L35.599 3.76924H35.491L35.3829 3.79238H35.2595L35.1592 3.81553L35.0281 3.83096L34.9278 3.8541L34.8198 3.87724L34.6963 3.89267L34.596 3.91582L34.488 3.93896L34.3646 3.95439L34.2797 4.00068H34.2566H34.218L34.1794 4.02383H34.1332L34.0946 4.03925L34.0483 4.0624H34.0329L33.9866 4.08554H33.948L33.9017 4.10097H33.8631L33.8168 4.12412L33.7783 4.14726H33.7397L33.6548 4.18584L33.4465 4.2707L33.2768 4.33242L33.1071 4.39413L32.9682 4.479L32.7985 4.56386L32.6519 4.64872L32.4822 4.73358L32.3356 4.81073L32.189 4.91874L32.0424 5.0036L31.8959 5.10389L31.757 5.2119L31.6104 5.31219L30.4146 6.2534L29.2266 5.31219L29.08 5.2119L28.9565 5.10389L28.81 5.0036L28.6634 4.91874L28.5168 4.81073L28.3702 4.73358L28.2005 4.64872L28.0539 4.56386L27.8919 4.479L27.7453 4.39413L27.5756 4.33242L27.4136 4.2707L27.1821 4.17041L27.0741 4.14726L27.0587 4.12412H27.0356H27.0124L26.9738 4.10097H26.9507L26.9121 4.08554H26.8658L26.8427 4.0624H26.8041L26.7655 4.03925H26.7192L26.6807 4.02383L26.6344 4.00068H26.5958H26.5727L26.4724 3.95439L26.3644 3.93896L26.2641 3.91582L26.1561 3.89267L26.0326 3.87724L25.9246 3.8541L25.8012 3.83096L25.7009 3.81553L25.5929 3.79238H25.4695L25.3614 3.76924H25.238L25.13 3.74609H25.0297H24.9063H24.7983H24.6748H24.5668H24.4434L24.3431 3.76924H24.2119L24.1117 3.79238H24.0036L23.8802 3.81553L23.7799 3.83096L23.6488 3.8541L23.5485 3.87724L23.4405 3.89267L23.317 3.91582L23.209 3.93896L23.1087 3.95439L22.9853 4.00068L22.9236 4.02383L22.8541 4.03925L22.777 4.0624L22.7153 4.08554L22.6458 4.10097L22.5687 4.12412L22.4993 4.14726L22.4375 4.17041L22.3527 4.18584L22.291 4.23212L22.2138 4.24755L22.1444 4.2707L22.0672 4.30927L21.9978 4.33242L21.9207 4.37871L21.8358 4.39413L21.6661 4.479L21.5195 4.56386L21.3575 4.64872L21.2109 4.73358L21.0643 4.81073L20.9177 4.8956L20.7712 5.0036L20.6246 5.08847L20.478 5.18876L20.3546 5.29676L20.208 5.39706L20.0768 5.50506L19.9534 5.6285L19.8299 5.73651L19.7065 5.85994L19.5754 5.98338L19.4519 6.10682L19.3516 6.23025L19.2436 6.3614L19.1433 6.48484L19.0353 6.63142L18.935 6.75486L18.827 6.90144L18.7422 7.04802L18.6573 7.1946L18.557 7.34118L18.4953 7.48776L18.4104 7.63434L18.3256 7.79635L18.2638 7.94293L18.2021 8.11266L18.1404 8.22067L18.1173 8.28238L18.0941 8.32096L18.0787 8.38268L18.0555 8.4444L18.0324 8.52926L17.9938 8.63727L17.9707 8.72213L17.9321 8.86871L17.8704 9.03072L17.4461 10.5968L15.6948 10.4965L15.5251 10.4734H15.3399H15.1702H15.0082L14.8153 10.4965H14.6533L14.4836 10.512L14.2984 10.5351L14.1287 10.5582L13.959 10.5814L13.7507 10.62L13.6273 10.6431L13.527 10.6585L13.419 10.6817L13.311 10.7203L13.2338 10.7434L13.1258 10.7665L13.0255 10.8051L12.9175 10.8283L12.8326 10.8668L12.7323 10.89L12.6475 10.9363L12.5395 10.9748L12.4392 10.998L12.3543 11.0366L12.2463 11.0751L12.1692 11.1214L12.0843 11.16L11.9763 11.2063L11.8914 11.268L11.7911 11.3066L11.7063 11.3529L11.6214 11.4146L11.5366 11.4532L11.4594 11.5149L11.3514 11.5612L11.2665 11.6229L11.1817 11.6615L11.1045 11.7232L11.0197 11.7849L10.9348 11.8543L10.8499 11.916L10.7882 11.9778L10.7034 12.0163L10.6648 12.0781L10.6031 12.1243L10.5336 12.1861L10.4719 12.2246L10.4102 12.2864L10.3485 12.3558L10.2868 12.4175L10.225 12.4561L10.1633 12.5178L10.1016 12.5795L10.0399 12.6644L9.97046 12.7261L9.90874 12.7878L9.84702 12.8727L9.82388 12.919H9.80845L9.76216 12.9807L9.72358 13.0193L9.68501 13.0655L9.63872 13.1041L9.61558 13.1658L9.577 13.2121L9.53843 13.2507L9.51529 13.2893L9.469 13.3356L9.45357 13.351L9.43042 13.3973L9.39185 13.4359L9.3687 13.4821L9.34556 13.5207L9.30699 13.567L9.2607 13.6287L9.22212 13.6904L9.18355 13.7522L9.16041 13.7907L9.11412 13.8525L9.07554 13.9219L9.03697 13.9605L9.01382 14.0222L8.96754 14.0839L8.95211 14.1456L8.90582 14.1919L8.86724 14.2536L8.8441 14.3153L8.80553 14.3771L8.78238 14.4388L8.74381 14.5005L8.72066 14.5468L8.69752 14.6085L8.65894 14.6702L8.6358 14.7319L8.59723 14.7937L8.57408 14.8554L8.55094 14.9171L8.53551 14.9865L8.48922 15.0482L8.47379 15.11L8.45065 15.1717L8.4275 15.2334L8.40436 15.2951L8.38893 15.3568L8.36578 15.4186L8.34264 15.5034L8.30407 15.5883L8.28092 15.6963L8.24235 15.7966L8.2192 15.9046L8.19606 16.0049L8.18063 16.1129L8.15748 16.2132L8.13434 16.3212L8.11891 16.4215L8.09577 16.5295L8.07262 16.6298V16.7378L8.04948 16.8458V16.9461L8.03405 17.0541V17.1544V17.2624V17.3627V17.4707V17.5941V17.6944V17.8024V17.9104L8.04948 18.0107V18.1187V18.219L8.07262 18.327L8.09577 18.4273V18.5353L8.11891 18.6356L8.13434 18.7436L8.15748 18.8671L8.18063 18.9751L8.19606 19.0522L8.2192 19.1371L8.24235 19.2219L8.25778 19.3068L8.28092 19.3917L8.30407 19.492L8.32721 19.5768L8.34264 19.6617L8.36578 19.7466L8.38893 19.8314L8.90582 21.4361L7.44772 22.2307L7.33972 22.2924L7.23942 22.3541L7.13142 22.4159L7.03113 22.4776L6.92312 22.5393L6.8614 22.6087L6.77654 22.6473L6.69167 22.709L6.62996 22.7707L6.54509 22.817L6.46795 22.8788L6.38308 22.9405L6.32137 23.0022L6.2365 23.0639L6.15164 23.1256L6.08992 23.1873L6.00506 23.2722L5.94334 23.3339L5.85848 23.3956L5.79676 23.4651L5.69647 23.5654L5.56532 23.6888L5.46503 23.82L5.34159 23.9434L5.23358 24.09L5.12557 24.2134L5.02528 24.36L4.91728 24.5066L4.84013 24.63L4.73212 24.7766L4.64726 24.9232L4.5624 25.0929L4.48525 25.2395L4.41581 25.3861L4.33867 25.5481L4.26923 25.6946L4.20752 25.8644L4.1458 26.011L4.08408 26.173L4.0455 26.3427L3.98379 26.5124L3.9375 26.6744L3.89892 26.8442L3.87578 27.0139L3.83721 27.1759L3.81406 27.3456L3.77549 27.5153L3.75234 27.6773V27.8471L3.7292 28.0322V28.202L3.70605 28.3717V28.5568V28.7266L3.7292 28.8886V29.0583L3.75234 29.2434V29.4132L3.77549 29.5829L3.81406 29.7449L3.83721 29.9146L3.87578 30.0844L3.89892 30.2464L3.9375 30.4161L3.98379 30.5858L4.0455 30.7478L4.08408 30.9176L4.1458 31.0641L4.20752 31.2261L4.26923 31.3727L4.33867 31.5425L4.41581 31.689L4.48525 31.8588L4.5624 32.0053L4.64726 32.1519L4.73212 32.2908L4.84013 32.4374L4.91728 32.584L5.02528 32.7305L5.12557 32.8617L5.23358 33.0083L5.34159 33.1317L5.46503 33.2551L5.56532 33.4017L5.7119 33.5483L5.79676 33.6332L5.85848 33.6717L5.90477 33.7334L5.96649 33.7797L6.0282 33.8183L6.06678 33.88L6.1285 33.9263L6.19021 33.9649L6.2365 34.0035L6.29822 34.0498L6.35994 34.1115L6.40623 34.15L6.46795 34.1963L6.52967 34.2349L6.59138 34.2812L6.62996 34.3198L6.69167 34.3583L6.76111 34.4046L6.82283 34.4432L6.88454 34.4895L6.92312 34.5049L6.98484 34.5512L7.04656 34.5898L7.11599 34.6361L7.17771 34.6747L7.23942 34.6978L7.30114 34.7364L7.36286 34.7827L7.42458 34.7981L7.4863 34.8444L7.54802 34.8598L7.5943 34.9061L7.65602 34.9292L7.75632 34.991L7.84118 35.0295L7.92604 35.0681L8.03405 35.1144L8.11891 35.153L8.2192 35.1993L8.30407 35.2378L8.40436 35.261L8.51236 35.2995L8.59723 35.3458L8.69752 35.3613L8.80553 35.3844L8.89039 35.4307L8.99068 35.4461L9.09869 35.4693L9.19898 35.5078L9.28384 35.531L9.39185 35.5541L9.49214 35.5696H9.60015L9.70044 35.5927L9.7853 35.6159L9.89331 35.639H9.9936L10.1016 35.6544H10.2019H10.3099L10.4102 35.6776H10.5182H10.6031H10.7034H50.149H50.2725H50.4191L50.5502 35.6544H50.6968L50.8202 35.639H50.9437L51.0902 35.6159L51.2137 35.5927L51.3371 35.5696L51.4837 35.531L51.6148 35.5078L51.7383 35.4924L51.8617 35.4461L51.9852 35.4076L52.1317 35.3613L52.2629 35.3458L52.3863 35.2841L52.5098 35.2378L52.6332 35.1993L52.7644 35.153L52.8646 35.0913L52.9881 35.0295L53.1192 34.991L53.2427 34.9292L53.343 34.8598L53.4741 34.7981L53.5975 34.7132L53.6978 34.6515L53.829 34.5898L53.9293 34.5049L54.0527 34.4432L54.1839 34.3429L54.261 34.2812L54.3227 34.2349L54.369 34.1963L54.4307 34.15L54.4925 34.1115L54.5388 34.0729L54.6005 34.0266L54.6622 33.9649L54.7008 33.9263L54.7625 33.88L54.8242 33.8415L54.8705 33.7797L54.9322 33.7334L54.9939 33.6717L55.0402 33.6332L55.1019 33.5714L55.3102 33.3631L55.3951 33.2783L55.4568 33.1934L55.5417 33.1086L55.6034 33.0237L55.6651 32.9388L55.7268 32.8617L55.8117 32.7768L55.8734 32.692L55.912 32.6071L55.9737 32.5222L56.0354 32.4374L56.1049 32.3371L56.1666 32.2522L56.2051 32.1674L56.2669 32.0671L56.3132 31.9822L56.3517 31.8973L56.4134 31.797L56.4597 31.7122L56.4983 31.6042L56.5369 31.5193L56.5832 31.419L56.6217 31.3342L56.668 31.2261L56.7066 31.149L56.7452 31.041L56.7683 30.9561L56.8146 30.8558L56.83 30.7478L56.8763 30.663L56.8918 30.5627L56.938 30.4392L56.9612 30.3544L56.9766 30.3081V30.2464L56.9998 30.1847V30.1229L57.0229 30.0612L57.0383 29.9995V29.9532L57.0615 29.8915V29.8298L57.0846 29.7681V29.6832L57.1001 29.6215V29.5598L57.1232 29.498V29.4132V29.3283L57.1464 29.2897V29.228V29.1817V29.12V29.0814V29.0197L57.1695 28.9734V28.9117V28.8731V28.8037V28.7651V28.7034V28.6648V28.5954V28.5337V28.4102V28.2637L57.1464 28.1171V27.9937V27.8471L57.1232 27.7005L57.1001 27.5539L57.0846 27.4305L57.0615 27.2839L57.0383 27.1373L57.0229 27.0139L56.9766 26.8673L56.9612 26.7439L56.9149 26.5973L56.8763 26.4661L56.83 26.3195L56.7915 26.1961L56.7452 26.0727L56.7066 25.9261L56.6449 25.8027L56.6063 25.6715L56.5369 25.5481L56.4752 25.4246L56.4134 25.3012L56.3517 25.1778L56.29 25.0466L56.2051 24.9232L56.1434 24.7997L56.0586 24.6917L55.9737 24.5683L55.8966 24.4603L55.8271 24.36L55.8117 24.3214L55.75 24.252L55.7037 24.1903L55.6651 24.1517L55.6188 24.09L55.5802 24.0283L55.5417 23.982L55.4722 23.9202L55.4337 23.8817L55.3951 23.82L55.3488 23.7737L55.3102 23.7351L55.2639 23.6734L55.2254 23.6271L55.1637 23.5885L55.1405 23.5422L55.0788 23.4805L54.9939 23.4188L54.9091 23.3339L54.8473 23.2722L54.7625 23.2105L54.6776 23.1256L54.6159 23.0639L54.5388 23.0022L54.4539 22.9405L54.3922 22.8788L54.3073 22.8325L54.2224 22.7707L54.1607 22.709L54.0759 22.6705L54.0141 22.6087L53.9293 22.5624L53.8444 22.5007L53.7441 22.439L53.6593 22.3773L53.5513 22.3156L53.451 22.2693L53.343 22.2076L51.9466 21.4361L52.4712 19.8314L52.4866 19.762L52.5098 19.7003V19.6385L52.5329 19.6L52.5483 19.5383V19.4765L52.5715 19.4302L52.5946 19.3685L52.6178 19.3068V19.2451L52.6332 19.1834L52.6563 19.1217V19.0522L52.6795 18.9905L52.6949 18.9288V18.8671L52.7181 18.8053L52.7412 18.6973V18.597L52.7644 18.5122L52.7798 18.4119V18.3039L52.8029 18.1959V18.0956L52.8261 18.0107V17.9104L52.8415 17.8024V17.6944V17.5941V17.4861V17.3858V17.2624V17.1312L52.8261 17.0078V16.8844Z" fill="white"/>
<path fill-rule="evenodd" clip-rule="evenodd" d="M12.6872 23.6249C12.1241 23.4166 11.476 23.3086 10.7045 23.3086C9.7402 23.3086 8.84529 23.5786 7.98895 24.1649C7.67264 24.3732 7.38719 24.6047 7.09403 24.8978C6.12968 25.9008 5.65137 27.112 5.65137 28.5546C5.65137 29.951 6.12968 31.1622 7.09403 32.1652C7.53377 32.6049 7.98895 32.9366 8.49041 33.1681C9.17702 33.5461 9.93307 33.7313 10.7045 33.7313H27.9548L14.5928 24.7358C14.2611 24.5275 13.9679 24.3192 13.6979 24.1726C13.2967 23.9181 12.9573 23.7329 12.6872 23.6249Z" fill="#FAB516"/>
<path fill-rule="evenodd" clip-rule="evenodd" d="M18.3863 13.4806C18.2397 13.3957 18.1162 13.3108 17.9928 13.2105C16.905 12.4776 15.6089 12.2462 14.1123 12.5239C13.2945 12.6937 12.5847 13.0022 11.983 13.4806C11.7361 13.6889 11.5047 13.8972 11.2964 14.1518C11.1498 14.3215 11.0264 14.5066 10.9029 14.6764C10.5866 15.1392 10.3397 15.5944 10.1932 16.0959C9.94629 16.8442 9.9 17.662 10.0697 18.5183C10.2163 19.2512 10.4632 19.9147 10.8026 20.4624C11.1575 21.0256 11.6204 21.4885 12.1604 21.8434L27.1965 32.1272L20.4075 16.5665C20.3227 16.3968 20.2609 16.2347 20.1992 16.0882C19.9292 15.417 19.6746 14.9155 19.4509 14.5606C19.3429 14.4372 19.2426 14.2906 19.1192 14.144C18.9109 13.9203 18.6563 13.6889 18.3863 13.4806Z" fill="#F37225"/>
<path fill-rule="evenodd" clip-rule="evenodd" d="M26.5351 6.00376C26.3885 5.94204 26.242 5.89575 26.0722 5.85718C25.2159 5.62573 24.3596 5.62573 23.5032 5.85718C23.2101 5.94204 22.9169 6.04233 22.6237 6.17348C21.3045 6.75981 20.4096 7.70101 19.9313 8.97395C19.9081 9.03567 19.8696 9.12053 19.8464 9.18225C19.4067 10.5015 19.4298 11.7513 19.9544 12.9393L27.322 29.8733L29.7676 12.7696C29.9142 11.813 29.9759 11.0801 29.9528 10.6018C29.9296 10.1389 29.8293 9.68371 29.6596 9.18225C29.621 9.01252 29.5362 8.85051 29.4745 8.65764C28.9344 7.42328 27.9546 6.54379 26.5351 6.00376Z" fill="#CC1E4F"/>
<path fill-rule="evenodd" clip-rule="evenodd" d="M47.164 24.1764C46.894 24.3229 46.6009 24.5312 46.2691 24.7395L32.8994 33.735H50.1497C51.1757 33.735 52.1324 33.4187 53.0504 32.7706C53.2819 32.6009 53.5133 32.3926 53.7602 32.1612C53.7988 32.1226 53.845 32.0763 53.9068 32.0146C54.4699 31.4128 54.848 30.7185 55.0563 29.9239C55.118 29.6924 55.1797 29.4456 55.2028 29.191C55.226 28.9827 55.226 28.7512 55.226 28.5429C55.226 27.3703 54.9097 26.3519 54.2616 25.4956C54.1151 25.2873 53.9453 25.079 53.7602 24.8861C53.467 24.593 53.1584 24.3615 52.8421 24.1532C52.4872 23.8832 52.0938 23.6903 51.6926 23.5437C51.1912 23.374 50.6666 23.2969 50.1497 23.2969C49.3782 23.2969 48.7301 23.4049 48.1901 23.6132C47.9201 23.7366 47.5652 23.9218 47.164 24.1764Z" fill="#12B24B"/>
<path fill-rule="evenodd" clip-rule="evenodd" d="M41.0067 9.17834C40.9835 9.11662 40.945 9.03176 40.9218 8.97004C40.4203 7.67396 39.5254 6.7559 38.2293 6.16958C37.9362 6.04614 37.643 5.93813 37.3499 5.85327C36.4935 5.62183 35.6372 5.62183 34.7808 5.85327C34.6111 5.89184 34.4645 5.93813 34.318 5.99985C32.8984 6.53989 31.9187 7.44252 31.3709 8.65374C31.3092 8.83889 31.2243 9.00862 31.1626 9.17834C30.9157 9.92668 30.8309 10.6596 30.9157 11.4156V11.5236H32.3121C32.7287 11.5622 32.9987 11.6316 33.0604 11.7319C33.1684 11.8399 32.9524 12.002 32.4973 12.1948L32.1424 12.4263L31.7026 12.7811C31.5175 12.9509 31.4095 13.1977 31.3478 13.4909C31.3092 13.6992 31.286 13.9075 31.3092 14.1621C31.3092 14.2701 31.3092 14.3472 31.3323 14.4784L33.5233 29.8925L40.9141 12.9586C41.4233 11.7859 41.4618 10.513 41.0067 9.17834Z" fill="#6462AC"/>
<path fill-rule="evenodd" clip-rule="evenodd" d="M50.9047 17.3411C50.8662 16.423 50.573 15.5435 49.9867 14.6718C49.8633 14.5021 49.7398 14.3169 49.5932 14.1472C49.3849 13.9003 49.1535 13.6843 48.9066 13.476C48.2817 12.9977 47.572 12.6582 46.7542 12.5194C45.2498 12.2493 43.9537 12.4808 42.8737 13.206C42.7502 13.314 42.6036 13.3911 42.4802 13.476C42.2102 13.7074 41.9787 13.9157 41.7704 14.1472C41.6239 14.2938 41.5236 14.4403 41.4387 14.5638C41.1687 14.9804 40.837 15.6516 40.4589 16.5696L33.6699 32.1303L48.7292 21.8388C49.2924 21.4608 49.7321 21.021 50.087 20.4579C50.1256 20.4193 50.1487 20.373 50.1718 20.3113C50.357 19.995 50.5036 19.6401 50.6347 19.2698C50.6964 19.0383 50.7813 18.7683 50.8199 18.5215C50.8816 18.1203 50.9202 17.7191 50.9047 17.3411Z" fill="#1D89CA"/>
<path fill-rule="evenodd" clip-rule="evenodd" d="M29.3969 41.1101V45.0755H31.341C31.8811 45.0755 32.344 44.8672 32.6988 44.4275C33.0537 43.9877 33.2234 43.5094 33.2234 42.9C33.2003 42.4216 32.992 42.005 32.5985 41.6502C32.2205 41.2721 31.7808 41.1101 31.2793 41.1101H29.3969ZM29.3969 48.0226V52.3428H31.6342C32.3208 52.3428 32.9534 52.1963 33.5166 51.8645C34.0566 51.5482 34.3498 51.0468 34.3498 50.3601C34.3498 48.9175 33.4317 48.1229 31.6342 48.0226H29.3969ZM52.2172 37.9316V41.897C51.0909 41.2876 50.1111 40.979 49.2702 40.979C49.085 40.979 48.6607 41.0175 48.0358 41.1024C46.5546 41.3107 45.3202 41.9588 44.3404 43.0002C43.3761 44.0417 42.8823 45.2993 42.8823 46.7805C42.8823 48.1769 43.3452 49.3727 44.2402 50.3756C45.1196 51.3785 46.2691 52.0497 47.6887 52.3351C48.0435 52.42 48.5064 52.4586 49.1082 52.4586C50.2577 52.3969 51.276 52.0805 52.2172 51.5174V55.8608C51.0909 56.2774 49.9799 56.4857 48.8536 56.4857C48.3521 56.4857 47.9587 56.4857 47.6809 56.4471C45.9065 56.2774 44.3019 55.7605 42.8361 54.881C41.378 54.0015 40.2053 52.8366 39.3721 51.3554C38.5158 49.8741 38.076 48.2463 38.076 46.4102C38.1378 44.7206 38.6161 43.17 39.4956 41.7967C40.375 40.4158 41.54 39.3126 43.0058 38.518C44.4639 37.7002 46.0763 37.245 47.8121 37.1602C49.4862 37.1602 50.9443 37.4147 52.2172 37.9316ZM12.9413 55.8685H9.07617V37.1602L19.7457 46.7882V37.9316H23.7111V56.4548L12.9413 46.4102V55.8685ZM25.4932 55.8685V37.9316H33.2157C34.2804 38.0551 35.1753 38.4717 35.885 39.2046C36.5948 39.9375 36.9883 40.8324 37.0731 41.9202C37.0731 43.7794 36.3865 45.1372 34.9824 46.0167C36.9265 46.8345 37.968 48.3157 38.076 50.4219C38.076 51.8645 37.6131 53.1143 36.6951 54.1558C35.777 55.1973 34.6044 55.7605 33.208 55.8685H25.4932Z" fill="white" fill-opacity="0.7"/>
</svg>
