<svg width="237" height="29" viewBox="0 0 237 29" fill="none" xmlns="http://www.w3.org/2000/svg">
<g clip-path="url(#clip0_3_6865)">
<path d="M17.6193 2.2909H26.7373V2.64329L25.269 4.11156C25.0964 4.26311 24.9596 4.45097 24.8682 4.66167C24.7768 4.87237 24.7332 5.10068 24.7404 5.33023V28.25H24.388L7.1505 12.422V24.2563C7.13719 24.4831 7.17667 24.7098 7.26584 24.9187C7.35501 25.1276 7.49144 25.313 7.66439 25.4603L9.13267 26.9286V27.2809H0V26.9286L1.46827 25.4603C1.6439 25.3145 1.78312 25.1298 1.87487 24.9208C1.96663 24.7118 2.00839 24.4843 1.99685 24.2563V1.14565H2.31987L19.5721 16.9296V5.33023C19.5913 5.10344 19.5576 4.87529 19.4735 4.66379C19.3894 4.4523 19.2573 4.26324 19.0876 4.11156L17.6193 2.64329V2.2909ZM52.1678 20.1892C52.1678 25.0492 48.7467 27.2809 43.1526 27.2809H28.7635V26.9286L30.2318 25.4603C30.4095 25.313 30.5499 25.1259 30.6418 24.9141C30.7336 24.7024 30.7742 24.472 30.7604 24.2416V5.33023C30.7742 5.09985 30.7336 4.86944 30.6418 4.6577C30.5499 4.44596 30.4095 4.25886 30.2318 4.11156L28.7635 2.64329V2.2909H43.2847C48.5412 2.2909 51.1547 4.78697 51.1547 9.04497C51.1117 10.2708 50.6517 11.4453 49.8508 12.3743C49.0499 13.3034 47.956 13.9314 46.7499 14.1546C50.1122 14.7272 52.2265 16.724 52.2265 20.1304M36.3692 12.1871H42.58C44.4887 12.1871 45.5165 11.2767 45.5165 9.5295C45.5165 7.78225 44.6502 6.85724 42.58 6.85724H36.3692V12.1871ZM46.4709 19.5284C46.4709 17.326 45.1348 16.4598 42.4772 16.4598H36.3692V22.5678H42.4772C44.7383 22.5678 46.4709 21.7896 46.4709 19.5284ZM67.5406 23.0376C63.2973 23.0376 60.4048 19.7781 60.4048 14.9034C60.4048 9.73505 63.6057 6.65168 67.7462 6.65168C68.8842 6.5375 70.0277 6.80619 70.9958 7.41521C71.9638 8.02423 72.701 8.93877 73.0907 10.014L73.4725 10.1168L75.5721 1.58613L75.2197 1.4393C74.5434 2.03435 73.6684 2.35396 72.7677 2.33495C71.549 2.33495 69.655 1.8651 67.3791 1.8651C60.0378 1.8651 54.3115 6.79851 54.3115 14.874C54.3115 22.9495 59.9497 27.7948 67.2617 27.7948C69.0058 27.8586 70.7439 27.5572 72.3647 26.9099C73.9854 26.2626 75.453 25.2837 76.6733 24.0361L73.4137 20.0717C72.7449 20.9993 71.8612 21.7509 70.8384 22.2624C69.8155 22.7738 68.684 23.0297 67.5406 23.0083M93.6466 2.65797L95.1149 4.12625C95.2885 4.27771 95.4271 4.4652 95.5209 4.67566C95.6147 4.88613 95.6615 5.11451 95.6581 5.34491V17.6344C95.6581 21.217 93.8521 22.9789 90.6807 22.9789C87.5092 22.9789 85.6445 21.3051 85.6445 17.6344V5.33023C85.6323 5.09863 85.6753 4.86745 85.7697 4.65562C85.8641 4.4438 86.0074 4.25735 86.1877 4.11156L87.656 2.64329V2.30558H78.0975V2.65797L79.5658 4.12625C79.7435 4.27354 79.884 4.46065 79.9758 4.67239C80.0676 4.88412 80.1083 5.11453 80.0944 5.34491V17.4875C80.0944 24.4031 84.4992 27.7655 90.6807 27.7655C96.8621 27.7655 101.282 24.3591 101.282 17.4875V5.33023C101.268 5.09985 101.308 4.86944 101.4 4.6577C101.492 4.44596 101.632 4.25886 101.81 4.11156L103.278 2.64329V2.30558H93.6466V2.65797ZM123.335 23.8158V16.6066C123.335 12.3192 121.206 9.82315 117.55 9.82315C116.381 9.79469 115.229 10.0982 114.225 10.6986C113.222 11.2989 112.41 12.1714 111.883 13.2149V10.1462H104.761V10.5279L106.23 11.9962C106.685 12.4514 106.758 12.745 106.758 13.6407V23.9186C106.758 24.8142 106.758 25.1079 106.23 25.5631L104.761 27.0313V27.3837H113.982V27.0313L112.514 25.5631C112.059 25.1079 111.985 24.8142 111.985 23.9186V18.0602C111.985 16.034 112.984 14.4335 115.23 14.4335C117.124 14.4335 118.005 15.8137 118.005 17.7959V27.2809H125.259V26.9286L123.79 25.4603C123.335 25.0051 123.276 24.7115 123.276 23.8158M134.465 23.8158V10.1462H127.27V10.5279L128.738 11.9962C129.194 12.4514 129.267 12.745 129.267 13.6407V23.9186C129.267 24.8142 129.267 25.1079 128.738 25.5631L127.27 27.0313V27.3837H136.55V27.0313L135.081 25.5631C134.626 25.1079 134.538 24.8142 134.538 23.9186M131.851 7.59137C132.26 7.59742 132.666 7.52082 133.045 7.36616C133.424 7.2115 133.767 6.98196 134.055 6.6913C134.343 6.40064 134.57 6.05484 134.721 5.67463C134.872 5.29443 134.944 4.88763 134.934 4.47863C134.942 4.07152 134.868 3.66699 134.716 3.28929C134.564 2.91159 134.337 2.5685 134.049 2.28057C133.761 1.99265 133.418 1.76582 133.04 1.61369C132.663 1.46157 132.258 1.38727 131.851 1.39525C131.419 1.35313 130.983 1.40189 130.57 1.53842C130.158 1.67494 129.779 1.8962 129.458 2.18798C129.136 2.47975 128.879 2.83559 128.703 3.23262C128.527 3.62965 128.436 4.05908 128.436 4.49331C128.436 4.92755 128.527 5.35698 128.703 5.75401C128.879 6.15104 129.136 6.50687 129.458 6.79865C129.779 7.09043 130.158 7.31169 130.57 7.44821C130.983 7.58474 131.419 7.6335 131.851 7.59137ZM156.224 10.1315H149.647L146.607 18.4126H146.519L143.039 10.1462H136.55V10.5279C137.712 11.4275 138.63 12.6036 139.222 13.949L146.211 28.0444H146.593L153.538 13.949C154.108 12.587 155.036 11.4048 156.224 10.5279V10.1315ZM173.08 18.7062C173.08 19.3082 173.08 19.8662 173.08 20.1745H161.231C161.411 21.1541 161.954 22.0298 162.752 22.626C163.549 23.2223 164.543 23.4952 165.533 23.39C166.207 23.4164 166.879 23.2991 167.505 23.046C168.13 22.7928 168.694 22.4096 169.16 21.9217L172.096 25.4162C170.102 26.9826 167.611 27.7799 165.078 27.6627C159.425 27.6627 155.828 24.2269 155.828 18.853C155.746 17.6312 155.926 16.406 156.356 15.2593C156.785 14.1125 157.455 13.0707 158.319 12.2034C159.184 11.3361 160.223 10.6634 161.369 10.2301C162.514 9.79683 163.739 9.61304 164.961 9.69101C170.643 9.69101 173.139 13.4351 173.139 18.5741M167.78 16.9883C167.811 16.5603 167.752 16.1305 167.607 15.7266C167.462 15.3226 167.234 14.9533 166.939 14.6424C166.643 14.3314 166.285 14.0856 165.889 13.9207C165.493 13.7558 165.067 13.6754 164.638 13.6847C163.742 13.6689 162.875 14.0067 162.227 14.6251C161.578 15.2435 161.199 16.0926 161.173 16.9883H167.78ZM182.228 13.4645V10.1462H175.106V10.5279L176.575 11.9962C177.03 12.4514 177.103 12.745 177.103 13.6407V23.9186C177.103 24.8142 177.103 25.1079 176.575 25.5631L175.106 27.0313V27.3837H184.342V27.0313L182.874 25.5631C182.433 25.1079 182.36 24.8142 182.36 23.9186V18.6328C182.36 16.0633 183.622 14.6831 185.649 14.6831C186.592 14.6786 187.501 15.0359 188.189 15.6816L189.569 10.3224C188.879 9.98413 188.12 9.81311 187.352 9.82315C186.208 9.84452 185.1 10.2205 184.179 10.8991C183.259 11.5776 182.572 12.5254 182.213 13.6113M200.566 16.7828C198.217 16.401 196.455 16.401 196.455 15.0062C196.455 14.2133 197.116 13.6847 198.658 13.6847C200.743 13.6847 202.681 14.3748 203.4 15.9605L203.767 16.0633L205.426 9.5295L205.074 9.39735C204.435 9.9679 203.611 10.2863 202.754 10.293C201.594 10.293 200.522 9.83784 198.349 9.83784C194.59 9.83784 191.008 11.1886 191.008 15.432C191.008 18.7503 193.651 20.0277 196.176 20.4535C198.702 20.8793 200.449 20.938 200.449 22.3622C200.449 23.1845 199.729 23.8305 198.202 23.8305C196.138 23.8491 194.131 23.1541 192.52 21.863L190.068 25.519C192.333 27.1207 195.063 27.9309 197.835 27.8242C202.769 27.8242 205.823 25.6512 205.823 21.8336C205.823 18.5447 203.033 17.2673 200.464 16.8268M224.44 25.5043L225.909 26.9726V27.325H218.773V24.9611C218.236 25.8778 217.454 26.627 216.515 27.1249C215.577 27.6228 214.518 27.8497 213.458 27.7802C212.768 27.8347 212.074 27.7463 211.419 27.5205C210.764 27.2947 210.164 26.9364 209.654 26.4679C209.144 25.9994 208.736 25.4308 208.456 24.7977C208.176 24.1645 208.029 23.4804 208.025 22.788C208.025 18.9852 210.639 17.2233 216.35 17.1058C218.186 17.1058 218.67 16.6653 218.67 15.6375C218.67 14.6097 217.833 13.8903 215.616 13.8903C214.828 13.8954 214.049 14.0638 213.329 14.3847C212.609 14.7056 211.963 15.1722 211.432 15.755L208.642 12.466C209.664 11.5466 210.859 10.8396 212.157 10.3859C213.456 9.93217 214.831 9.7409 216.203 9.82315C221.621 9.82315 223.971 12.0696 223.971 16.4598V23.8011C223.971 24.6968 224.044 24.9904 224.499 25.4456M218.729 19.5725C218.008 19.7483 217.269 19.8419 216.527 19.8515C214.163 19.9983 213.34 20.8646 213.34 22.0392C213.327 22.2977 213.369 22.5561 213.463 22.7973C213.557 23.0385 213.701 23.2571 213.885 23.4388C214.07 23.6204 214.291 23.761 214.533 23.8513C214.776 23.9416 215.035 23.9795 215.293 23.9626C215.734 24.008 216.18 23.96 216.601 23.8218C217.022 23.6836 217.409 23.4583 217.737 23.1605C218.065 22.8627 218.327 22.4991 218.506 22.0934C218.684 21.6878 218.775 21.249 218.773 20.8058L218.729 19.5725ZM235.13 25.4456C234.66 24.9904 234.586 24.6968 234.586 23.8011V0.25H227.362V0.602386L228.831 2.07066C229.286 2.52583 229.359 2.81948 229.359 3.70045V23.8158C229.359 24.7115 229.286 25.0051 228.831 25.4603L227.362 26.9286V27.2809H236.568V26.9286L235.13 25.4456Z" fill="#6B6B6B" fill-opacity="0.65"/>
</g>
<defs>
<clipPath id="clip0_3_6865">
<rect width="236.568" height="28" fill="white" transform="translate(0.283203 0.318359)"/>
</clipPath>
</defs>
</svg>
