<svg width="128" height="29" viewBox="0 0 128 29" fill="none" xmlns="http://www.w3.org/2000/svg">
<path fill-rule="evenodd" clip-rule="evenodd" d="M3.72676 3.49812C3.10066 5.21241 2.38513 6.83647 0.298141 7.01692L0 9.21241H2.1168V17.2425C2.1168 19.3477 2.08699 22.235 6.73798 22.235C8.13924 22.235 9.62995 21.8139 10.5244 21.1823L9.62995 18.8665C9.15292 19.1673 8.40757 19.4981 7.60259 19.4981C6.38021 19.4981 5.66468 18.9568 5.66468 17.1222V9.21241H9.33181L9.62995 6.68609H5.66468V3.49812H3.72676ZM13.953 18.4455C13.953 19.1974 13.6548 19.3778 13.0884 19.438L12.1045 19.5282V21.8139H20.0947V19.438L17.5009 19.3177V12.3402C17.5009 10.5959 18.604 9.30263 20.2139 9.30263C20.5419 9.30263 20.7506 9.33271 21.0189 9.45301C21.2574 9.57331 21.3171 9.84398 21.3171 10.2049V11.5883L24.0898 11.3778V6.89662C23.1059 6.41541 22.2115 6.23496 21.2276 6.23496C19.2599 6.23496 17.6798 7.43797 16.994 8.94173V6.68609H11.9554V9.12218L13.2076 9.21241C13.7741 9.24248 13.953 9.45301 13.953 10.1147V18.4455ZM30.9768 6.68609H25.6401V9.18233L26.6836 9.24248C27.2501 9.24248 27.429 9.45301 27.429 10.1147V18.4756C27.429 19.1974 27.101 19.3778 26.5643 19.438L25.5805 19.5282V21.8139H32.6762V19.4079L30.9768 19.3177V6.68609ZM26.5942 2.50564C26.5942 3.7688 27.4886 4.70113 28.86 4.70113C30.2017 4.70113 31.1557 3.7688 31.1557 2.50564C31.1557 1.24248 30.2017 0.25 28.8898 0.25C27.4886 0.25 26.5942 1.24248 26.5942 2.50564ZM34.3756 9.0921L35.6278 9.18233C36.1645 9.21241 36.3732 9.45301 36.3732 10.1147V18.4455C36.3732 19.1974 36.075 19.3778 35.5086 19.438L34.5247 19.5282V21.8139H41.6205V19.4079L39.9211 19.3177V12.0395C39.9211 10.4756 41.0242 9.00188 42.9919 9.00188C45.0193 9.00188 45.4367 10.265 45.4367 12.25V18.4455C45.4367 19.1974 45.1385 19.3778 44.5721 19.438L43.5882 19.5282V21.8139H50.6839V19.4079L48.9845 19.3177V11.468C48.9845 7.91917 47.2255 6.23496 44.2441 6.23496C42.2764 6.23496 40.4577 7.13722 39.4142 8.64098V6.68609H34.3756V9.0921ZM58.525 28.25C62.9972 28.25 65.0543 26.2049 65.4121 21.7838C65.5015 20.7011 65.4717 19.5583 65.4717 18.5056V7.34774C63.7127 6.59586 61.3872 6.23496 59.9561 6.23496C55.4542 6.23496 52.2045 8.79135 52.2045 14.235C52.2045 17.6635 53.6952 21.2726 58.048 21.2726C59.5089 21.2726 60.9996 20.7914 62.0133 19.5883V21.2425C62.0133 23.7688 61.2978 25.6635 58.5549 25.6635C57.6604 25.6635 57.0045 25.5733 56.4381 25.3628C55.9014 25.1523 55.7523 24.8515 55.7523 24.2801V22.8365L52.92 23.0771V27.2575C54.1722 27.8891 56.6468 28.25 58.525 28.25ZM62.0133 15.6786C62.0133 17.5132 60.6418 18.6259 58.9723 18.6259C56.1995 18.6259 55.8716 15.9192 55.8716 13.8741C55.8716 10.8365 57.1536 8.8515 59.6282 8.8515C60.463 8.8515 61.3276 8.9718 62.0133 9.21241V15.6786ZM80.1104 7.28759C77.9638 6.47556 75.7874 6.23496 74.8035 6.23496C69.437 6.23496 66.9326 9.60338 66.9326 14.8966C66.9326 19.1974 68.6917 22.2049 72.8954 22.2049C74.5352 22.2049 76.0557 21.3929 76.98 20.0395L77.0694 20.0695V21.8139H81.8098V19.4079L80.8558 19.3477C80.2893 19.3177 80.1104 19.1372 80.1104 18.4756V7.28759ZM76.652 17.032C76.652 18.3252 75.5191 19.6485 73.6706 19.6485C71.1662 19.6485 70.5699 17.2726 70.5699 14.7763C70.5699 11.5282 71.524 8.8515 74.3563 8.8515C75.2806 8.8515 76.2048 9.03195 76.652 9.24248V17.032ZM85.2981 24.6711C85.2981 25.4229 84.9999 25.6034 84.4335 25.6635L83.4496 25.7538V28.0395H91.1416V25.6635L88.7267 25.5432V21.3929C89.5019 21.8741 90.7541 22.265 91.9168 22.265C95.8523 22.265 98.4461 19.4079 98.4461 13.8741C98.4461 8.4906 96.3591 6.23496 93.0497 6.23496C90.5155 6.23496 88.8758 7.61842 88.3391 8.64098V6.68609H83.3005V9.12218L84.5527 9.21241C85.1192 9.21241 85.2981 9.45301 85.2981 10.1147V24.6711ZM94.7492 14.1748C94.7492 16.7914 93.8845 19.4079 91.3503 19.4079C90.5752 19.4079 89.5019 19.1673 88.7267 18.656V11.7387C88.7267 10.3553 90.0385 9.15226 91.7379 9.15226C93.3181 9.15226 94.7492 10.1748 94.7492 14.1748ZM101.934 24.6711C101.934 25.4229 101.636 25.6034 101.07 25.6635L100.086 25.7538V28.0395H107.778V25.6635L105.363 25.5432V21.3929C106.138 21.8741 107.39 22.265 108.553 22.265C112.489 22.265 115.082 19.4079 115.082 13.8741C115.082 8.4906 112.995 6.23496 109.686 6.23496C107.152 6.23496 105.512 7.61842 104.975 8.64098V6.68609H99.9368V9.12218L101.189 9.21241C101.755 9.21241 101.934 9.45301 101.934 10.1147V24.6711ZM111.385 14.1748C111.385 16.7914 110.521 19.4079 107.987 19.4079C107.211 19.4079 106.138 19.1673 105.363 18.656V11.7387C105.363 10.3553 106.675 9.15226 108.374 9.15226C109.954 9.15226 111.385 10.1748 111.385 14.1748ZM124.116 8.9718C124.653 9.18233 124.802 9.42293 124.802 9.99436V11.2575L127.485 11.047V7.43797C126.322 6.86654 124.563 6.23496 122.536 6.23496C119.405 6.23496 116.782 7.8891 116.782 11.0169C116.782 14.3553 119.197 15.1071 121.403 15.6786C123.013 16.0996 124.325 16.3703 124.325 17.8139C124.325 19.0771 123.46 19.6485 121.969 19.6485C121.254 19.6485 120.568 19.5583 120.002 19.3477C119.465 19.1372 119.316 18.8966 119.316 18.3252V16.8816L116.633 17.0921V21.2726C117.885 21.9041 120.24 22.2049 122.118 22.2049C125.309 22.2049 127.873 20.5207 127.873 17.3929C127.873 14.1147 125.309 13.3628 122.983 12.7011C121.582 12.3102 120.151 11.8891 120.151 10.5056C120.151 9.30263 121.105 8.70113 122.387 8.70113C123.102 8.70113 123.55 8.76128 124.116 8.9718Z" fill="#FEFEFE"/>
</svg>
